<svg width="125" height="130" viewBox="0 0 125 130" fill="none" xmlns="http://www.w3.org/2000/svg">
<g clip-path="url(#clip0_39_1242)">
<path d="M15 92.1835H45.9706C56.257 92.1958 64.5924 100.541 64.6047 110.839V113H15V92.1835ZM60.1274 108.681C59.0342 101.75 53.115 96.5122 45.9718 96.5023H19.3135V108.681H60.1274ZM78.9254 92.1835H109.896V113H60.2915V110.841C60.3037 100.541 68.6391 92.1958 78.9244 92.1835H78.9256H78.9254ZM105.582 96.5022H78.9254C71.7814 96.512 65.8619 101.75 64.7793 108.6L64.7687 108.681H105.583L105.582 96.5022ZM15.0002 38.5877H45.9708C56.2572 38.5999 64.5926 46.9456 64.6049 57.2436V113H15L15.0002 38.5877ZM60.2915 108.681V57.2449C60.2816 49.33 53.876 42.9164 45.9718 42.9067H19.3134V108.681H60.2915ZM109.896 113H60.2915V57.2447C60.2915 46.9408 68.6342 38.5878 78.9255 38.5878V42.9065C71.0164 42.9065 64.6049 49.326 64.6049 57.2447V108.681L105.583 108.681V42.9065H95.4029V38.5878H109.896V113ZM87.1641 81.1145L76.7685 70.7063V28.3954V28.3648C76.7685 25.501 77.9219 22.9069 79.7887 21.0227L79.7881 21.0232C81.6499 19.1555 84.2236 18 87.0671 18C87.086 18 87.1049 18 87.1238 18.0002H87.177C92.9062 18.0124 97.5472 22.6592 97.5595 28.3942V70.7192L87.1641 81.1145ZM81.0821 68.9184L87.1641 75.0079L93.2462 68.9184V28.3955C93.2412 25.0344 90.5211 22.311 87.1646 22.306H87.1046C85.4421 22.306 83.9378 22.983 82.851 24.0765L82.8508 24.0768C81.7579 25.1769 81.0824 26.6934 81.0824 28.3682V28.3969V28.3955L81.0821 68.9184Z" fill="#FFF"/>
<path d="M17.8125 21.5V25.0312H1.42188L1.20312 22.2969L10.6875 7.25H14.2656L10.3906 13.7344L5.67188 21.5H17.8125ZM15.2344 7.25V30H10.7344V7.25H15.2344Z" fill="#1D36AE"/>
<rect width="30" height="30" transform="translate(95 100)" fill="#B52736"/>
<path d="M110 106.25V123.75" stroke="white" stroke-width="3" stroke-linecap="round" stroke-linejoin="round"/>
<path d="M118.75 115L110 123.75L101.25 115" stroke="white" stroke-width="3" stroke-linecap="round" stroke-linejoin="round"/>
</g>
<defs>
<clipPath id="clip0_39_1242">
<rect width="124.583" height="130" fill="white"/>
</clipPath>
</defs>
</svg>
