<svg width="131" height="131" viewBox="0 0 131 131" fill="none" xmlns="http://www.w3.org/2000/svg">
<g clip-path="url(#clip0_39_1196)">
<path d="M44.81 49.6715L68.3377 73.1992L68.3379 73.199C69.1372 73.9984 69.1372 75.2945 68.3379 76.0938C67.9382 76.4934 67.4144 76.6933 66.8905 76.6933V76.6933H19.8122C18.6817 76.6933 17.7653 75.7769 17.7653 74.6464C17.7653 74.0747 17.9997 73.558 18.3776 73.1866L41.9041 49.6601L41.904 49.6599C42.7033 48.8606 43.9994 48.8606 44.7987 49.6599L44.81 49.6715ZM61.9491 72.5995L43.3513 54.0017L24.7535 72.5995H61.9491Z" fill="#FFFF"/>
<path d="M26.0208 72.5995H60.6818C61.8122 72.5995 62.7287 73.516 62.7287 74.6464V104.851C62.7287 105.981 61.8122 106.898 60.6818 106.898H48.798C47.6676 106.898 46.7511 105.981 46.7511 104.851V93.0336H39.9515V104.851C39.9515 105.981 39.035 106.898 37.9046 106.898H26.0208C24.8904 106.898 23.9739 105.981 23.9739 104.851V74.6464C23.9739 73.516 24.8903 72.5995 26.0208 72.5995ZM58.6348 76.6933H28.0677V102.804H35.8577V90.9867C35.8577 89.8562 36.7742 88.9397 37.9046 88.9397H48.798C49.9284 88.9397 50.8449 89.8562 50.8449 90.9867V102.804H58.6349L58.6348 76.6933Z" fill="#FFFF"/>
<path d="M74.1518 24.1019H111.188C112.318 24.1019 113.235 25.0184 113.235 26.1489V104.851C113.235 105.982 112.318 106.898 111.188 106.898H99.0355C97.9051 106.898 96.9886 105.982 96.9886 104.851V90.6947H88.3513V104.851C88.3513 105.982 87.4348 106.898 86.3043 106.898H74.1518C73.0214 106.898 72.1049 105.982 72.1049 104.851V26.1489C72.1049 25.0184 73.0214 24.1019 74.1518 24.1019ZM109.141 28.1958H76.1988V102.804H84.2574V88.6473C84.2574 87.5169 85.1739 86.6004 86.3044 86.6004H99.0355C100.166 86.6004 101.082 87.5169 101.082 88.6473V102.804H109.141L109.141 28.1958Z" fill="#FFFF"/>
<path d="M80.9309 31.0601H88.6758C89.5236 31.0601 90.2109 31.7474 90.2109 32.5952V41.8417C90.2109 42.6895 89.5236 43.3769 88.6758 43.3769H80.9309C80.0831 43.3769 79.3958 42.6895 79.3958 41.8417V32.5952C79.3958 31.7474 80.0831 31.0601 80.9309 31.0601ZM87.1406 34.1304H82.4661V40.3066H87.1406V34.1304Z" fill="#FFFF"/>
<path d="M80.9309 50.6592H88.6758C89.5236 50.6592 90.2109 51.3465 90.2109 52.1943V61.4408C90.2109 62.2886 89.5236 62.976 88.6758 62.976H80.9309C80.0831 62.976 79.3958 62.2886 79.3958 61.4408V52.1943C79.3958 51.3465 80.0831 50.6592 80.9309 50.6592ZM87.1406 53.7295H82.4661V59.9057H87.1406V53.7295Z" fill="#FFFF"/>
<path d="M80.9309 70.2583H88.6758C89.5236 70.2583 90.2109 70.9456 90.2109 71.7935V81.04C90.2109 81.8878 89.5236 82.5751 88.6758 82.5751H80.9309C80.0831 82.5751 79.3958 81.8878 79.3958 81.04V71.7935C79.3958 70.9456 80.0831 70.2583 80.9309 70.2583ZM87.1406 73.3286H82.4661V79.5048H87.1406V73.3286Z" fill="#FFFF"/>
<path d="M96.6637 31.0601H104.409C105.256 31.0601 105.944 31.7474 105.944 32.5952V41.8417C105.944 42.6895 105.256 43.3769 104.409 43.3769H96.6637C95.8159 43.3769 95.1285 42.6895 95.1285 41.8417V32.5952C95.1285 31.7474 95.8159 31.0601 96.6637 31.0601ZM102.873 34.1304H98.1989V40.3066H102.873V34.1304Z" fill="#FFFF"/>
<path d="M96.6637 50.6592H104.409C105.256 50.6592 105.944 51.3465 105.944 52.1943V61.4408C105.944 62.2886 105.256 62.976 104.409 62.976H96.6637C95.8159 62.976 95.1285 62.2886 95.1285 61.4408V52.1943C95.1285 51.3465 95.8159 50.6592 96.6637 50.6592ZM102.873 53.7295H98.1989V59.9057H102.873V53.7295Z" fill="#FFFF"/>
<path d="M96.6637 70.2583H104.409C105.256 70.2583 105.944 70.9456 105.944 71.7935V81.04C105.944 81.8878 105.256 82.5751 104.409 82.5751H96.6637C95.8159 82.5751 95.1285 81.8878 95.1285 81.04V71.7935C95.1285 70.9456 95.8159 70.2583 96.6637 70.2583ZM102.873 73.3286H98.1989V79.5048H102.873V73.3286Z" fill="#FFFF"/>
<path d="M12.6562 7.20312V30H8.15625V12.3906L2.75 14.1094V10.5625L12.1719 7.20312H12.6562ZM31.0312 7.20312V30H26.5312V12.3906L21.125 14.1094V10.5625L30.5469 7.20312H31.0312Z" fill="#1D36AE"/>
<rect width="30" height="30" transform="translate(101 101)" fill="#4AD256"/>
<path d="M116 124.75V107.25" stroke="white" stroke-width="3" stroke-linecap="round" stroke-linejoin="round"/>
<path d="M107.25 116L116 107.25L124.75 116" stroke="white" stroke-width="3" stroke-linecap="round" stroke-linejoin="round"/>
</g>
<defs>
<clipPath id="clip0_39_1196">
<rect width="131" height="131" fill="white"/>
</clipPath>
</defs>
</svg>
