<svg width="170" height="165" viewBox="0 0 170 165" fill="none" xmlns="http://www.w3.org/2000/svg">
<g id="Capa_8" clip-path="url(#clip0_39_1271)">
<g id="Group">
<path id="Vector" d="M85.0001 159.509C129.011 159.509 164.688 123.803 164.688 79.7545H159.375C159.375 83.8459 157.691 87.9134 154.371 91.8426C150.875 95.9793 145.549 99.9058 138.972 103.197C133.907 105.733 128.204 107.871 121.962 109.588C123.72 100.863 124.732 91.3721 124.836 81.432C123.016 81.9026 121.234 82.4688 119.497 83.1202C119.3 92.3265 118.304 101.254 116.519 109.7C116.426 110.141 116.331 110.574 116.232 111.01C115.797 111.106 115.361 111.204 114.923 111.297C106.484 113.084 97.5641 114.084 88.3655 114.278C87.7148 116.019 87.149 117.8 86.6788 119.621C96.6079 119.517 106.091 118.507 114.811 116.745C113.095 122.995 110.96 128.7 108.426 133.77C105.137 140.352 101.214 145.682 97.0807 149.181C93.1548 152.504 89.0907 154.189 85.0027 154.189C80.9148 154.189 76.8507 152.504 72.9248 149.181C68.7916 145.682 64.8683 140.352 61.5799 133.77C59.0458 128.7 56.9102 122.992 55.1943 116.745C63.9121 118.505 73.3949 119.517 83.3266 119.621C82.8565 117.8 82.2907 116.016 81.6399 114.278C72.4413 114.081 63.5216 113.084 55.0827 111.297C54.6444 111.204 54.2088 111.109 53.7732 111.01C53.6776 110.574 53.5793 110.138 53.4863 109.7C51.7013 101.254 50.7026 92.3265 50.5087 83.1202C48.7688 82.4688 46.9891 81.9026 45.1696 81.432C45.2732 91.3694 46.2826 100.86 48.0437 109.588C41.7988 107.871 36.0985 105.733 31.033 103.197C24.4562 99.9058 19.1304 95.9793 15.6347 91.8426C12.3144 87.9134 10.6304 83.8459 10.6304 79.7545H5.31787C5.31787 123.803 40.994 159.509 85.0054 159.509H85.0001ZM120.642 115.426C136.895 111.351 149.977 104.579 157.54 96.2797C156.578 100.525 155.242 104.68 153.531 108.727C149.786 117.59 144.423 125.552 137.591 132.39C130.759 139.227 122.804 144.595 113.948 148.343C109.908 150.055 105.753 151.393 101.511 152.355C109.804 144.786 116.57 131.693 120.642 115.426ZM49.3558 115.426C53.4279 131.693 60.1933 144.786 68.4862 152.355C64.2441 151.393 60.0924 150.055 56.0496 148.343C47.1937 144.595 39.2382 139.227 32.4063 132.39C25.5744 125.552 20.2115 117.59 16.4662 108.727C14.7555 104.683 13.4194 100.525 12.4579 96.2797C20.0202 104.579 33.1022 111.351 49.3558 115.426Z" fill="#001511"/>
<path id="Vector_2" d="M11.5786 74.4376C12.4021 72.1513 13.7541 69.8863 15.6321 67.6664C19.1277 63.5298 24.4535 59.6032 31.0304 56.312C36.0958 53.7758 41.7988 51.6384 48.041 49.921C46.4074 58.0268 45.4166 66.7918 45.2014 75.9636C46.9838 76.3809 48.7475 76.8781 50.4874 77.4656C50.6255 67.8791 51.6322 58.585 53.4863 49.8094C53.5793 49.3681 53.6749 48.9347 53.7732 48.4987C54.2088 48.403 54.6444 48.3047 55.0827 48.2116C64.5469 46.2098 74.6115 45.1942 85.0027 45.1942C95.394 45.1942 105.458 46.2098 114.923 48.2116C115.361 48.3047 115.797 48.4004 116.232 48.4987C116.328 48.9347 116.426 49.3707 116.519 49.8094C118.373 58.585 119.38 67.8791 119.518 77.4656C121.258 76.8807 123.022 76.3809 124.804 75.9636C124.589 66.7918 123.601 58.0268 121.964 49.921C128.209 51.6384 133.91 53.7758 138.975 56.312C145.552 59.6032 150.878 63.5298 154.373 67.6664C156.249 69.8863 157.603 72.1513 158.427 74.4376H164.512C161.774 32.8695 127.224 0 85 0C42.7763 0 8.22645 32.8695 5.49316 74.4376H11.5786ZM113.948 11.1656C122.804 14.9141 130.759 20.2816 137.591 27.1192C144.423 33.9568 149.786 41.919 153.531 50.7824C155.242 54.8259 156.578 58.9838 157.54 63.2294C149.977 54.9296 136.895 48.1585 120.642 44.083C116.57 27.8157 109.804 14.7227 101.511 7.15398C105.753 8.11635 109.905 9.45357 113.948 11.1656ZM72.9221 10.3282C76.848 7.00511 80.9121 5.31963 85 5.31963C89.088 5.31963 93.1521 7.00511 97.078 10.3282C101.211 13.8268 105.134 19.157 108.423 25.7395C110.957 30.8092 113.093 36.517 114.808 42.7644C105.599 40.9035 95.54 39.8773 85 39.8773C74.46 39.8773 64.4008 40.9035 55.1916 42.7644C56.9075 36.5143 59.0432 30.8092 61.5772 25.7395C64.8657 19.157 68.7889 13.8268 72.9221 10.3282ZM32.4089 27.1219C39.2408 20.2842 47.1963 14.9168 56.0522 11.1683C60.0924 9.45623 64.2468 8.11901 68.4888 7.15664C60.196 14.7253 53.4305 27.8184 49.3585 44.0857C33.1049 48.1611 20.0229 54.9323 12.4605 63.2321C13.4221 58.9865 14.7582 54.8313 16.4688 50.785C20.2141 41.9217 25.5771 33.9595 32.4089 27.1219Z" fill="#001511"/>
</g>
<path id="Vector_3" d="M138.125 79.7545C108.784 79.7545 85 103.559 85 132.924C85 103.559 61.2159 79.7545 31.875 79.7545H0V111.656C0 141.022 23.7841 164.826 53.125 164.826H116.875C146.216 164.826 170 141.022 170 111.656V79.7545H138.125Z" fill="#00B971"/>
</g>
<defs>
<clipPath id="clip0_39_1271">
<rect width="170" height="164.826" fill="white"/>
</clipPath>
</defs>
</svg>
