<svg width="131" height="131" viewBox="0 0 131 131" fill="none" xmlns="http://www.w3.org/2000/svg">
<path d="M58.2356 92.398V120.122C58.2356 121.215 57.3492 122.101 56.256 122.101H45.07C43.9767 122.101 43.0903 121.215 43.0903 120.122V92.398C43.0903 91.3047 43.9767 90.4183 45.07 90.4183H56.256C57.3492 90.4183 58.2356 91.3047 58.2356 92.398ZM54.2764 118.142V94.3776H47.0495V118.142H54.2764Z" fill="#FFFF"/>
<path d="M21.9513 90.9695L37.7876 72.3577L39.2877 73.6337L37.78 72.3509C38.1714 71.8909 38.7277 71.6545 39.2877 71.6542V71.6541H62.0384C62.7146 71.6541 63.3116 71.9932 63.6687 72.5107L79.5044 91.1218L79.5122 91.1153C80.2206 91.9479 80.1199 93.1973 79.2873 93.9058C78.9146 94.2229 78.4583 94.3778 78.0045 94.3775V94.3777H23.3217C22.2284 94.3777 21.342 93.4913 21.342 92.3981C21.342 91.8366 21.5759 91.3297 21.9513 90.9695ZM40.1891 75.6133L27.5919 90.4184H73.7342L61.137 75.6133H40.1891Z" fill="#FFFF"/>
<path d="M27.1527 72.205L42.4135 54.2694L43.9137 55.5453L42.406 54.2625C42.7973 53.8025 43.3537 53.5661 43.9137 53.5658V53.5657H57.4119C58.0881 53.5657 58.685 53.9048 59.0422 54.4223L74.3026 72.3574L74.3103 72.3508C75.0188 73.1834 74.9181 74.4328 74.0855 75.1413C73.7127 75.4584 73.2565 75.6133 72.8027 75.6131V75.6132H28.523C27.4297 75.6132 26.5433 74.7269 26.5433 73.6336C26.5433 73.0722 26.7771 72.5653 27.1526 72.205L27.1527 72.205ZM44.8151 57.5249L32.7932 71.6539H68.5325L56.5105 57.5249H44.8151Z" fill="#FFFF"/>
<path d="M33.497 54.1153L49.1628 35.7037L50.663 36.9796L49.1553 35.6968C49.8637 34.8641 51.1132 34.7635 51.9458 35.4719C52.0819 35.5877 52.1984 35.7181 52.2951 35.8586L67.9587 54.2676L67.9664 54.2611C68.6749 55.0937 68.5742 56.3431 67.7415 57.0516C67.3688 57.3687 66.9125 57.5236 66.4587 57.5233V57.5235H34.8673C33.774 57.5235 32.8877 56.6371 32.8877 55.5439C32.8877 54.9824 33.1215 54.4755 33.497 54.1153ZM50.663 40.0186L39.1375 53.5642H62.1886L50.663 40.0186Z" fill="#FFFF"/>
<path d="M93.0411 39.1564C91.9735 39.3785 91.288 40.424 91.51 41.4917C91.7321 42.5593 92.7776 43.2448 93.8453 43.0227C93.8521 43.0214 96.2038 42.5027 97.7361 45.9178L99.5378 45.1136L97.7317 45.9239C98.1793 46.9213 99.3508 47.3672 100.348 46.9197C100.523 46.8412 100.681 46.7406 100.82 46.6224C103.78 44.5665 105.516 46.1563 105.521 46.1607C106.341 46.8825 107.591 46.8028 108.313 45.9829C109.034 45.163 108.955 43.9131 108.135 43.1914C108.124 43.1821 104.906 40.2575 100.264 42.4032C97.3116 38.2265 93.0549 39.1536 93.0411 39.1564Z" fill="#FFFF"/>
<path d="M88.6099 50.9116C87.5423 51.1336 86.8568 52.1792 87.0789 53.2468C87.3009 54.3144 88.3465 54.9999 89.4141 54.7779C89.4209 54.7765 91.7726 54.2578 93.305 57.6729L95.1067 56.8687L93.3006 57.6791C93.7481 58.6765 94.9196 59.1223 95.917 58.6748C96.0919 58.5963 96.2496 58.4957 96.3888 58.3776C99.3488 56.3216 101.085 57.9114 101.09 57.9159C101.91 58.6376 103.16 58.558 103.882 57.738C104.603 56.9181 104.524 55.6682 103.704 54.9465C103.693 54.9372 100.475 52.0127 95.8324 54.1583C92.8804 49.9816 88.6237 50.9087 88.6099 50.9116Z" fill="#FFFF"/>
<path d="M82.6712 60.9319C81.6036 61.154 80.9181 62.1996 81.1402 63.2672C81.3622 64.3348 82.4078 65.0203 83.4754 64.7983C83.4822 64.7969 85.8339 64.2782 87.3662 67.6933L89.168 66.8891L87.3619 67.6995C87.8094 68.6969 88.9809 69.1427 89.9783 68.6952C90.1532 68.6167 90.3109 68.5161 90.45 68.398C93.4101 66.342 95.1462 67.9318 95.1513 67.9363C95.9713 68.658 97.2211 68.5784 97.9429 67.7584C98.6646 66.9385 98.5849 65.6886 97.765 64.9669C97.7545 64.9576 94.5365 62.033 89.8937 64.1787C86.9417 60.002 82.685 60.9291 82.6712 60.9319Z" fill="#FFFF"/>
<path d="M18.9796 126.041C17.8864 126.041 17 126.927 17 128.02C17 129.114 17.8864 130 18.9796 130H110.04C111.133 130 112.02 129.114 112.02 128.02C112.02 126.927 111.133 126.041 110.04 126.041H18.9796Z" fill="#FFFF"/>
<path d="M18.9796 118.153C17.8864 118.153 17 119.039 17 120.132C17 121.226 17.8864 122.112 18.9796 122.112H110.04C111.133 122.112 112.02 121.226 112.02 120.132C112.02 119.039 111.133 118.153 110.04 118.153H18.9796Z" fill="#FFFF"/>
<path d="M12.6562 7.20312V30H8.15625V12.3906L2.75 14.1094V10.5625L12.1719 7.20312H12.6562ZM24.2969 19.6406L20.7031 18.7812L22 7.25H34.7812V10.8906H25.7031L25.1406 15.9375C25.4427 15.7604 25.901 15.5729 26.5156 15.375C27.1302 15.1667 27.8177 15.0625 28.5781 15.0625C29.6823 15.0625 30.6615 15.2344 31.5156 15.5781C32.3698 15.9219 33.0938 16.4219 33.6875 17.0781C34.2917 17.7344 34.75 18.5365 35.0625 19.4844C35.375 20.4323 35.5312 21.5052 35.5312 22.7031C35.5312 23.7135 35.375 24.6771 35.0625 25.5938C34.75 26.5 34.276 27.3125 33.6406 28.0312C33.0052 28.7396 32.2083 29.2969 31.25 29.7031C30.2917 30.1094 29.1562 30.3125 27.8438 30.3125C26.8646 30.3125 25.9167 30.1667 25 29.875C24.0938 29.5833 23.276 29.151 22.5469 28.5781C21.8281 28.0052 21.25 27.3125 20.8125 26.5C20.3854 25.6771 20.1615 24.7396 20.1406 23.6875H24.6094C24.6719 24.3333 24.8385 24.8906 25.1094 25.3594C25.3906 25.8177 25.7604 26.1719 26.2188 26.4219C26.6771 26.6719 27.2135 26.7969 27.8281 26.7969C28.401 26.7969 28.8906 26.6875 29.2969 26.4688C29.7031 26.25 30.0312 25.9479 30.2812 25.5625C30.5312 25.1667 30.7135 24.7083 30.8281 24.1875C30.9531 23.6562 31.0156 23.0833 31.0156 22.4688C31.0156 21.8542 30.9427 21.2969 30.7969 20.7969C30.651 20.2969 30.4271 19.8646 30.125 19.5C29.8229 19.1354 29.4375 18.8542 28.9688 18.6562C28.5104 18.4583 27.974 18.3594 27.3594 18.3594C26.526 18.3594 25.8802 18.4896 25.4219 18.75C24.974 19.0104 24.599 19.3073 24.2969 19.6406Z" fill="#006C42"/>
<rect width="30" height="30" transform="translate(101 131) rotate(-90)" fill="#E66A27"/>
<path d="M107.25 116L124.75 116" stroke="white" stroke-width="3" stroke-linecap="round" stroke-linejoin="round"/>
<path d="M116 107.25L124.75 116L116 124.75" stroke="white" stroke-width="3" stroke-linecap="round" stroke-linejoin="round"/>
</svg>
