<svg width="131" height="130" viewBox="0 0 131 130" fill="none" xmlns="http://www.w3.org/2000/svg">
<g clip-path="url(#clip0_39_1189)">
<path d="M111 64.6565C111 63.6289 110.16 62.7957 109.125 62.7957C108.089 62.7957 107.25 63.6289 107.25 64.6565C107.25 75.9605 102.633 86.1944 95.1683 93.6021C87.7037 101.01 77.3911 105.591 66 105.591C54.609 105.591 44.2964 101.01 36.8317 93.6021C29.3671 86.1945 24.7501 75.9606 24.7501 64.6565C24.7501 53.3524 29.3671 43.1185 36.8317 35.7108C44.2963 28.3032 54.6089 23.7215 66 23.7215C67.0355 23.7215 67.875 22.8883 67.875 21.8607C67.875 20.8331 67.0355 20 66 20C53.5739 20 42.3238 24.9984 34.1804 33.0797C26.0369 41.161 21 52.3252 21 64.6565C21 76.9878 26.0369 88.1519 34.1804 96.2332C42.3238 104.315 53.5739 109.313 66 109.313C78.4261 109.313 89.6762 104.315 97.8196 96.2332C105.963 88.1519 111 76.9878 111 64.6565Z" fill="#FFB200"/>
<path d="M49.125 55.7599C48.0895 55.7599 47.25 56.593 47.25 57.6206C47.25 58.6482 48.0895 59.4813 49.125 59.4813H82.8752C83.9107 59.4813 84.7502 58.6482 84.7502 57.6206C84.7502 56.593 83.9107 55.7599 82.8752 55.7599H49.125Z" fill="#FFB200"/>
<path d="M49.125 69.8314C48.0895 69.8314 47.25 70.6645 47.25 71.6922C47.25 72.7198 48.0895 73.5529 49.125 73.5529H82.8752C83.9107 73.5529 84.7502 72.7198 84.7502 71.6922C84.7502 70.6645 83.9107 69.8314 82.8752 69.8314H49.125Z" fill="#FFB200"/>
<path d="M12.6562 7.20312V30H8.15625V12.3906L2.75 14.1094V10.5625L12.1719 7.20312H12.6562ZM35.375 16.625V20.5625C35.375 22.2708 35.1927 23.7448 34.8281 24.9844C34.4635 26.2135 33.9375 27.224 33.25 28.0156C32.5729 28.7969 31.7656 29.375 30.8281 29.75C29.8906 30.125 28.849 30.3125 27.7031 30.3125C26.7865 30.3125 25.9323 30.1979 25.1406 29.9688C24.349 29.7292 23.6354 29.3594 23 28.8594C22.375 28.3594 21.8333 27.7292 21.375 26.9688C20.9271 26.1979 20.5833 25.2812 20.3438 24.2188C20.1042 23.1562 19.9844 21.9375 19.9844 20.5625V16.625C19.9844 14.9167 20.1667 13.4531 20.5312 12.2344C20.9062 11.0052 21.4323 10 22.1094 9.21875C22.7969 8.4375 23.6094 7.86458 24.5469 7.5C25.4844 7.125 26.526 6.9375 27.6719 6.9375C28.5885 6.9375 29.4375 7.05729 30.2188 7.29688C31.0104 7.52604 31.724 7.88542 32.3594 8.375C32.9948 8.86458 33.5365 9.49479 33.9844 10.2656C34.4323 11.026 34.776 11.9375 35.0156 13C35.2552 14.0521 35.375 15.2604 35.375 16.625ZM30.8594 21.1562V16.0156C30.8594 15.1927 30.8125 14.474 30.7188 13.8594C30.6354 13.2448 30.5052 12.724 30.3281 12.2969C30.151 11.8594 29.9323 11.5052 29.6719 11.2344C29.4115 10.9635 29.1146 10.7656 28.7812 10.6406C28.4479 10.5156 28.0781 10.4531 27.6719 10.4531C27.1615 10.4531 26.7083 10.5521 26.3125 10.75C25.9271 10.9479 25.599 11.2656 25.3281 11.7031C25.0573 12.1302 24.849 12.7031 24.7031 13.4219C24.5677 14.1302 24.5 14.9948 24.5 16.0156V21.1562C24.5 21.9792 24.5417 22.7031 24.625 23.3281C24.7188 23.9531 24.8542 24.4896 25.0312 24.9375C25.2188 25.375 25.4375 25.7344 25.6875 26.0156C25.9479 26.2865 26.2448 26.4844 26.5781 26.6094C26.9219 26.7344 27.2969 26.7969 27.7031 26.7969C28.2031 26.7969 28.6458 26.6979 29.0312 26.5C29.4271 26.2917 29.7604 25.9688 30.0312 25.5312C30.3125 25.0833 30.5208 24.5 30.6562 23.7812C30.7917 23.0625 30.8594 22.1875 30.8594 21.1562Z" fill="#EB7F00"/>
<rect width="30" height="30" transform="translate(101 100)" fill="#4AD256"/>
<path d="M116 123.75V106.25" stroke="white" stroke-width="3" stroke-linecap="round" stroke-linejoin="round"/>
<path d="M107.25 115L116 106.25L124.75 115" stroke="white" stroke-width="3" stroke-linecap="round" stroke-linejoin="round"/>
</g>
<defs>
<clipPath id="clip0_39_1189">
<rect width="131" height="130" fill="white"/>
</clipPath>
</defs>
</svg>
