<svg width="170" height="173" viewBox="0 0 170 173" fill="none" xmlns="http://www.w3.org/2000/svg">
<g id="Capa_8" clip-path="url(#clip0_39_1276)">
<path id="Vector" d="M22.6666 13.5122C32.0535 13.5122 39.6666 21.1254 39.6666 30.5122C39.6666 39.899 32.0535 47.5122 22.6666 47.5122C13.2798 47.5122 5.66663 39.9019 5.66663 30.5122C5.66663 21.1225 13.277 13.5122 22.6666 13.5122Z" fill="#0E6DD1"/>
<path id="Vector_2" d="M147.333 13.5122C156.72 13.5122 164.333 21.1254 164.333 30.5122C164.333 39.899 156.72 47.5122 147.333 47.5122C137.947 47.5122 130.333 39.9019 130.333 30.5122C130.333 21.1225 137.944 13.5122 147.333 13.5122Z" fill="#0E6DD1"/>
<path id="Vector_3" d="M85 0C96.5543 0 105.924 9.36983 105.924 20.9242C105.924 32.4785 96.5543 41.8483 85 41.8483C73.4456 41.8483 64.0758 32.4813 64.0758 20.9242C64.0758 9.367 73.4428 0 85 0Z" fill="#0E6DD1"/>
<path id="Vector_4" d="M127.5 87.1788H0C0 134.124 38.0545 172.179 85 172.179C131.945 172.179 170 134.124 170 87.1788H127.5ZM163.316 92.8455C162.438 95.2822 160.996 97.6962 158.993 100.062C155.264 104.471 149.583 108.655 142.568 112.163C137.164 114.866 131.081 117.144 124.423 118.975C126.069 110.817 127.101 102.031 127.404 92.8455H163.316ZM121.737 92.8455C121.431 101.924 120.383 110.727 118.615 119.093C118.516 119.564 118.413 120.026 118.309 120.49C117.844 120.592 117.379 120.697 116.912 120.796C106.817 122.93 96.0812 124.012 84.9972 124.012C73.9132 124.012 63.1777 122.93 53.0825 120.796C52.6122 120.697 52.1503 120.595 51.6857 120.49C51.5837 120.026 51.4788 119.561 51.3797 119.093C49.6117 110.729 48.5633 101.924 48.2573 92.8455H121.734H121.737ZM97.8832 161.174C93.6955 164.716 89.3605 166.512 85 166.512C80.6395 166.512 76.3045 164.716 72.1168 161.174C67.7082 157.445 63.5233 151.765 60.0157 144.749C57.3127 139.346 55.0347 133.263 53.2043 126.605C63.0275 128.588 73.7573 129.682 85 129.682C96.2427 129.682 106.973 128.588 116.796 126.605C114.965 133.266 112.687 139.346 109.984 144.749C106.477 151.765 102.292 157.445 97.8832 161.174ZM42.5963 92.8455C42.8995 102.031 43.9308 110.815 45.577 118.975C38.9158 117.144 32.8355 114.866 27.4323 112.163C20.417 108.655 14.7362 104.471 11.0075 100.062C9.00717 97.6962 7.56217 95.2822 6.68383 92.8455H42.5963ZM54.1223 160.279C44.676 156.284 36.1902 150.563 28.9028 143.276C21.6155 135.989 15.895 127.503 11.9 118.057C10.0782 113.747 8.65583 109.318 7.63017 104.796C15.6967 113.639 29.6508 120.856 46.9823 125.196C51.3258 142.534 58.5423 156.488 67.388 164.554C62.8632 163.529 58.4347 162.104 54.1223 160.279ZM141.097 143.276C133.81 150.563 125.324 156.284 115.878 160.279C111.568 162.104 107.137 163.529 102.612 164.554C111.458 156.488 118.674 142.534 123.018 125.196C140.352 120.856 154.303 113.639 162.37 104.796C161.344 109.318 159.922 113.747 158.1 118.057C154.105 127.503 148.384 135.989 141.097 143.276Z" fill="black"/>
<path id="Vector_5" d="M127.5 81.5122H170V75.8455C170 63.3278 159.851 53.1788 147.333 53.1788C134.816 53.1788 124.667 63.3278 124.667 75.8455V81.5122H127.5Z" fill="#0E6DD1"/>
<path id="Vector_6" d="M113.333 81.5122V75.4092C113.333 60.0015 100.648 47.5122 85 47.5122C69.3515 47.5122 56.6666 60.0044 56.6666 75.4092V81.5122H113.333Z" fill="#0E6DD1"/>
<path id="Vector_7" d="M45.3333 81.5122V75.8455C45.3333 63.3278 35.1843 53.1788 22.6667 53.1788C10.149 53.1788 0 63.3278 0 75.8455V81.5122H45.3333Z" fill="#0E6DD1"/>
</g>
<defs>
<clipPath id="clip0_39_1276">
<rect width="170" height="172.179" fill="white"/>
</clipPath>
</defs>
</svg>
