<svg width="131" height="131" viewBox="0 0 131 131" fill="none" xmlns="http://www.w3.org/2000/svg">
<g clip-path="url(#clip0_39_1098)">
<path d="M65.4998 30.1548C78.7499 30.1548 90.7798 32.2943 99.5183 35.7532C108.832 39.4401 114.593 44.7551 114.593 50.8243C114.593 56.8936 108.832 62.2086 99.5183 65.8954C90.7799 69.3544 78.7499 71.4938 65.4998 71.4938C52.2497 71.4938 40.2197 69.3544 31.4813 65.8954C22.1672 62.2086 16.4062 56.8936 16.4062 50.8243C16.4062 44.7551 22.1672 39.4401 31.4812 35.7532C40.2197 32.2943 52.2497 30.1548 65.4998 30.1548ZM98.0152 39.5591C89.7263 36.2781 78.2327 34.2487 65.4998 34.2487C52.7668 34.2487 41.2733 36.2781 32.9843 39.5591C25.2709 42.6123 20.5001 46.6087 20.5001 50.8244C20.5001 55.04 25.2711 59.0364 32.9844 62.0896C41.2733 65.3706 52.7667 67.4 65.4997 67.4C78.2327 67.4 89.7262 65.3706 98.015 62.0896C105.728 59.0364 110.499 55.04 110.499 50.8244C110.499 46.6087 105.729 42.6123 98.0151 39.5591H98.0152Z" fill="#0E6DD1"/>
<path d="M20.501 50.9357C20.5407 49.8096 19.6601 48.8645 18.534 48.8248C17.408 48.785 16.4629 49.6656 16.4231 50.7917C15.5765 74.1492 27.6957 89.3443 43.6999 96.3647C50.5089 99.3516 58.0107 100.845 65.5 100.845C72.9893 100.845 80.491 99.3516 87.3 96.3647C103.304 89.3443 115.423 74.1492 114.577 50.7917C114.537 49.6656 113.592 48.785 112.466 48.8248C111.34 48.8645 110.459 49.8096 110.499 50.9357C111.275 72.3383 100.242 86.2302 85.6689 92.6228C79.3947 95.3751 72.4534 96.7513 65.5 96.7513C58.5466 96.7513 51.6052 95.3751 45.331 92.6228C30.7584 86.2303 19.7252 72.3383 20.501 50.9357Z" fill="#0E6DD1"/>
<path d="M30.4702 45.5427C31.9912 45.5427 33.3803 46.1179 34.3964 47.0477C35.4484 48.0105 36.0991 49.3455 36.0991 50.8244C36.0991 52.3032 35.4484 53.6383 34.3964 54.601C33.3803 55.5308 31.9912 56.106 30.4702 56.106C28.9492 56.106 27.56 55.5309 26.544 54.601C25.492 53.6383 24.8412 52.3032 24.8412 50.8244C24.8412 49.3455 25.492 48.0105 26.544 47.0477C27.56 46.1179 28.9492 45.5427 30.4702 45.5427ZM32.3334 49.3026C31.8679 48.8766 31.21 48.613 30.4702 48.613C29.7304 48.613 29.0725 48.8766 28.6069 49.3026C28.1774 49.6957 27.9116 50.2342 27.9116 50.8244C27.9116 51.4146 28.1773 51.9531 28.6069 52.3462C29.0725 52.7722 29.7304 53.0357 30.4702 53.0357C31.21 53.0357 31.8679 52.7722 32.3334 52.3462C32.763 51.9531 33.0288 51.4146 33.0288 50.8244C33.0288 50.2342 32.763 49.6957 32.3334 49.3026Z" fill="#0E6DD1"/>
<path d="M42.7514 39.8546C44.1772 39.8546 45.4801 40.3945 46.4337 41.2672C47.4232 42.1727 48.0354 43.4288 48.0354 44.8205C48.0354 46.2122 47.4232 47.4682 46.4337 48.3738C45.4801 49.2466 44.1771 49.7864 42.7514 49.7864C41.3256 49.7864 40.0226 49.2465 39.0691 48.3738C38.0796 47.4682 37.4674 46.2122 37.4674 44.8205C37.4674 43.4288 38.0796 42.1727 39.0691 41.2672C40.0226 40.3946 41.3255 39.8546 42.7514 39.8546ZM44.3707 43.5221C43.9677 43.1532 43.396 42.9249 42.7514 42.9249C42.1068 42.9249 41.5351 43.1532 41.1321 43.5221C40.7649 43.858 40.5377 44.3175 40.5377 44.8205C40.5377 45.3235 40.7649 45.783 41.1321 46.119C41.5351 46.4879 42.1069 46.7161 42.7514 46.7161C43.3959 46.7161 43.9677 46.4878 44.3707 46.119C44.7379 45.783 44.9651 45.3235 44.9651 44.8205C44.9651 44.3175 44.7379 43.858 44.3707 43.5221Z" fill="#0E6DD1"/>
<path d="M42.7514 51.8622C44.1771 51.8622 45.48 52.4021 46.4337 53.2748C47.4232 54.1804 48.0354 55.4365 48.0354 56.8281C48.0354 58.2198 47.4232 59.4759 46.4337 60.3815C45.48 61.2541 44.1771 61.7941 42.7514 61.7941C41.3256 61.7941 40.0228 61.2541 39.0691 60.3815C38.0796 59.4759 37.4674 58.2198 37.4674 56.8281C37.4674 55.4365 38.0796 54.1804 39.0691 53.2748C40.0228 52.4021 41.3256 51.8622 42.7514 51.8622ZM44.3707 55.5296C43.9677 55.1607 43.396 54.9325 42.7514 54.9325C42.1069 54.9325 41.5351 55.1607 41.1321 55.5296C40.7649 55.8657 40.5377 56.3252 40.5377 56.8281C40.5377 57.3311 40.7649 57.7907 41.1321 58.1266C41.5351 58.4955 42.1069 58.7238 42.7514 58.7238C43.396 58.7238 43.9677 58.4955 44.3707 58.1266C44.7379 57.7907 44.9651 57.3311 44.9651 56.8281C44.9651 56.3252 44.7379 55.8657 44.3707 55.5296Z" fill="#0E6DD1"/>
<path d="M54.3947 45.5427C55.9158 45.5427 57.3049 46.1179 58.321 47.0477C59.373 48.0105 60.0237 49.3455 60.0237 50.8244C60.0237 52.3032 59.373 53.6383 58.321 54.601C57.3049 55.5308 55.9158 56.106 54.3947 56.106C52.8737 56.106 51.4846 55.5309 50.4685 54.601C49.4165 53.6383 48.7658 52.3032 48.7658 50.8244C48.7658 49.3455 49.4165 48.0105 50.4685 47.0477C51.4846 46.1179 52.8737 45.5427 54.3947 45.5427ZM56.258 49.3026C55.7925 48.8766 55.1345 48.613 54.3947 48.613C53.655 48.613 52.997 48.8766 52.5315 49.3026C52.1019 49.6957 51.8361 50.2342 51.8361 50.8244C51.8361 51.4146 52.1019 51.9531 52.5315 52.3462C52.997 52.7722 53.655 53.0357 54.3947 53.0357C55.1345 53.0357 55.7925 52.7722 56.258 52.3462C56.6876 51.9531 56.9534 51.4146 56.9534 50.8244C56.9534 50.2342 56.6876 49.6957 56.258 49.3026Z" fill="#0E6DD1"/>
<path d="M65.6119 39.8546C67.0378 39.8546 68.3407 40.3946 69.2942 41.2672C70.2837 42.1727 70.8959 43.4288 70.8959 44.8205C70.8959 46.2122 70.2837 47.4682 69.2942 48.3738C68.3407 49.2465 67.0377 49.7864 65.6119 49.7864C64.1862 49.7864 62.8832 49.2465 61.9297 48.3738C60.9401 47.4682 60.3279 46.2122 60.3279 44.8205C60.3279 43.4288 60.9401 42.1727 61.9297 41.2672C62.8832 40.3946 64.1861 39.8546 65.6119 39.8546ZM67.2312 43.5221C66.8282 43.1532 66.2565 42.9249 65.6119 42.9249C64.9673 42.9249 64.3957 43.1532 63.9926 43.5221C63.6254 43.858 63.3983 44.3175 63.3983 44.8205C63.3983 45.3235 63.6254 45.783 63.9926 46.119C64.3957 46.4879 64.9674 46.7161 65.6119 46.7161C66.2564 46.7161 66.8282 46.4879 67.2312 46.119C67.5984 45.783 67.8256 45.3235 67.8256 44.8205C67.8256 44.3175 67.5984 43.858 67.2312 43.5221Z" fill="#0E6DD1"/>
<path d="M65.6119 51.8622C67.0377 51.8622 68.3405 52.4021 69.2942 53.2748C70.2837 54.1804 70.8959 55.4365 70.8959 56.8281C70.8959 58.2198 70.2837 59.4759 69.2942 60.3815C68.3405 61.2541 67.0377 61.7941 65.6119 61.7941C64.1862 61.7941 62.8833 61.2541 61.9297 60.3815C60.9401 59.4759 60.3279 58.2198 60.3279 56.8281C60.3279 55.4365 60.9401 54.1804 61.9297 53.2748C62.8833 52.4021 64.1862 51.8622 65.6119 51.8622ZM67.2312 55.5296C66.8282 55.1607 66.2564 54.9325 65.6119 54.9325C64.9674 54.9325 64.3957 55.1607 63.9926 55.5296C63.6254 55.8657 63.3983 56.3252 63.3983 56.8281C63.3983 57.3311 63.6254 57.7907 63.9926 58.1266C64.3957 58.4955 64.9674 58.7238 65.6119 58.7238C66.2564 58.7238 66.8282 58.4955 67.2312 58.1266C67.5984 57.7907 67.8256 57.3311 67.8256 56.8281C67.8256 56.3252 67.5984 55.8657 67.2312 55.5296Z" fill="#0E6DD1"/>
<path d="M77.5484 45.5427C79.0694 45.5427 80.4585 46.1179 81.4746 47.0477C82.5266 48.0105 83.1773 49.3455 83.1773 50.8244C83.1773 52.3032 82.5266 53.6383 81.4746 54.601C80.4585 55.5308 79.0694 56.106 77.5484 56.106C76.0273 56.106 74.6382 55.5309 73.6222 54.601C72.5701 53.6383 71.9194 52.3032 71.9194 50.8244C71.9194 49.3455 72.5701 48.0105 73.6222 47.0477C74.6382 46.1179 76.0273 45.5427 77.5484 45.5427ZM79.4116 49.3026C78.9461 48.8766 78.2881 48.613 77.5484 48.613C76.8086 48.613 76.1506 48.8766 75.6851 49.3026C75.2555 49.6957 74.9898 50.2342 74.9898 50.8244C74.9898 51.4146 75.2555 51.9531 75.6851 52.3462C76.1506 52.7722 76.8086 53.0357 77.5484 53.0357C78.2882 53.0357 78.9461 52.7722 79.4116 52.3462C79.8412 51.9531 80.107 51.4146 80.107 50.8244C80.107 50.2342 79.8412 49.6957 79.4116 49.3026Z" fill="#0E6DD1"/>
<path d="M89.5508 39.8546C90.9766 39.8546 92.2795 40.3946 93.233 41.2672C94.2226 42.1727 94.8347 43.4288 94.8347 44.8205C94.8347 46.2122 94.2226 47.4682 93.233 48.3738C92.2795 49.2465 90.9765 49.7864 89.5508 49.7864C88.125 49.7864 86.8221 49.2466 85.8685 48.3738C84.879 47.4682 84.2668 46.2122 84.2668 44.8205C84.2668 43.4288 84.879 42.1727 85.8685 41.2672C86.8221 40.3945 88.1249 39.8546 89.5508 39.8546ZM91.1701 43.5221C90.767 43.1532 90.1953 42.9249 89.5508 42.9249C88.9062 42.9249 88.3344 43.1532 87.9314 43.5221C87.5643 43.858 87.3371 44.3175 87.3371 44.8205C87.3371 45.3235 87.5643 45.783 87.9314 46.119C88.3344 46.4878 88.9063 46.7161 89.5508 46.7161C90.1953 46.7161 90.767 46.4879 91.1701 46.119C91.5373 45.783 91.7644 45.3235 91.7644 44.8205C91.7644 44.3175 91.5373 43.858 91.1701 43.5221Z" fill="#0E6DD1"/>
<path d="M89.5508 51.8622C90.9765 51.8622 92.2794 52.4021 93.233 53.2748C94.2226 54.1804 94.8347 55.4365 94.8347 56.8281C94.8347 58.2198 94.2226 59.4759 93.233 60.3815C92.2794 61.2541 90.9765 61.7941 89.5508 61.7941C88.125 61.7941 86.8222 61.2541 85.8685 60.3815C84.879 59.4759 84.2668 58.2198 84.2668 56.8281C84.2668 55.4365 84.879 54.1804 85.8685 53.2748C86.8222 52.4021 88.125 51.8622 89.5508 51.8622ZM91.1701 55.5296C90.767 55.1607 90.1953 54.9325 89.5508 54.9325C88.9062 54.9325 88.3345 55.1607 87.9314 55.5296C87.5643 55.8657 87.3371 56.3252 87.3371 56.8281C87.3371 57.3311 87.5643 57.7907 87.9314 58.1266C88.3345 58.4955 88.9062 58.7238 89.5508 58.7238C90.1953 58.7238 90.767 58.4955 91.1701 58.1266C91.5373 57.7907 91.7644 57.3311 91.7644 56.8281C91.7644 56.3252 91.5373 55.8657 91.1701 55.5296Z" fill="#0E6DD1"/>
<path d="M100.53 45.5427C102.051 45.5427 103.44 46.1179 104.456 47.0477C105.508 48.0105 106.159 49.3455 106.159 50.8244C106.159 52.3032 105.508 53.6383 104.456 54.601C103.44 55.5308 102.051 56.106 100.53 56.106C99.0087 56.106 97.6195 55.5309 96.6035 54.601C95.5515 53.6383 94.9008 52.3032 94.9008 50.8244C94.9008 49.3455 95.5515 48.0105 96.6035 47.0477C97.6195 46.1179 99.0087 45.5427 100.53 45.5427ZM102.393 49.3026C101.927 48.8766 101.269 48.613 100.53 48.613C99.7899 48.613 99.132 48.8766 98.6664 49.3026C98.2369 49.6957 97.9711 50.2342 97.9711 50.8244C97.9711 51.4146 98.2369 51.9531 98.6664 52.3462C99.132 52.7722 99.7899 53.0357 100.53 53.0357C101.269 53.0357 101.927 52.7722 102.393 52.3462C102.823 51.9531 103.088 51.4146 103.088 50.8244C103.088 50.2342 102.823 49.6957 102.393 49.3026Z" fill="#0E6DD1"/>
<path d="M77.5484 36.136C78.7869 36.136 79.9201 36.6064 80.7509 37.3667C81.6176 38.1599 82.1539 39.2608 82.1539 40.481C82.1539 41.7012 81.6176 42.8021 80.7509 43.5953C79.9201 44.3556 78.7869 44.826 77.5484 44.826C76.3099 44.826 75.1767 44.3556 74.3458 43.5953C73.4791 42.8021 72.9429 41.7012 72.9429 40.481C72.9429 39.2607 73.4791 38.1598 74.3458 37.3667C75.1767 36.6064 76.3099 36.136 77.5484 36.136ZM78.688 39.6215C78.4078 39.365 78.0056 39.2063 77.5484 39.2063C77.0912 39.2063 76.6891 39.3651 76.4088 39.6215C76.1644 39.8451 76.0132 40.1494 76.0132 40.481C76.0132 40.8126 76.1644 41.1169 76.4088 41.3405C76.689 41.5969 77.0912 41.7557 77.5484 41.7557C78.0056 41.7557 78.4078 41.597 78.688 41.3405C78.9323 41.1169 79.0836 40.8126 79.0836 40.481C79.0836 40.1495 78.9323 39.8451 78.688 39.6215Z" fill="#0E6DD1"/>
<path d="M77.5484 56.8226C78.7869 56.8226 79.9201 57.2931 80.7509 58.0533C81.6176 58.8466 82.1539 59.9474 82.1539 61.1676C82.1539 62.3878 81.6176 63.4887 80.7509 64.282C79.9201 65.0422 78.7869 65.5127 77.5484 65.5127C76.3099 65.5127 75.1767 65.0422 74.3458 64.282C73.4791 63.4887 72.9429 62.3878 72.9429 61.1676C72.9429 59.9473 73.4791 58.8464 74.3458 58.0533C75.1767 57.2931 76.3099 56.8226 77.5484 56.8226ZM78.688 60.3082C78.4078 60.0517 78.0056 59.8929 77.5484 59.8929C77.0912 59.8929 76.6891 60.0518 76.4088 60.3082C76.1644 60.5318 76.0132 60.836 76.0132 61.1676C76.0132 61.4993 76.1644 61.8035 76.4088 62.0271C76.689 62.2835 77.0912 62.4423 77.5484 62.4423C78.0056 62.4423 78.4078 62.2836 78.688 62.0271C78.9323 61.8035 79.0836 61.4993 79.0836 61.1676C79.0836 60.8361 78.9323 60.5318 78.688 60.3082Z" fill="#0E6DD1"/>
<path d="M54.3947 36.136C55.6331 36.136 56.7664 36.6064 57.5973 37.3667C58.464 38.1599 59.0002 39.2608 59.0002 40.481C59.0002 41.7012 58.464 42.8021 57.5973 43.5953C56.7664 44.3556 55.6331 44.826 54.3947 44.826C53.1563 44.826 52.023 44.3556 51.1921 43.5953C50.3254 42.8021 49.7892 41.7012 49.7892 40.481C49.7892 39.2607 50.3254 38.1598 51.1921 37.3667C52.023 36.6064 53.1563 36.136 54.3947 36.136ZM55.5343 39.6215C55.2541 39.365 54.852 39.2063 54.3947 39.2063C53.9375 39.2063 53.5354 39.365 53.2551 39.6215C53.0108 39.8451 52.8595 40.1494 52.8595 40.481C52.8595 40.8126 53.0108 41.1169 53.2551 41.3405C53.5354 41.597 53.9375 41.7557 54.3947 41.7557C54.852 41.7557 55.2541 41.597 55.5343 41.3405C55.7786 41.1169 55.9299 40.8126 55.9299 40.481C55.9299 40.1495 55.7786 39.8451 55.5343 39.6215Z" fill="#0E6DD1"/>
<path d="M54.3947 56.8226C55.6331 56.8226 56.7664 57.293 57.5973 58.0533C58.464 58.8466 59.0002 59.9474 59.0002 61.1676C59.0002 62.3878 58.464 63.4887 57.5973 64.282C56.7664 65.0423 55.6331 65.5127 54.3947 65.5127C53.1563 65.5127 52.023 65.0422 51.1921 64.282C50.3254 63.4887 49.7892 62.3878 49.7892 61.1676C49.7892 59.9473 50.3254 58.8464 51.1921 58.0533C52.023 57.2931 53.1563 56.8226 54.3947 56.8226ZM55.5343 60.3082C55.2541 60.0517 54.852 59.8929 54.3947 59.8929C53.9375 59.8929 53.5354 60.0517 53.2551 60.3082C53.0108 60.5318 52.8595 60.836 52.8595 61.1676C52.8595 61.4993 53.0108 61.8035 53.2551 62.0271C53.5354 62.2836 53.9375 62.4423 54.3947 62.4423C54.852 62.4423 55.2541 62.2836 55.5343 62.0271C55.7786 61.8035 55.9299 61.4993 55.9299 61.1676C55.9299 60.8361 55.7786 60.5318 55.5343 60.3082Z" fill="#0E6DD1"/>
<path d="M17.4375 26.4844V30H1.875V27L9.23438 19.1094C9.97396 18.2865 10.5573 17.5625 10.9844 16.9375C11.4115 16.3021 11.7188 15.7344 11.9062 15.2344C12.1042 14.724 12.2031 14.2396 12.2031 13.7812C12.2031 13.0938 12.0885 12.5052 11.8594 12.0156C11.6302 11.5156 11.2917 11.1302 10.8438 10.8594C10.4062 10.5885 9.86458 10.4531 9.21875 10.4531C8.53125 10.4531 7.9375 10.6198 7.4375 10.9531C6.94792 11.2865 6.57292 11.75 6.3125 12.3438C6.0625 12.9375 5.9375 13.6094 5.9375 14.3594H1.42188C1.42188 13.0052 1.74479 11.7656 2.39062 10.6406C3.03646 9.50521 3.94792 8.60417 5.125 7.9375C6.30208 7.26042 7.69792 6.92188 9.3125 6.92188C10.9062 6.92188 12.25 7.18229 13.3438 7.70312C14.4479 8.21354 15.2812 8.95312 15.8438 9.92188C16.4167 10.8802 16.7031 12.026 16.7031 13.3594C16.7031 14.1094 16.5833 14.8438 16.3438 15.5625C16.1042 16.2708 15.7604 16.9792 15.3125 17.6875C14.875 18.3854 14.3438 19.0938 13.7188 19.8125C13.0938 20.5312 12.401 21.276 11.6406 22.0469L7.6875 26.4844H17.4375Z" fill="#1D36AE"/>
<rect width="30" height="30" transform="translate(101 101)" fill="#4AD256"/>
<path d="M116 124.75V107.25" stroke="white" stroke-width="3" stroke-linecap="round" stroke-linejoin="round"/>
<path d="M107.25 116L116 107.25L124.75 116" stroke="white" stroke-width="3" stroke-linecap="round" stroke-linejoin="round"/>
</g>
<defs>
<clipPath id="clip0_39_1098">
<rect width="131" height="131" fill="white"/>
</clipPath>
</defs>
</svg>
