<svg width="130" height="130" viewBox="0 0 130 130" fill="none" xmlns="http://www.w3.org/2000/svg">
<g clip-path="url(#clip0_39_1209)">
<path d="M50.2676 84.2296C51.3806 84.0937 52.1729 83.0812 52.037 81.9682C51.9012 80.8551 50.8887 80.0629 49.7756 80.1988C35.4035 81.9953 27.0203 78.3831 23.0957 72.803C19.3853 67.5275 19.5885 60.4125 22.458 54.5064C25.3274 48.6008 30.8551 43.9495 37.7929 43.6035C45.9743 43.1955 56.2051 48.6881 66.6959 64.8408C76.3234 79.6642 86.1261 84.7982 94.2791 84.3843C102.176 83.9835 108.419 78.442 111.546 71.3685C114.644 64.3617 114.69 55.794 110.236 49.2414C105.545 42.3413 95.9678 37.7465 79.8858 39.7568C78.7728 39.8926 77.9805 40.9051 78.1164 42.0182C78.2522 43.1312 79.2647 43.9234 80.3778 43.7876C94.6817 41.9996 102.989 45.7755 106.887 51.5107C110.502 56.8282 110.414 63.8951 107.833 69.734C105.281 75.5061 100.301 80.0223 94.0886 80.3376C87.2447 80.685 78.7894 76.0266 70.0918 62.6349C58.6668 45.0436 47.0784 39.0842 37.6025 39.5567C29.0408 39.9838 22.2753 45.6086 18.808 52.7448C15.3412 59.8805 15.164 68.574 19.779 75.1358C24.4988 81.8465 34.1461 86.2448 50.2676 84.2296Z" fill="#FFFF"/>
<path d="M48.7118 74.3526C47.9581 73.5288 46.6792 73.4719 45.8554 74.2256C45.0316 74.9793 44.9747 76.2583 45.7284 77.0821L50.5649 82.3618L45.287 87.1967C44.4632 87.9504 44.4063 89.2293 45.16 90.0531C45.9136 90.8769 47.1926 90.9338 48.0164 90.1801L54.6426 84.1103C54.6944 84.0712 54.7447 84.0295 54.7935 83.9848C55.6207 83.2271 55.677 81.9422 54.9192 81.115L54.9123 81.1213L48.7118 74.3526Z" fill="#FFFF"/>
<path d="M12.6562 7.20312V30H8.15625V12.3906L2.75 14.1094V10.5625L12.1719 7.20312H12.6562ZM35.625 26.4844V30H20.0625V27L27.4219 19.1094C28.1615 18.2865 28.7448 17.5625 29.1719 16.9375C29.599 16.3021 29.9062 15.7344 30.0938 15.2344C30.2917 14.724 30.3906 14.2396 30.3906 13.7812C30.3906 13.0938 30.276 12.5052 30.0469 12.0156C29.8177 11.5156 29.4792 11.1302 29.0312 10.8594C28.5938 10.5885 28.0521 10.4531 27.4062 10.4531C26.7188 10.4531 26.125 10.6198 25.625 10.9531C25.1354 11.2865 24.7604 11.75 24.5 12.3438C24.25 12.9375 24.125 13.6094 24.125 14.3594H19.6094C19.6094 13.0052 19.9323 11.7656 20.5781 10.6406C21.224 9.50521 22.1354 8.60417 23.3125 7.9375C24.4896 7.26042 25.8854 6.92188 27.5 6.92188C29.0938 6.92188 30.4375 7.18229 31.5312 7.70312C32.6354 8.21354 33.4688 8.95312 34.0312 9.92188C34.6042 10.8802 34.8906 12.026 34.8906 13.3594C34.8906 14.1094 34.7708 14.8438 34.5312 15.5625C34.2917 16.2708 33.9479 16.9792 33.5 17.6875C33.0625 18.3854 32.5312 19.0938 31.9062 19.8125C31.2812 20.5312 30.5885 21.276 29.8281 22.0469L25.875 26.4844H35.625Z" fill="#EB7F00"/>
<rect width="30" height="30" transform="translate(100 100)" fill="#B52736"/>
<path d="M115 106.25V123.75" stroke="white" stroke-width="3" stroke-linecap="round" stroke-linejoin="round"/>
<path d="M123.75 115L115 123.75L106.25 115" stroke="white" stroke-width="3" stroke-linecap="round" stroke-linejoin="round"/>
</g>
<defs>
<clipPath id="clip0_39_1209">
<rect width="130" height="130" fill="white"/>
</clipPath>
</defs>
</svg>
