<svg width="131" height="131" viewBox="0 0 131 131" fill="none" xmlns="http://www.w3.org/2000/svg">
<g clip-path="url(#clip0_39_1143)">
<path d="M65.5 28.6561C75.6739 28.6561 84.885 32.7802 91.5524 39.4476C98.2198 46.115 102.344 55.3261 102.344 65.5C102.344 75.6739 98.2198 84.885 91.5524 91.5524C84.885 98.2198 75.6739 102.344 65.5 102.344C55.3261 102.344 46.115 98.2198 39.4476 91.5524C32.7802 84.885 28.6561 75.6739 28.6561 65.5C28.6561 55.3261 32.7802 46.115 39.4476 39.4476C46.115 32.7802 55.3261 28.6561 65.5 28.6561ZM88.658 42.342C82.7315 36.4156 74.5439 32.7499 65.5 32.7499C56.4561 32.7499 48.2685 36.4156 42.342 42.342C36.4157 48.2684 32.75 56.4561 32.75 65.4999C32.75 74.5439 36.4156 82.7315 42.342 88.6579C48.2685 94.5843 56.4561 98.2499 65.5 98.2499C74.5439 98.2499 82.7316 94.5843 88.658 88.6579C94.5843 82.7315 98.25 74.5438 98.25 65.4999C98.25 56.456 94.5844 48.2684 88.658 42.342Z" fill="#0E6DD1"/>
<path d="M52.7291 54.1139C53.5283 53.3146 53.5283 52.0187 52.7291 51.2194C51.9298 50.4202 50.6339 50.4202 49.8346 51.2194C47.7216 53.3325 46.121 55.7813 45.0341 58.4052C43.9083 61.123 43.3453 64.0086 43.3453 66.8847C43.3453 69.7608 43.9083 72.6463 45.0341 75.3643C46.121 77.988 47.7216 80.437 49.8346 82.55C51.9476 84.6629 54.3964 86.2637 57.0203 87.3505C59.7381 88.4763 62.6239 89.0393 65.4999 89.0393C68.376 89.0393 71.2618 88.4763 73.9796 87.3505C76.6035 86.2637 79.0523 84.6629 81.1652 82.55C83.2783 80.4369 84.8789 77.988 85.9658 75.3643C87.0916 72.6463 87.6545 69.7608 87.6545 66.8847C87.6545 64.0087 87.0916 61.123 85.9658 58.4052C84.8789 55.7813 83.2783 53.3324 81.1652 51.2194C80.366 50.4202 79.0701 50.4202 78.2708 51.2194C77.4716 52.0187 77.4716 53.3146 78.2708 54.1139C80.0095 55.8525 81.3163 57.8427 82.1918 59.9564C83.1043 62.1594 83.5607 64.5175 83.5607 66.8847C83.5607 69.252 83.1043 71.61 82.1918 73.8131C81.3162 75.9268 80.0095 77.9168 78.2708 79.6555C76.5321 81.3942 74.5421 82.701 72.4284 83.5765C70.2253 84.4891 67.8671 84.9454 65.4999 84.9454C63.1327 84.9454 60.7745 84.4891 58.5714 83.5765C56.4577 82.701 54.4677 81.3942 52.729 79.6555C50.9903 77.9168 49.6836 75.9268 48.808 73.8131C47.8955 71.61 47.4391 69.2519 47.4391 66.8847C47.4391 64.5175 47.8955 62.1593 48.808 59.9564C49.6835 57.8427 50.9904 55.8525 52.7291 54.1139Z" fill="#0E6DD1"/>
<path d="M63.453 63.2724C63.453 64.4029 64.3695 65.3194 65.4999 65.3194C66.6304 65.3194 67.5469 64.4029 67.5469 63.2724V44.0076C67.5469 42.8772 66.6304 41.9607 65.4999 41.9607C64.3695 41.9607 63.453 42.8772 63.453 44.0076V63.2724Z" fill="#0E6DD1"/>
<path d="M90.8058 25.7526C91.371 24.7767 91.0381 23.5273 90.0622 22.9621C89.0864 22.3969 87.8369 22.7298 87.2718 23.7056L84.2015 29.0235C83.6363 29.9994 83.9691 31.2488 84.945 31.814C85.9209 32.3792 87.1703 32.0463 87.7355 31.0705L90.8058 25.7526Z" fill="#0E6DD1"/>
<path d="M107.295 43.7279C108.27 43.1627 108.603 41.9133 108.038 40.9374C107.473 39.9616 106.224 39.6287 105.248 40.1939L99.9298 43.2642C98.9539 43.8294 98.621 45.0788 99.1862 46.0547C99.7514 47.0305 101.001 47.3634 101.977 46.7982L107.295 43.7279Z" fill="#0E6DD1"/>
<path d="M112.578 67.5469C113.709 67.5469 114.625 66.6304 114.625 65.4999C114.625 64.3695 113.709 63.453 112.578 63.453H106.438C105.307 63.453 104.391 64.3695 104.391 65.4999C104.391 66.6304 105.307 67.5469 106.438 67.5469H112.578Z" fill="#0E6DD1"/>
<path d="M105.247 90.8058C106.223 91.371 107.472 91.0381 108.038 90.0622C108.603 89.0864 108.27 87.8369 107.294 87.2718L101.976 84.2015C101 83.6363 99.7509 83.9691 99.1857 84.945C98.6205 85.9209 98.9534 87.1703 99.9293 87.7355L105.247 90.8058Z" fill="#0E6DD1"/>
<path d="M87.2724 107.295C87.8376 108.27 89.087 108.603 90.0629 108.038C91.0387 107.473 91.3716 106.224 90.8064 105.248L87.7361 99.9298C87.1709 98.9539 85.9215 98.621 84.9456 99.1862C83.9697 99.7514 83.6369 101.001 84.2021 101.977L87.2724 107.295Z" fill="#0E6DD1"/>
<path d="M63.453 112.578C63.453 113.709 64.3695 114.625 65.4999 114.625C66.6304 114.625 67.5469 113.709 67.5469 112.578V106.438C67.5469 105.307 66.6304 104.391 65.4999 104.391C64.3695 104.391 63.453 105.307 63.453 106.438V112.578Z" fill="#0E6DD1"/>
<path d="M40.1939 105.247C39.6287 106.223 39.9616 107.472 40.9374 108.038C41.9133 108.603 43.1627 108.27 43.7279 107.294L46.7982 101.976C47.3634 101 47.0305 99.7509 46.0547 99.1857C45.0788 98.6205 43.8294 98.9534 43.2642 99.9293L40.1939 105.247Z" fill="#0E6DD1"/>
<path d="M23.7056 87.2724C22.7298 87.8376 22.3969 89.087 22.9621 90.0629C23.5273 91.0387 24.7767 91.3716 25.7526 90.8064L31.0705 87.7361C32.0463 87.1709 32.3792 85.9215 31.814 84.9456C31.2488 83.9697 29.9994 83.6369 29.0235 84.2021L23.7056 87.2724Z" fill="#0E6DD1"/>
<path d="M18.4218 63.453C17.2914 63.453 16.3749 64.3695 16.3749 65.4999C16.3749 66.6304 17.2914 67.5469 18.4218 67.5469H24.5624C25.6929 67.5469 26.6094 66.6304 26.6094 65.4999C26.6094 64.3695 25.6929 63.453 24.5624 63.453H18.4218Z" fill="#0E6DD1"/>
<path d="M25.7526 40.1939C24.7767 39.6287 23.5273 39.9616 22.9621 40.9374C22.3969 41.9133 22.7298 43.1627 23.7056 43.7279L29.0235 46.7982C29.9994 47.3634 31.2488 47.0305 31.814 46.0547C32.3792 45.0788 32.0463 43.8294 31.0705 43.2642L25.7526 40.1939Z" fill="#0E6DD1"/>
<path d="M43.7279 23.7056C43.1627 22.7298 41.9133 22.3969 40.9374 22.9621C39.9616 23.5273 39.6287 24.7767 40.1939 25.7526L43.2642 31.0705C43.8294 32.0463 45.0788 32.3792 46.0547 31.814C47.0305 31.2488 47.3634 29.9994 46.7982 29.0235L43.7279 23.7056Z" fill="#0E6DD1"/>
<path d="M67.5469 18.4218C67.5469 17.2914 66.6304 16.3749 65.4999 16.3749C64.3695 16.3749 63.453 17.2914 63.453 18.4218V24.5624C63.453 25.6929 64.3695 26.6094 65.4999 26.6094C66.6304 26.6094 67.5469 25.6929 67.5469 24.5624V18.4218Z" fill="#0E6DD1"/>
<path d="M17.3281 7.25V9.67188L8.53125 30H3.78125L12.5781 10.7656H1.25V7.25H17.3281Z" fill="#1D36AE"/>
<rect width="30" height="30" transform="translate(101 101)" fill="#4AD256"/>
<path d="M116 124.75V107.25" stroke="white" stroke-width="3" stroke-linecap="round" stroke-linejoin="round"/>
<path d="M107.25 116L116 107.25L124.75 116" stroke="white" stroke-width="3" stroke-linecap="round" stroke-linejoin="round"/>
</g>
<defs>
<clipPath id="clip0_39_1143">
<rect width="131" height="131" fill="white"/>
</clipPath>
</defs>
</svg>
