<svg width="130" height="130" viewBox="0 0 130 130" fill="none" xmlns="http://www.w3.org/2000/svg">
<g clip-path="url(#clip0_39_1118)">
<path d="M97.5077 52.1971C98.001 51.5566 98.5313 51.0015 99.1216 50.5292C100.61 49.3386 102.344 48.7433 104.606 48.7433C107.13 48.7433 109.416 49.7674 111.071 51.4224C112.726 53.0774 113.75 55.3635 113.75 57.8873C113.75 61.9415 111.807 65.8841 108.892 69.7704C106.106 73.4855 102.518 77.0737 98.9298 80.6617L98.93 80.6618C98.1368 81.4551 96.8505 81.4551 96.0573 80.6618L96.0461 80.6503C88.6397 73.2439 81.2369 65.837 81.2369 57.8873C81.2369 55.3636 82.2611 53.0775 83.9161 51.4225C85.5711 49.7674 87.8572 48.7433 90.381 48.7433C93.7096 48.7433 95.7886 49.8947 97.5077 52.1971ZM101.645 53.6872C100.826 54.342 100.119 55.4062 99.3835 56.8534C99.2065 57.3037 98.8689 57.6926 98.4021 57.926C97.3987 58.4277 96.1786 58.021 95.6768 57.0176L97.4936 56.1092L95.6846 57.0137C94.282 54.2086 92.9407 52.8059 90.3809 52.8059C88.9786 52.8059 87.7081 53.3751 86.7884 54.2948C85.8687 55.2145 85.2995 56.4849 85.2995 57.8873C85.2995 63.7178 91.1895 70.0179 97.4937 76.351C100.523 73.3081 103.453 70.2778 105.655 67.3424C108.075 64.1162 109.688 60.9458 109.688 57.8873C109.688 56.4849 109.119 55.2145 108.199 54.2948C107.279 53.3751 106.009 52.8059 104.606 52.8059C103.313 52.8059 102.379 53.0997 101.645 53.6872Z" fill="#0E6DD1"/>
<path d="M85.8742 68.0252C86.9961 68.0252 87.9055 67.1158 87.9055 65.9939C87.9055 64.8721 86.9961 63.9626 85.8742 63.9626H72.3519L68.8521 60.5658L67.4398 62.0179L68.8545 60.5603C68.1211 59.8485 66.9884 59.8012 66.202 60.4072L62.6421 62.7106L57.1259 37.7252L57.1336 37.7235C56.8918 36.6281 55.8076 35.9362 54.7122 36.1779C53.7813 36.3834 53.142 37.1973 53.1192 38.1093L49.9171 80.0662L44.8123 61.4862L42.8604 62.0178L44.819 61.4797C44.5219 60.398 43.4039 59.762 42.3222 60.0592C42.0595 60.1314 41.8232 60.252 41.6201 60.4087L36.9698 63.4178L34.0313 60.5658L32.619 62.0178L34.0337 60.5602C33.6391 60.1772 33.1287 59.9867 32.619 59.9868V59.9865H18.2811C17.1592 59.9865 16.2498 60.896 16.2498 62.0178C16.2498 63.1396 17.1592 64.0491 18.2811 64.0491H31.8035L35.1943 67.3403C35.8487 68.0814 36.964 68.2526 37.8191 67.6993L36.7156 65.9939L37.8185 67.6919L41.6416 65.218L49.0531 92.1934C49.2108 93.0847 49.9547 93.7917 50.8989 93.8637C52.0174 93.949 52.9936 93.1114 53.0789 91.9929L51.0535 91.8383L53.0769 91.9891L56.13 51.985L59.2794 66.2503C59.3164 66.5434 59.4183 66.8328 59.5895 67.0974C60.1989 68.0392 61.4566 68.3087 62.3984 67.6993L61.2949 65.9939L62.3978 67.6919L67.1855 64.5939L70.0181 67.3432C70.3902 67.7615 70.9324 68.0252 71.5363 68.0252L85.8742 68.0252Z" fill="#0E6DD1"/>
<path d="M6.48438 16.6719H8.89062C9.66146 16.6719 10.2969 16.5417 10.7969 16.2812C11.2969 16.0104 11.6667 15.6354 11.9062 15.1562C12.1562 14.6667 12.2812 14.099 12.2812 13.4531C12.2812 12.8698 12.1667 12.3542 11.9375 11.9062C11.7188 11.4479 11.3802 11.0938 10.9219 10.8438C10.4635 10.5833 9.88542 10.4531 9.1875 10.4531C8.63542 10.4531 8.125 10.5625 7.65625 10.7812C7.1875 11 6.8125 11.3073 6.53125 11.7031C6.25 12.099 6.10938 12.5781 6.10938 13.1406H1.59375C1.59375 11.8906 1.92708 10.8021 2.59375 9.875C3.27083 8.94792 4.17708 8.22396 5.3125 7.70312C6.44792 7.18229 7.69792 6.92188 9.0625 6.92188C10.6042 6.92188 11.9531 7.17188 13.1094 7.67188C14.2656 8.16146 15.1667 8.88542 15.8125 9.84375C16.4583 10.8021 16.7812 11.9896 16.7812 13.4062C16.7812 14.125 16.6146 14.8229 16.2812 15.5C15.9479 16.1667 15.4688 16.7708 14.8438 17.3125C14.2292 17.8438 13.4792 18.2708 12.5938 18.5938C11.7083 18.9062 10.7135 19.0625 9.60938 19.0625H6.48438V16.6719ZM6.48438 20.0938V17.7656H9.60938C10.849 17.7656 11.9375 17.9062 12.875 18.1875C13.8125 18.4688 14.599 18.875 15.2344 19.4062C15.8698 19.9271 16.349 20.5469 16.6719 21.2656C16.9948 21.974 17.1562 22.7604 17.1562 23.625C17.1562 24.6875 16.9531 25.6354 16.5469 26.4688C16.1406 27.2917 15.5677 27.9896 14.8281 28.5625C14.099 29.1354 13.2448 29.5729 12.2656 29.875C11.2865 30.1667 10.2188 30.3125 9.0625 30.3125C8.10417 30.3125 7.16146 30.1823 6.23438 29.9219C5.31771 29.651 4.48438 29.25 3.73438 28.7188C2.99479 28.1771 2.40104 27.5 1.95312 26.6875C1.51562 25.8646 1.29688 24.8906 1.29688 23.7656H5.8125C5.8125 24.349 5.95833 24.8698 6.25 25.3281C6.54167 25.7865 6.94271 26.1458 7.45312 26.4062C7.97396 26.6667 8.55208 26.7969 9.1875 26.7969C9.90625 26.7969 10.5208 26.6667 11.0312 26.4062C11.5521 26.1354 11.9479 25.7604 12.2188 25.2812C12.5 24.7917 12.6406 24.224 12.6406 23.5781C12.6406 22.7448 12.4896 22.0781 12.1875 21.5781C11.8854 21.0677 11.4531 20.6927 10.8906 20.4531C10.3281 20.2135 9.66146 20.0938 8.89062 20.0938H6.48438Z" fill="#1D36AE"/>
<rect width="30" height="30" transform="translate(100 100)" fill="#4AD256"/>
<path d="M115 123.75V106.25" stroke="white" stroke-width="3" stroke-linecap="round" stroke-linejoin="round"/>
<path d="M106.25 115L115 106.25L123.75 115" stroke="white" stroke-width="3" stroke-linecap="round" stroke-linejoin="round"/>
</g>
<defs>
<clipPath id="clip0_39_1118">
<rect width="130" height="130" fill="white"/>
</clipPath>
</defs>
</svg>
