<svg width="170" height="170" viewBox="0 0 170 170" fill="none" xmlns="http://www.w3.org/2000/svg">
<g id="Capa_8" clip-path="url(#clip0_71_986)">
<path id="Vector" d="M137.218 62.9424C134.368 56.1934 130.288 50.1358 125.092 44.9309C119.895 39.7289 113.843 35.6433 107.103 32.7873C100.121 29.8293 92.7066 28.3304 85.0651 28.3304C77.4236 28.3304 70.0116 29.8293 63.0275 32.7873C56.287 35.6433 50.235 39.7289 45.0386 44.9309C39.8423 50.1329 35.7623 56.1934 32.912 62.9424C29.9596 69.9323 28.4636 77.3528 28.4636 84.9999C28.4636 92.6471 29.9596 100.068 32.912 107.057C35.7623 113.806 39.8423 119.864 45.0386 125.069C50.235 130.271 56.287 134.357 63.0275 137.213C70.0088 140.171 77.4236 141.669 85.0651 141.669C92.7066 141.669 100.119 140.171 107.103 137.213C113.843 134.357 119.895 130.271 125.092 125.069C130.288 119.867 134.368 113.806 137.218 107.057C140.171 100.068 141.667 92.6471 141.667 84.9999C141.667 77.3528 140.171 69.9323 137.218 62.9424Z" fill="#FFB200"/>
<path id="Vector_2" d="M85 0C38.0545 0 0 38.0545 0 85C0 131.945 38.0545 170 85 170C131.945 170 170 131.945 170 85C170 38.0545 131.945 0 85 0ZM158.1 115.878C154.105 125.324 148.384 133.81 141.097 141.097C133.81 148.384 125.324 154.105 115.878 158.1C111.568 159.925 107.137 161.35 102.612 162.376C108.792 156.74 114.175 148.226 118.343 137.694C115.764 139.329 113.064 140.771 110.251 142.015C110.16 142.199 110.075 142.386 109.984 142.568C106.477 149.583 102.292 155.264 97.8832 158.993C93.6955 162.534 89.3605 164.33 85 164.33C80.6395 164.33 76.3045 162.534 72.1168 158.993C67.7082 155.264 63.5233 149.583 60.0157 142.568C59.9137 142.364 59.8145 142.151 59.7153 141.944C56.899 140.686 54.196 139.236 51.6148 137.589C55.7855 148.169 61.1858 156.72 67.3852 162.376C62.8603 161.35 58.4318 159.925 54.1195 158.1C44.6732 154.105 36.1873 148.384 28.9 141.097C21.6127 133.81 15.8922 125.324 11.8972 115.878C10.0725 111.568 8.64733 107.137 7.62167 102.612C13.2912 108.828 21.8705 114.237 32.4842 118.413C30.8493 115.841 29.4072 113.144 28.1577 110.336C27.9168 110.217 27.6675 110.103 27.4295 109.984C20.4142 106.477 14.7333 102.292 11.0047 97.8832C7.463 93.6955 5.66667 89.3605 5.66667 85C5.66667 80.6395 7.463 76.3045 11.0047 72.1168C14.7333 67.7082 20.4142 63.5233 27.4295 60.0157C27.6675 59.8967 27.9168 59.7805 28.1577 59.6643C29.4072 56.8565 30.8493 54.1592 32.4842 51.5865C21.8705 55.7628 13.2912 61.1717 7.62167 67.388C8.64733 62.8632 10.0725 58.4347 11.8972 54.1223C15.8922 44.676 21.6127 36.1902 28.9 28.9028C36.1873 21.6155 44.6732 15.895 54.1195 11.9C58.429 10.0753 62.8603 8.65017 67.3852 7.6245C61.1858 13.2798 55.7855 21.8308 51.6148 32.4105C54.196 30.7643 56.899 29.3108 59.7153 28.0557C59.8173 27.8488 59.9137 27.6363 60.0157 27.4323C63.5233 20.417 67.7082 14.7362 72.1168 11.0075C76.3045 7.46583 80.6395 5.6695 85 5.6695C89.3605 5.6695 93.6955 7.46583 97.8832 11.0075C102.292 14.7362 106.477 20.417 109.984 27.4323C110.075 27.6137 110.163 27.8035 110.251 27.9848C113.064 29.2315 115.764 30.6737 118.343 32.3057C114.178 21.7742 108.792 13.26 102.612 7.6245C107.137 8.65017 111.565 10.0753 115.878 11.9C125.324 15.895 133.81 21.6155 141.097 28.9028C148.384 36.1902 154.105 44.676 158.1 54.1223C159.925 58.4318 161.35 62.8632 162.376 67.388C156.737 61.2057 148.22 55.8195 137.683 51.6545C139.315 54.2328 140.757 56.933 142.001 59.7465C142.188 59.84 142.383 59.9278 142.568 60.0213C149.583 63.529 155.264 67.7138 158.993 72.1225C162.534 76.3102 164.33 80.6452 164.33 85.0057C164.33 89.3662 162.534 93.7012 158.993 97.8888C155.264 102.297 149.583 106.482 142.568 109.99C142.381 110.084 142.188 110.171 142.001 110.265C140.754 113.078 139.315 115.779 137.683 118.357C148.22 114.192 156.737 108.806 162.376 102.623C161.35 107.148 159.925 111.577 158.1 115.889V115.878Z" fill="black"/>
<path id="Vector_3" d="M99.1667 96.3333C99.1667 88.5218 92.8115 82.1667 85 82.1667C80.3137 82.1667 76.5 78.353 76.5 73.6667C76.5 68.9803 80.3137 65.1667 85 65.1667H96.3334V59.5H87.8334V51H82.1667V59.7862C75.7095 61.1037 70.8334 66.827 70.8334 73.6667C70.8334 81.4782 77.1885 87.8333 85 87.8333C89.6864 87.8333 93.5 91.647 93.5 96.3333C93.5 101.02 89.6864 104.833 85 104.833H73.6667V110.5H82.1667V119H87.8334V110.214C94.2905 108.896 99.1667 103.173 99.1667 96.3333Z" fill="#001511"/>
</g>
<defs>
<clipPath id="clip0_71_986">
<rect width="170" height="170" fill="white"/>
</clipPath>
</defs>
</svg>
