<svg width="131" height="131" viewBox="0 0 131 131" fill="none" xmlns="http://www.w3.org/2000/svg">
<g clip-path="url(#clip0_71_1102)">
<path d="M19.6692 45.7534C18.7772 45.0646 17.4956 45.2292 16.8068 46.1212C16.1179 47.0131 16.2826 48.2947 17.1745 48.9836C19.6729 50.9071 23.4208 52.9867 27.943 52.9867C31.1889 52.9867 34.7839 51.9201 38.5165 48.9676C39.3996 48.2699 39.55 46.9883 38.8523 46.1052C38.1546 45.222 36.873 45.0717 35.9898 45.7693C33.0889 48.0639 30.3647 48.8928 27.943 48.8928C24.5356 48.8928 21.6285 47.2618 19.6692 45.7534Z" fill="#00B971"/>
<path d="M57.3317 48.9833C58.2236 48.2945 58.3883 47.0129 57.6995 46.1209C57.0106 45.229 55.729 45.0643 54.8371 45.7532C52.8778 47.2616 49.9707 48.8926 46.5632 48.8926C44.1415 48.8926 41.4173 48.0637 38.5164 45.7691C37.6333 45.0714 36.3517 45.2218 35.654 46.1049C34.9563 46.9881 35.1066 48.2697 35.9898 48.9674C39.7224 51.9199 43.3173 52.9865 46.5632 52.9865C51.0855 52.9865 54.8334 50.9068 57.3317 48.9833Z" fill="#00B971"/>
<path d="M57.3318 45.7532C56.4398 45.0643 55.1582 45.229 54.4694 46.1209C53.7805 47.0129 53.9452 48.2945 54.8371 48.9833C57.3355 50.9068 61.0833 52.9865 65.6056 52.9865C68.8514 52.9865 72.4463 51.9199 76.179 48.9674C77.0622 48.2697 77.2125 46.9881 76.5148 46.1049C75.8171 45.2218 74.5355 45.0714 73.6523 45.7691C70.7515 48.0637 68.0273 48.8926 65.6056 48.8926C62.1981 48.8926 59.2911 47.2616 57.3318 45.7532Z" fill="#00B971"/>
<path d="M94.9942 48.9833C95.8862 48.2945 96.0509 47.0129 95.362 46.1209C94.6732 45.229 93.3915 45.0643 92.4996 45.7532C90.5403 47.2616 87.6333 48.8926 84.2258 48.8926C81.804 48.8926 79.0798 48.0637 76.179 45.7691C75.2958 45.0714 74.0142 45.2218 73.3165 46.1049C72.6188 46.9881 72.7692 48.2697 73.6523 48.9674C77.385 51.9199 80.9801 52.9865 84.2258 52.9865C88.7481 52.9865 92.4959 50.9068 94.9942 48.9833Z" fill="#00B971"/>
<path d="M94.9942 45.7532C94.1023 45.0643 92.8207 45.229 92.1318 46.1209C91.443 47.0129 91.6077 48.2945 92.4996 48.9833C94.9979 50.9068 98.7458 52.9865 103.268 52.9865C106.514 52.9865 110.109 51.9199 113.842 48.9674C114.725 48.2697 114.875 46.9881 114.177 46.1049C113.48 45.2218 112.198 45.0714 111.315 45.7691C108.414 48.0637 105.69 48.8926 103.268 48.8926C99.8606 48.8926 96.9535 47.2616 94.9942 45.7532Z" fill="#00B971"/>
<path d="M19.6692 62.8439C18.7772 62.155 17.4956 62.3197 16.8068 63.2116C16.1179 64.1036 16.2826 65.3852 17.1745 66.074C19.6729 67.9975 23.4208 70.0772 27.943 70.0772C31.1889 70.0772 34.7839 69.0106 38.5165 66.0581C39.3996 65.3604 39.55 64.0788 38.8523 63.1956C38.1546 62.3124 36.873 62.1621 35.9898 62.8598C33.0889 65.1544 30.3647 65.9833 27.943 65.9833C24.5356 65.9833 21.6285 64.3523 19.6692 62.8439Z" fill="#00B971"/>
<path d="M57.3317 66.074C58.2236 65.3852 58.3883 64.1036 57.6995 63.2116C57.0106 62.3197 55.729 62.155 54.8371 62.8439C52.8778 64.3523 49.9707 65.9833 46.5632 65.9833C44.1415 65.9833 41.4173 65.1544 38.5164 62.8598C37.6333 62.1621 36.3517 62.3125 35.654 63.1956C34.9563 64.0788 35.1066 65.3604 35.9898 66.0581C39.7224 69.0106 43.3173 70.0772 46.5632 70.0772C51.0855 70.0772 54.8334 67.9975 57.3317 66.074Z" fill="#00B971"/>
<path d="M57.3318 62.8439C56.4398 62.155 55.1582 62.3197 54.4694 63.2116C53.7805 64.1036 53.9452 65.3852 54.8371 66.074C57.3355 67.9975 61.0833 70.0772 65.6056 70.0772C68.8514 70.0772 72.4463 69.0106 76.179 66.0581C77.0622 65.3604 77.2125 64.0788 76.5148 63.1956C75.8171 62.3124 74.5355 62.1621 73.6523 62.8598C70.7515 65.1544 68.0273 65.9833 65.6056 65.9833C62.1981 65.9833 59.2911 64.3523 57.3318 62.8439Z" fill="#00B971"/>
<path d="M94.9942 66.074C95.8862 65.3852 96.0509 64.1036 95.362 63.2116C94.6732 62.3197 93.3915 62.155 92.4996 62.8439C90.5403 64.3523 87.6333 65.9833 84.2258 65.9833C81.804 65.9833 79.0798 65.1544 76.179 62.8598C75.2958 62.1621 74.0142 62.3125 73.3165 63.1956C72.6188 64.0788 72.7692 65.3604 73.6523 66.0581C77.385 69.0106 80.9801 70.0772 84.2258 70.0772C88.7481 70.0772 92.4959 67.9975 94.9942 66.074Z" fill="#00B971"/>
<path d="M94.9942 62.8439C94.1023 62.155 92.8207 62.3197 92.1318 63.2116C91.443 64.1036 91.6077 65.3852 92.4996 66.074C94.9979 67.9975 98.7458 70.0772 103.268 70.0772C106.514 70.0772 110.109 69.0106 113.842 66.0581C114.725 65.3604 114.875 64.0788 114.177 63.1956C113.48 62.3124 112.198 62.1621 111.315 62.8598C108.414 65.1544 105.69 65.9833 103.268 65.9833C99.8606 65.9833 96.9535 64.3523 94.9942 62.8439Z" fill="#00B971"/>
<path d="M97.4824 96.2972C96.6675 95.0764 95.7572 93.9387 94.7647 92.8841C89.3783 87.1606 81.6001 83.9508 73.4557 83.1834C65.2599 82.4111 56.7294 84.1111 49.8987 88.2095C48.4545 89.0759 47.0854 90.0521 45.8111 91.1374C46.438 92.8033 46.7515 94.552 46.7515 96.2969C46.7515 98.0419 46.438 99.7908 45.811 101.457C47.0853 102.542 48.4545 103.518 49.8986 104.385C56.7293 108.483 65.2598 110.183 73.4557 109.411C81.6 108.644 89.3783 105.434 94.7647 99.7102C95.7572 98.6556 96.6675 97.5179 97.4824 96.2972ZM97.7391 90.0856C99.1615 91.5971 100.444 93.2679 101.557 95.0989C102.021 95.7426 102.086 96.6267 101.652 97.3503L101.646 97.347C100.513 99.2362 99.2 100.956 97.7391 102.509C91.639 108.991 82.9211 112.617 73.8395 113.473C64.8091 114.324 55.3823 112.434 47.8038 107.887C45.7352 106.646 43.8054 105.21 42.0597 103.583C41.3267 102.99 41.0795 101.946 41.5218 101.07L41.5263 101.073C42.2805 99.5785 42.6577 97.9408 42.6577 96.2969C42.6577 94.6977 42.3006 93.1043 41.5866 91.6432C41.1092 90.837 41.2355 89.7799 41.9462 89.111L43.349 90.6016L41.9498 89.1144C43.7243 87.4443 45.6917 85.9745 47.8038 84.7074C55.3824 80.1604 64.809 78.2706 73.8395 79.1216C82.9212 79.9773 91.639 83.6038 97.7391 90.0856Z" fill="#00B971"/>
<path d="M34.991 85.9048C36.171 89.0026 36.7613 92.6628 36.7613 96.2971C36.7613 99.9314 36.171 103.592 34.991 106.689C38.0301 105.55 40.1597 103.61 41.3865 101.34C42.2348 99.7716 42.6589 98.0361 42.6589 96.2971C42.6589 94.558 42.2347 92.8226 41.3865 91.2536C40.1597 88.9844 38.0301 87.0446 34.991 85.9048ZM32.6674 96.2971C32.6674 91.6813 31.6346 87.123 29.5693 84.2722C29.2005 83.8544 29.0026 83.2885 29.0689 82.691C29.1937 81.5675 30.2058 80.7579 31.3293 80.8827L31.3289 80.8864C38.1102 81.6403 42.6693 85.0361 44.9846 89.3186C46.1633 91.4989 46.7528 93.8998 46.7528 96.297C46.7528 98.6942 46.1634 101.095 44.9846 103.275C42.6844 107.53 38.1694 110.909 31.4616 111.692C30.9229 111.788 30.3476 111.669 29.8753 111.315C28.9709 110.636 28.7875 109.353 29.4657 108.449L31.1033 109.677L29.4722 108.454C31.6023 105.613 32.6674 100.985 32.6674 96.2971V96.2971Z" fill="#00B971"/>
<path d="M87.525 93.5927C88.2717 93.5927 88.9479 93.8955 89.4373 94.3849C89.9267 94.8743 90.2295 95.5504 90.2295 96.2971C90.2295 97.039 89.9268 97.7139 89.4373 98.2053L89.4352 98.2073L89.4351 98.2073L89.4373 98.2095C89.4135 98.2333 89.3887 98.2557 89.3632 98.2766C88.8787 98.7264 88.2324 99.0015 87.525 99.0015C86.7831 99.0015 86.1083 98.6989 85.6169 98.2093L85.6149 98.2073L85.6149 98.2072L85.6127 98.2093C85.5889 98.1855 85.5665 98.1607 85.5456 98.1353C85.0958 97.6508 84.8207 97.0044 84.8207 96.2971C84.8207 95.5552 85.1233 94.8802 85.6129 94.3889L85.6149 94.3869L85.615 94.3868L85.6129 94.3847C85.6367 94.3609 85.6615 94.3385 85.6869 94.3175C86.1714 93.8677 86.8177 93.5927 87.525 93.5927ZM87.99 95.8321C87.8711 95.7132 87.7066 95.6396 87.525 95.6396C87.3579 95.6396 87.2073 95.6989 87.0939 95.7967C87.0829 95.8088 87.0717 95.8206 87.0601 95.8322L86.3365 95.1085L87.0561 95.8321C86.9398 95.9484 86.8676 96.1127 86.8676 96.2971C86.8676 96.464 86.9268 96.6145 87.0244 96.7279C87.0366 96.739 87.0485 96.7504 87.0603 96.7621L86.3365 97.4857L87.0601 96.7661C87.1764 96.8824 87.3408 96.9546 87.525 96.9546C87.6919 96.9546 87.8425 96.8954 87.9559 96.7977C87.967 96.7856 87.9783 96.7737 87.99 96.7619L88.7136 97.4857L87.994 96.7621C88.1105 96.6457 88.1825 96.4814 88.1825 96.2971C88.1825 96.1155 88.109 95.951 87.99 95.8321Z" fill="#00B971"/>
<path d="M84.1598 84.4975C84.9591 83.7026 84.9627 82.4103 84.1679 81.6111C83.373 80.8118 82.0807 80.8082 81.2814 81.6031C81.2481 81.636 69.5193 92.9341 81.3768 110.56C82.0038 111.496 83.2711 111.746 84.2072 111.119C85.1434 110.492 85.3939 109.225 84.767 108.289C74.811 93.4899 84.1334 84.5237 84.1598 84.4975Z" fill="#00B971"/>
<path d="M12.6562 7.20312V30H8.15625V12.3906L2.75 14.1094V10.5625L12.1719 7.20312H12.6562ZM36 21.5V25.0312H19.6094L19.3906 22.2969L28.875 7.25H32.4531L28.5781 13.7344L23.8594 21.5H36ZM33.4219 7.25V30H28.9219V7.25H33.4219Z" fill="#006C42"/>
<rect width="30" height="30" transform="translate(101 101)" fill="#4AD256"/>
<path d="M116 124.75V107.25" stroke="white" stroke-width="3" stroke-linecap="round" stroke-linejoin="round"/>
<path d="M107.25 116L116 107.25L124.75 116" stroke="white" stroke-width="3" stroke-linecap="round" stroke-linejoin="round"/>
</g>
<defs>
<clipPath id="clip0_71_1102">
<rect width="131" height="131" fill="white"/>
</clipPath>
</defs>
</svg>
