<svg width="130" height="130" viewBox="0 0 130 130" fill="none" xmlns="http://www.w3.org/2000/svg">
<g clip-path="url(#clip0_39_1163)">
<path d="M65 16.2499C72.5073 16.2499 79.3043 19.2932 84.2243 24.2131C89.1443 29.1331 92.1875 35.9301 92.1875 43.4373C92.1875 50.9446 89.1443 57.7415 84.2243 62.6616C79.3044 67.5816 72.5074 70.6249 65 70.6249C57.4926 70.6249 50.6956 67.5816 45.7758 62.6616C40.8557 57.7415 37.8125 50.9446 37.8125 43.4373C37.8125 35.93 40.8557 29.1331 45.7758 24.2131C50.6957 19.2932 57.4928 16.2499 65 16.2499ZM81.352 27.0854C77.1674 22.9008 71.386 20.3124 65 20.3124C58.6141 20.3124 52.8327 22.9008 48.6481 27.0854C44.4634 31.2701 41.8751 37.0514 41.8751 43.4373C41.8751 49.8233 44.4634 55.6046 48.6481 59.7893C52.8327 63.9739 58.614 66.5623 65 66.5623C71.386 66.5623 77.1673 63.9739 81.352 59.7893C85.5366 55.6046 88.125 49.8233 88.125 43.4373C88.125 37.0514 85.5366 31.2701 81.352 27.0854Z" fill="#FFB200"/>
<path d="M67.0313 68.5934C67.0313 67.4716 66.1218 66.5621 65 66.5621C63.8782 66.5621 62.9687 67.4716 62.9687 68.5934V111.719C62.9687 112.84 63.8782 113.75 65 113.75C66.1218 113.75 67.0313 112.84 67.0313 111.719V68.5934Z" fill="#FFB200"/>
<path d="M65 25.1561C70.048 25.1561 74.6183 27.2024 77.9267 30.5108C81.2351 33.8191 83.2814 38.3895 83.2814 43.4375C83.2814 48.4855 81.2351 53.0558 77.9267 56.3641C74.6184 59.6724 70.048 61.7187 65 61.7187C59.952 61.7187 55.3816 59.6724 52.0733 56.3641C48.7649 53.0557 46.7186 48.4854 46.7186 43.4375C46.7186 38.3895 48.7649 33.8191 52.0733 30.5108C55.3816 27.2024 59.952 25.1561 65 25.1561ZM75.0543 33.3831C72.4814 30.8102 68.9266 29.2187 65 29.2187C61.0734 29.2187 57.5186 30.8102 54.9457 33.3831C52.3727 35.956 50.7813 39.5109 50.7813 43.4374C50.7813 47.364 52.3727 50.9188 54.9457 53.4917C57.5186 56.0647 61.0734 57.6561 65 57.6561C68.9266 57.6561 72.4814 56.0647 75.0543 53.4917C77.6273 50.9188 79.2187 47.364 79.2187 43.4374C79.2187 39.5108 77.6273 35.956 75.0543 33.3831Z" fill="#FFB200"/>
<path d="M66.0372 95.2708C66.0639 93.5033 66.8893 81.1948 84.7516 79.2355L84.751 79.231C85.8507 79.1106 86.8412 79.8917 86.9857 80.9827C87.4252 83.0218 90.4445 100.05 67.8309 97.4598L68.061 95.4444L67.8299 97.4625C66.7345 97.3371 65.943 96.3623 66.0372 95.2708ZM83.2541 83.5361C73.4189 85.2187 70.9229 90.7132 70.2941 93.5985C82.4517 94.266 83.4627 87.0257 83.2541 83.5361Z" fill="#FFB200"/>
<path d="M59.7058 93.5981C59.0764 90.7132 56.5811 85.2184 46.7457 83.5357C46.5363 87.0261 47.5482 94.2658 59.7058 93.5981ZM45.2482 79.2352C63.1105 81.1945 63.9359 93.503 63.9626 95.2705C64.0567 96.362 63.2653 97.3369 62.1699 97.4623L61.9388 95.4442L62.1689 97.4596C39.5553 100.05 42.5745 83.0215 43.0141 80.9824C43.1586 79.8914 44.1491 79.1103 45.2487 79.2307L45.2482 79.2352Z" fill="#FFB200"/>
<path d="M70.9801 38.8853L67.1173 39.4984C66.9259 39.0058 66.7488 38.6657 66.5928 38.4743C66.4368 38.2828 66.1817 38.0915 65.8202 37.8966V40.8983C67.9253 41.4581 69.3286 42.0501 70.0374 42.6737C70.9695 43.5101 71.4373 44.5732 71.4373 45.8632C71.4373 46.6145 71.2707 47.3091 70.934 47.9399C70.5973 48.5672 70.1686 49.0952 69.6476 49.5169C69.1231 49.9386 68.5667 50.2434 67.9785 50.4348C67.3901 50.6261 66.6708 50.7396 65.8202 50.7715V52.7348H64.3035V50.7715C63.2864 50.6829 62.4606 50.5198 61.8298 50.2789C61.1955 50.0414 60.6497 49.7119 60.189 49.2866C59.7283 48.8649 59.3739 48.4112 59.1223 47.9222C58.8743 47.4331 58.6864 46.8448 58.5624 46.1538L62.7583 45.6648C62.8824 46.3487 63.0489 46.8448 63.2616 47.1497C63.4706 47.4544 63.8215 47.7237 64.3035 47.9576V44.2933C62.9072 43.907 61.9148 43.5703 61.3301 43.2868C60.7454 43.0032 60.2386 42.5497 59.8098 41.9224C59.381 41.2952 59.1649 40.5332 59.1649 39.6331C59.1649 38.3998 59.5971 37.3721 60.4584 36.5428C61.3195 35.7171 62.6023 35.2563 64.3035 35.1678V34.14H65.8202V35.1678C67.3724 35.2635 68.556 35.632 69.3747 36.2699C70.1969 36.9043 70.732 37.776 70.9801 38.8853ZM64.3035 37.847C63.8605 37.9923 63.5522 38.173 63.3821 38.3856C63.2083 38.6018 63.1198 38.8535 63.1198 39.1441C63.1198 39.4487 63.2083 39.7146 63.3856 39.9379C63.5628 40.1646 63.8675 40.3525 64.3035 40.5049L64.3035 37.847ZM65.8202 48.064C66.4085 47.9328 66.8408 47.7167 67.1137 47.4154C67.3866 47.1142 67.5249 46.774 67.5249 46.4019C67.5249 46.0758 67.4079 45.7781 67.174 45.5017C66.9436 45.2289 66.4936 44.9773 65.8202 44.7398V48.064Z" fill="#FFB200"/>
<path d="M17.2031 23.7656C17.2031 25.1927 16.8698 26.3958 16.2031 27.375C15.5365 28.3438 14.6198 29.0781 13.4531 29.5781C12.2969 30.0677 10.9844 30.3125 9.51562 30.3125C8.04688 30.3125 6.72917 30.0677 5.5625 29.5781C4.39583 29.0781 3.47396 28.3438 2.79688 27.375C2.11979 26.3958 1.78125 25.1927 1.78125 23.7656C1.78125 22.8073 1.97396 21.9427 2.35938 21.1719C2.74479 20.3906 3.28125 19.724 3.96875 19.1719C4.66667 18.6094 5.48438 18.1823 6.42188 17.8906C7.35938 17.5885 8.38021 17.4375 9.48438 17.4375C10.9635 17.4375 12.2865 17.6979 13.4531 18.2188C14.6198 18.7396 15.5365 19.474 16.2031 20.4219C16.8698 21.3698 17.2031 22.4844 17.2031 23.7656ZM12.6719 23.4688C12.6719 22.7708 12.5365 22.1719 12.2656 21.6719C12.0052 21.1615 11.6354 20.7708 11.1562 20.5C10.6771 20.2292 10.1198 20.0938 9.48438 20.0938C8.84896 20.0938 8.29167 20.2292 7.8125 20.5C7.33333 20.7708 6.95833 21.1615 6.6875 21.6719C6.42708 22.1719 6.29688 22.7708 6.29688 23.4688C6.29688 24.1562 6.42708 24.75 6.6875 25.25C6.95833 25.75 7.33333 26.1354 7.8125 26.4062C8.30208 26.6667 8.86979 26.7969 9.51562 26.7969C10.1615 26.7969 10.7188 26.6667 11.1875 26.4062C11.6667 26.1354 12.0312 25.75 12.2812 25.25C12.5417 24.75 12.6719 24.1562 12.6719 23.4688ZM16.7188 13.2812C16.7188 14.4375 16.4115 15.4635 15.7969 16.3594C15.1823 17.2448 14.3281 17.9375 13.2344 18.4375C12.151 18.9375 10.9115 19.1875 9.51562 19.1875C8.10938 19.1875 6.85938 18.9375 5.76562 18.4375C4.67188 17.9375 3.81771 17.2448 3.20312 16.3594C2.58854 15.4635 2.28125 14.4375 2.28125 13.2812C2.28125 11.9062 2.58854 10.75 3.20312 9.8125C3.82812 8.86458 4.68229 8.14583 5.76562 7.65625C6.85938 7.16667 8.09896 6.92188 9.48438 6.92188C10.8906 6.92188 12.1354 7.16667 13.2188 7.65625C14.3125 8.14583 15.1667 8.86458 15.7812 9.8125C16.4062 10.75 16.7188 11.9062 16.7188 13.2812ZM12.2188 13.4844C12.2188 12.8698 12.1094 12.3385 11.8906 11.8906C11.6719 11.4323 11.3594 11.0781 10.9531 10.8281C10.5573 10.5781 10.0677 10.4531 9.48438 10.4531C8.92188 10.4531 8.4375 10.5729 8.03125 10.8125C7.63542 11.0521 7.32812 11.401 7.10938 11.8594C6.90104 12.3073 6.79688 12.849 6.79688 13.4844C6.79688 14.099 6.90104 14.6406 7.10938 15.1094C7.32812 15.5677 7.64062 15.9271 8.04688 16.1875C8.45312 16.4479 8.94271 16.5781 9.51562 16.5781C10.0885 16.5781 10.5729 16.4479 10.9688 16.1875C11.375 15.9271 11.6823 15.5677 11.8906 15.1094C12.1094 14.6406 12.2188 14.099 12.2188 13.4844Z" fill="#EB7F00"/>
<rect width="30" height="30" transform="translate(100 130) rotate(-90)" fill="#E66A27"/>
<path d="M106.25 115L123.75 115" stroke="white" stroke-width="3" stroke-linecap="round" stroke-linejoin="round"/>
<path d="M115 106.25L123.75 115L115 123.75" stroke="white" stroke-width="3" stroke-linecap="round" stroke-linejoin="round"/>
</g>
<defs>
<clipPath id="clip0_39_1163">
<rect width="130" height="130" fill="white"/>
</clipPath>
</defs>
</svg>
