<svg width="131" height="130" viewBox="0 0 131 130" fill="none" xmlns="http://www.w3.org/2000/svg">
<g clip-path="url(#clip0_71_1084)">
<path d="M28.1792 26.9379L42.757 80.9274H56.8038C57.8995 80.9274 58.7877 81.8089 58.7877 82.8962V97.8126C58.7877 98.8999 57.8995 99.7814 56.8038 99.7814H51.1454L64.211 112.747L77.2766 99.7814H71.6182C70.5226 99.7814 69.6343 98.8999 69.6343 97.8126V82.8962C69.6343 81.8089 70.5226 80.9274 71.6182 80.9274H85.665L100.243 26.9379H64.2111H28.1794H28.1792ZM41.2373 82.8962L39.3232 83.4038L23.711 25.5827C23.6472 25.3897 23.6125 25.1834 23.6125 24.9691C23.6125 23.8819 24.5008 23.0004 25.5965 23.0004H64.2109H102.787C102.969 22.9969 103.154 23.0184 103.339 23.0675C104.397 23.3489 105.025 24.4284 104.742 25.4787L104.739 25.478L89.1264 83.3013C88.9382 84.1943 88.1403 84.865 87.1846 84.865H73.6021V95.8439H82.0658V95.8439C82.5736 95.8439 83.0813 96.0361 83.4687 96.4205C84.2434 97.1893 84.2434 98.436 83.4687 99.2048L83.4685 99.2046L65.6247 116.912L65.6138 116.923C64.8391 117.692 63.5828 117.692 62.8081 116.923L62.8083 116.923L44.9656 99.2168C44.5993 98.8596 44.3721 98.3625 44.3721 97.8127C44.3721 96.7254 45.2604 95.8439 46.356 95.8439H54.8198V84.865H41.2688C40.3802 84.8796 39.5614 84.2963 39.3211 83.4058L41.2373 82.8962Z" fill="#FFFF"/>
<path d="M28.9232 39.4908C27.9987 40.0684 27.7211 41.2804 28.3032 42.1978C28.8852 43.1152 30.1065 43.3907 31.031 42.813C41.6411 36.1823 51.992 38.9347 62.2428 41.6604C75.2639 45.1226 88.1369 48.5455 101.893 35.0258C102.667 34.2613 102.671 33.0183 101.901 32.2496C101.13 31.4809 99.8776 31.4774 99.103 32.2419C86.9718 44.1647 75.1866 41.031 63.2657 37.8613C52.1884 34.9159 41.003 31.9416 28.9232 39.4908Z" fill="#FFFF"/>
<path d="M64.2109 51.4271C54.4299 61.8119 54.3102 68.454 57.5772 71.6574C59.2134 73.2617 61.6973 74.0639 64.2109 74.0639C66.7245 74.0639 69.2083 73.2617 70.8445 71.6574C74.1116 68.4541 73.992 61.812 64.2109 51.4271ZM54.8029 74.4568C49.9928 69.7404 49.549 60.5816 62.6916 47.3281C62.7308 47.2819 62.7724 47.2369 62.8166 47.1936C63.596 46.4295 64.8521 46.4369 65.6221 47.2104L64.2109 48.5941L65.6213 47.2175C78.8767 60.531 78.4424 69.7273 73.6188 74.4567C71.2087 76.8199 67.6949 78.0014 64.2109 78.0014C60.727 78.0014 57.213 76.8199 54.8029 74.4568Z" fill="#FFFF"/>
<rect width="30" height="30" transform="translate(101 130) rotate(-90)" fill="#E66A27"/>
<path d="M107.25 115L124.75 115" stroke="white" stroke-width="3" stroke-linecap="round" stroke-linejoin="round"/>
<path d="M116 106.25L124.75 115L116 123.75" stroke="white" stroke-width="3" stroke-linecap="round" stroke-linejoin="round"/>
<path d="M13.4844 7.01562H14.1406V10.6094H13.875C12.6875 10.6094 11.6302 10.7865 10.7031 11.1406C9.77604 11.4948 8.98958 12 8.34375 12.6562C7.70833 13.3021 7.21875 14.0833 6.875 15C6.54167 15.9167 6.375 16.9427 6.375 18.0781V21.8594C6.375 22.6719 6.45312 23.3906 6.60938 24.0156C6.77604 24.6302 7.01042 25.1458 7.3125 25.5625C7.625 25.9688 7.98958 26.276 8.40625 26.4844C8.82292 26.6823 9.29167 26.7812 9.8125 26.7812C10.3021 26.7812 10.7448 26.6771 11.1406 26.4688C11.5469 26.2604 11.8906 25.9688 12.1719 25.5938C12.4635 25.2083 12.6823 24.7604 12.8281 24.25C12.9844 23.7292 13.0625 23.1615 13.0625 22.5469C13.0625 21.9323 12.9844 21.3646 12.8281 20.8438C12.6823 20.3229 12.4635 19.875 12.1719 19.5C11.8802 19.1146 11.526 18.8177 11.1094 18.6094C10.6927 18.401 10.224 18.2969 9.70312 18.2969C8.99479 18.2969 8.36979 18.4635 7.82812 18.7969C7.29688 19.1198 6.88021 19.5365 6.57812 20.0469C6.27604 20.5573 6.11458 21.0938 6.09375 21.6562L4.73438 20.7812C4.76562 19.9792 4.93229 19.2188 5.23438 18.5C5.54688 17.7812 5.97396 17.1458 6.51562 16.5938C7.06771 16.0312 7.72917 15.5938 8.5 15.2812C9.27083 14.9583 10.1406 14.7969 11.1094 14.7969C12.1719 14.7969 13.1042 15 13.9062 15.4062C14.7188 15.8125 15.3958 16.3698 15.9375 17.0781C16.4792 17.7865 16.8854 18.6042 17.1562 19.5312C17.4271 20.4583 17.5625 21.4479 17.5625 22.5C17.5625 23.6042 17.3802 24.6302 17.0156 25.5781C16.6615 26.526 16.1458 27.3542 15.4688 28.0625C14.8021 28.7708 14 29.3229 13.0625 29.7188C12.125 30.1146 11.0729 30.3125 9.90625 30.3125C8.69792 30.3125 7.59896 30.0938 6.60938 29.6562C5.63021 29.2083 4.78646 28.5833 4.07812 27.7812C3.36979 26.9792 2.82292 26.026 2.4375 24.9219C2.0625 23.8177 1.875 22.6094 1.875 21.2969V19.5469C1.875 17.7135 2.14062 16.0365 2.67188 14.5156C3.21354 12.9844 3.98958 11.6615 5 10.5469C6.01042 9.42188 7.22917 8.55208 8.65625 7.9375C10.0833 7.32292 11.6927 7.01562 13.4844 7.01562Z" fill="#006C42"/>
</g>
<defs>
<clipPath id="clip0_71_1084">
<rect width="131" height="130" fill="white"/>
</clipPath>
</defs>
</svg>
