<svg width="130" height="130" viewBox="0 0 130 130" fill="none" xmlns="http://www.w3.org/2000/svg">
<g clip-path="url(#clip0_39_1173)">
<path d="M40.8547 30.1889L64.0792 18.7113L64.0769 18.7068C64.713 18.3925 65.434 18.4421 66.0039 18.7753L89.2248 30.2511L88.3283 32.0681L89.2282 30.2471C90.2339 30.7441 90.6463 31.9624 90.1493 32.9681C89.9211 33.4298 89.5409 33.7663 89.0991 33.9473L65.8746 45.4249L65.8769 45.4294C65.2408 45.7438 64.5198 45.6942 63.95 45.361L40.729 33.8851L41.6256 32.0681L40.7256 33.8891C39.7199 33.3921 39.3076 32.1738 39.8045 31.1681C40.0327 30.7064 40.4129 30.3699 40.8547 30.1889ZM64.9769 22.7879L46.1989 32.0681L64.9769 41.3483L83.7549 32.0681L64.9769 22.7879Z" fill="#FFFF"/>
<path d="M43.6567 32.0682C43.6567 30.9464 42.7472 30.0369 41.6254 30.0369C40.5036 30.0369 39.5941 30.9464 39.5941 32.0682V59.2132C39.5941 60.335 40.5036 61.2445 41.6254 61.2445C42.7472 61.2445 43.6567 60.335 43.6567 59.2132V32.0682Z" fill="#FFFF"/>
<path d="M67.0084 43.638C67.0084 42.5162 66.0989 41.6067 64.9771 41.6067C63.8553 41.6067 62.9458 42.5162 62.9458 43.638V70.783C62.9458 71.9049 63.8553 72.8143 64.9771 72.8143C66.0989 72.8143 67.0084 71.9049 67.0084 70.783V43.638Z" fill="#FFFF"/>
<path d="M90.3595 32.0682C90.3595 30.9464 89.45 30.0369 88.3282 30.0369C87.2064 30.0369 86.2969 30.9464 86.2969 32.0682V59.2132C86.2969 60.335 87.2064 61.2445 88.3282 61.2445C89.45 61.2445 90.3595 60.335 90.3595 59.2132V32.0682Z" fill="#FFFF"/>
<path d="M17.5104 68.8784L40.7349 57.4008L40.7327 57.3963C41.3687 57.0819 42.0898 57.1316 42.6596 57.4647L65.8806 68.9406L64.984 70.7576L65.884 68.9366C66.8897 69.4336 67.302 70.6519 66.805 71.6576C66.5769 72.1193 66.1967 72.4558 65.7549 72.6368L42.5304 84.1144L42.5327 84.1189C41.8966 84.4332 41.1756 84.3836 40.6057 84.0504L17.3847 72.5746L18.2813 70.7576L17.3813 72.5786C16.3757 72.0816 15.9633 70.8633 16.4603 69.8576C16.6885 69.396 17.0686 69.0594 17.5104 68.8784ZM41.6327 61.4774L22.8547 70.7576L41.6327 80.0377L60.4107 70.7576L41.6327 61.4774Z" fill="#FFFF"/>
<path d="M20.3126 70.7572C20.3126 69.6354 19.4031 68.726 18.2813 68.726C17.1595 68.726 16.25 69.6354 16.25 70.7572V97.9023C16.25 98.7532 16.7733 99.4818 17.5155 99.7842L40.7332 111.288L40.731 111.292C41.3681 111.608 42.0909 111.558 42.6617 111.223L65.8804 99.7194C66.8839 99.2243 67.2959 98.0093 66.8008 97.0057C66.3057 96.0022 65.0907 95.5902 64.0872 96.0853L41.6327 107.211L20.3126 96.6475V70.7573L20.3126 70.7572Z" fill="#FFFF"/>
<path d="M43.664 82.3272C43.664 81.2054 42.7545 80.2959 41.6327 80.2959C40.5109 80.2959 39.6014 81.2054 39.6014 82.3272V109.472C39.6014 110.594 40.5109 111.504 41.6327 111.504C42.7545 111.504 43.664 110.594 43.664 109.472V82.3272Z" fill="#FFFF"/>
<path d="M67.0147 70.7572C67.0147 69.6354 66.1053 68.726 64.9834 68.726C63.8616 68.726 62.9521 69.6354 62.9521 70.7572V97.9023C62.9521 99.0241 63.8616 99.9336 64.9834 99.9336C66.1053 99.9336 67.0147 99.0241 67.0147 97.9023V70.7572Z" fill="#FFFF"/>
<path d="M64.2452 68.8784L87.4697 57.4008L87.4674 57.3963C88.1035 57.0819 88.8245 57.1316 89.3944 57.4647L112.615 68.9406L111.719 70.7576L112.619 68.9366C113.624 69.4336 114.037 70.6519 113.54 71.6576C113.312 72.1193 112.931 72.4558 112.49 72.6368L89.2651 84.1144L89.2674 84.1189C88.6313 84.4332 87.9103 84.3836 87.3405 84.0504L64.1195 72.5746L65.0161 70.7576L64.1161 72.5786C63.1104 72.0816 62.6981 70.8633 63.1951 69.8576C63.4232 69.396 63.8034 69.0594 64.2452 68.8784ZM88.3674 61.4774L69.5894 70.7576L88.3674 80.0377L107.145 70.7576L88.3674 61.4774Z" fill="#FFFF"/>
<path d="M67.0471 70.7572C67.0471 69.6354 66.1376 68.726 65.0158 68.726C63.894 68.726 62.9845 69.6354 62.9845 70.7572V97.9023C62.9845 98.7532 63.5078 99.4818 64.25 99.7842L87.4677 111.288L87.4655 111.292C88.1026 111.608 88.8254 111.558 89.3962 111.223L112.615 99.7194C113.618 99.2243 114.03 98.0093 113.535 97.0057C113.04 96.0022 111.825 95.5902 110.822 96.0853L88.3672 107.211L67.0471 96.6475V70.7573L67.0471 70.7572Z" fill="#FFFF"/>
<path d="M90.3989 82.3272C90.3989 81.2054 89.4894 80.2959 88.3676 80.2959C87.2458 80.2959 86.3363 81.2054 86.3363 82.3272V109.472C86.3363 110.594 87.2458 111.504 88.3676 111.504C89.4894 111.504 90.3989 110.594 90.3989 109.472V82.3272Z" fill="#FFFF"/>
<path d="M113.75 70.7572C113.75 69.6354 112.84 68.726 111.719 68.726C110.597 68.726 109.687 69.6354 109.687 70.7572V97.9023C109.687 99.0241 110.597 99.9336 111.719 99.9336C112.84 99.9336 113.75 99.0241 113.75 97.9023V70.7572Z" fill="#FFFF"/>
<path d="M5.0625 26.5781H5.35938C6.60938 26.5781 7.68229 26.4271 8.57812 26.125C9.48438 25.8125 10.2292 25.3646 10.8125 24.7812C11.3958 24.1979 11.8281 23.4844 12.1094 22.6406C12.3906 21.7865 12.5312 20.8177 12.5312 19.7344V15.4219C12.5312 14.599 12.4479 13.875 12.2812 13.25C12.125 12.625 11.8958 12.1094 11.5938 11.7031C11.3021 11.2865 10.9583 10.974 10.5625 10.7656C10.1771 10.5573 9.75 10.4531 9.28125 10.4531C8.78125 10.4531 8.33854 10.5781 7.95312 10.8281C7.56771 11.0677 7.23958 11.3958 6.96875 11.8125C6.70833 12.2292 6.50521 12.7083 6.35938 13.25C6.22396 13.7812 6.15625 14.3385 6.15625 14.9219C6.15625 15.5052 6.22396 16.0625 6.35938 16.5938C6.49479 17.1146 6.69792 17.5781 6.96875 17.9844C7.23958 18.3802 7.57812 18.6979 7.98438 18.9375C8.39062 19.1667 8.86979 19.2812 9.42188 19.2812C9.95312 19.2812 10.4271 19.1823 10.8438 18.9844C11.2708 18.776 11.6302 18.5052 11.9219 18.1719C12.224 17.8385 12.4531 17.4688 12.6094 17.0625C12.776 16.6562 12.8594 16.2448 12.8594 15.8281L14.3438 16.6406C14.3438 17.3698 14.1875 18.0885 13.875 18.7969C13.5625 19.5052 13.125 20.151 12.5625 20.7344C12.0104 21.3073 11.3698 21.7656 10.6406 22.1094C9.91146 22.4531 9.13021 22.625 8.29688 22.625C7.23438 22.625 6.29167 22.4323 5.46875 22.0469C4.64583 21.651 3.94792 21.1094 3.375 20.4219C2.8125 19.724 2.38542 18.9115 2.09375 17.9844C1.80208 17.0573 1.65625 16.0521 1.65625 14.9688C1.65625 13.8646 1.83333 12.8281 2.1875 11.8594C2.55208 10.8906 3.06771 10.0365 3.73438 9.29688C4.41146 8.55729 5.21875 7.97917 6.15625 7.5625C7.10417 7.13542 8.15625 6.92188 9.3125 6.92188C10.4688 6.92188 11.5208 7.14583 12.4688 7.59375C13.4167 8.04167 14.2292 8.67708 14.9062 9.5C15.5833 10.3125 16.1042 11.2865 16.4688 12.4219C16.8438 13.5573 17.0312 14.8177 17.0312 16.2031V17.7656C17.0312 19.2448 16.8698 20.6198 16.5469 21.8906C16.2344 23.1615 15.7604 24.3125 15.125 25.3438C14.5 26.3646 13.7188 27.2396 12.7812 27.9688C11.8542 28.6979 10.776 29.2552 9.54688 29.6406C8.31771 30.026 6.94271 30.2188 5.42188 30.2188H5.0625V26.5781Z" fill="#EB7F00"/>
<rect width="30" height="30" transform="translate(100 100)" fill="#4AD256"/>
<path d="M115 123.75V106.25" stroke="white" stroke-width="3" stroke-linecap="round" stroke-linejoin="round"/>
<path d="M106.25 115L115 106.25L123.75 115" stroke="white" stroke-width="3" stroke-linecap="round" stroke-linejoin="round"/>
</g>
<defs>
<clipPath id="clip0_39_1173">
<rect width="130" height="130" fill="white"/>
</clipPath>
</defs>
</svg>
