<svg width="130" height="130" viewBox="0 0 130 130" fill="none" xmlns="http://www.w3.org/2000/svg">
<g clip-path="url(#clip0_39_1124)">
<path d="M60.137 25.976C68.6994 25.976 76.4515 29.4468 82.0631 35.0582C87.6746 40.6697 91.1454 48.4218 91.1454 56.9843C91.1454 65.5467 87.6745 73.2989 82.0631 78.9104C76.4516 84.5218 68.6995 87.9927 60.137 87.9927C51.5746 87.9927 43.8224 84.5218 38.211 78.9104C32.5995 73.2989 29.1287 65.5468 29.1287 56.9843C29.1287 48.4219 32.5995 40.6697 38.211 35.0582C43.8224 29.4468 51.5745 25.976 60.137 25.976ZM79.1907 37.9306C74.3146 33.0546 67.5781 30.0386 60.137 30.0386C52.6959 30.0386 45.9593 33.0546 41.0833 37.9306C36.2073 42.8067 33.1913 49.5432 33.1913 56.9843C33.1913 64.4254 36.2073 71.162 41.0833 76.038C45.9594 80.9141 52.6959 83.9301 60.137 83.9301C67.5781 83.9301 74.3146 80.9141 79.1907 76.038C84.0668 71.162 87.0828 64.4254 87.0828 56.9843C87.0828 49.5432 84.0668 42.8066 79.1907 37.9306Z" fill="#0E6DD1"/>
<path d="M48.8682 46.9037C47.7464 46.9037 46.8369 47.8132 46.8369 48.935C46.8369 50.0568 47.7464 50.9663 48.8682 50.9663H71.4059C72.5278 50.9663 73.4373 50.0568 73.4373 48.935C73.4373 47.8132 72.5278 46.9037 71.4059 46.9037H48.8682Z" fill="#0E6DD1"/>
<path d="M48.8682 63.0021C47.7464 63.0021 46.8369 63.9116 46.8369 65.0334C46.8369 66.1552 47.7464 67.0647 48.8682 67.0647H71.4059C72.5278 67.0647 73.4373 66.1552 73.4373 65.0334C73.4373 63.9116 72.5278 63.0021 71.4059 63.0021H48.8682Z" fill="#0E6DD1"/>
<path d="M100.276 19.7173C101.07 18.9242 101.07 17.6381 100.276 16.845C99.4833 16.0518 98.1973 16.0518 97.4041 16.845L79.1909 35.0582C78.3978 35.8514 78.3978 37.1374 79.1909 37.9306C79.9841 38.7237 81.2701 38.7237 82.0633 37.9306L100.276 19.7173Z" fill="#0E6DD1"/>
<path d="M86.1384 16.2499C85.0166 16.2499 84.1071 17.1594 84.1071 18.2812C84.1071 19.403 85.0166 20.3125 86.1384 20.3125H96.8086V30.9827C96.8086 32.1045 97.7181 33.014 98.8399 33.014C99.9617 33.014 100.871 32.1045 100.871 30.9827V18.2812C100.871 17.1594 99.9617 16.2499 98.8399 16.2499L86.1384 16.2499Z" fill="#0E6DD1"/>
<path d="M62.1684 85.9612C62.1684 84.8394 61.2589 83.9299 60.1371 83.9299C59.0153 83.9299 58.1058 84.8394 58.1058 85.9612V111.719C58.1058 112.84 59.0153 113.75 60.1371 113.75C61.2589 113.75 62.1684 112.84 62.1684 111.719V85.9612Z" fill="#0E6DD1"/>
<path d="M62.1684 85.9612C62.1684 84.8394 61.2589 83.9299 60.1371 83.9299C59.0153 83.9299 58.1058 84.8394 58.1058 85.9612V111.719C58.1058 112.84 59.0153 113.75 60.1371 113.75C61.2589 113.75 62.1684 112.84 62.1684 111.719V85.9612Z" fill="#0E6DD1"/>
<path d="M70.0115 104.091C71.1333 104.091 72.0428 103.182 72.0428 102.06C72.0428 100.938 71.1333 100.029 70.0115 100.029H50.2623C49.1404 100.029 48.231 100.938 48.231 102.06C48.231 103.182 49.1404 104.091 50.2623 104.091H70.0115Z" fill="#0E6DD1"/>
<path d="M6.10938 19.6406L2.51562 18.7812L3.8125 7.25H16.5938V10.8906H7.51562L6.95312 15.9375C7.25521 15.7604 7.71354 15.5729 8.32812 15.375C8.94271 15.1667 9.63021 15.0625 10.3906 15.0625C11.4948 15.0625 12.474 15.2344 13.3281 15.5781C14.1823 15.9219 14.9062 16.4219 15.5 17.0781C16.1042 17.7344 16.5625 18.5365 16.875 19.4844C17.1875 20.4323 17.3438 21.5052 17.3438 22.7031C17.3438 23.7135 17.1875 24.6771 16.875 25.5938C16.5625 26.5 16.0885 27.3125 15.4531 28.0312C14.8177 28.7396 14.0208 29.2969 13.0625 29.7031C12.1042 30.1094 10.9688 30.3125 9.65625 30.3125C8.67708 30.3125 7.72917 30.1667 6.8125 29.875C5.90625 29.5833 5.08854 29.151 4.35938 28.5781C3.64062 28.0052 3.0625 27.3125 2.625 26.5C2.19792 25.6771 1.97396 24.7396 1.95312 23.6875H6.42188C6.48438 24.3333 6.65104 24.8906 6.92188 25.3594C7.20312 25.8177 7.57292 26.1719 8.03125 26.4219C8.48958 26.6719 9.02604 26.7969 9.64062 26.7969C10.2135 26.7969 10.7031 26.6875 11.1094 26.4688C11.5156 26.25 11.8438 25.9479 12.0938 25.5625C12.3438 25.1667 12.526 24.7083 12.6406 24.1875C12.7656 23.6562 12.8281 23.0833 12.8281 22.4688C12.8281 21.8542 12.7552 21.2969 12.6094 20.7969C12.4635 20.2969 12.2396 19.8646 11.9375 19.5C11.6354 19.1354 11.25 18.8542 10.7812 18.6562C10.3229 18.4583 9.78646 18.3594 9.17188 18.3594C8.33854 18.3594 7.69271 18.4896 7.23438 18.75C6.78646 19.0104 6.41146 19.3073 6.10938 19.6406Z" fill="#1D36AE"/>
<rect width="30" height="30" transform="translate(100 100)" fill="#B52736"/>
<path d="M115 106.25V123.75" stroke="white" stroke-width="3" stroke-linecap="round" stroke-linejoin="round"/>
<path d="M123.75 115L115 123.75L106.25 115" stroke="white" stroke-width="3" stroke-linecap="round" stroke-linejoin="round"/>
</g>
<defs>
<clipPath id="clip0_39_1124">
<rect width="130" height="130" fill="white"/>
</clipPath>
</defs>
</svg>
