<svg width="133" height="131" viewBox="0 0 133 131" fill="none" xmlns="http://www.w3.org/2000/svg">
<path d="M114.678 52.2534C116.798 58.8204 116.074 65.6282 113.189 71.326C110.304 77.0252 105.258 81.6171 98.7341 83.7506L98.1113 81.8225L98.23 82.1901L98.734 83.7506L98.7337 83.7507L98.7349 83.7544C98.6914 83.7686 98.6478 83.7811 98.604 83.7922C92.12 85.874 85.4087 85.1361 79.7855 82.2523C74.1611 79.3678 69.6225 74.3362 67.4847 67.8332C67.4494 67.7452 67.4209 67.6561 67.3986 67.5663C65.3324 61.0417 66.0658 54.2885 68.9302 48.6301C71.7959 42.969 76.7945 38.4009 83.255 36.249C83.3425 36.2135 83.4313 36.1847 83.5207 36.1622C90.003 34.0825 96.7123 34.8206 102.334 37.7038C107.996 40.6075 112.558 45.687 114.678 52.2534ZM109.595 69.4852C112.013 64.7082 112.621 59.0046 110.847 53.5071C109.072 48.0092 105.25 43.7552 100.505 41.3219C95.7897 38.9036 90.1654 38.2839 84.7363 40.0279C84.702 40.0413 84.6672 40.0538 84.6317 40.0654L84.6305 40.0618C79.1686 41.8483 74.9423 45.6953 72.5249 50.4709C70.1234 55.2148 69.5072 60.8722 71.2366 66.3341C71.2655 66.4082 71.2902 66.4844 71.3104 66.5624C73.1009 72.0051 76.9026 76.2176 81.6144 78.634C86.3276 81.0511 91.9485 81.6713 97.375 79.9305C97.4484 79.9015 97.524 79.8768 97.6014 79.8565C103.009 78.0543 107.194 74.2278 109.595 69.4851L109.595 69.4852Z" fill="#0E6DD1"/>
<path d="M67.4699 17.7273C74.3283 17.7273 80.5377 20.5257 85.0326 25.0498C89.5273 29.5738 92.3075 35.824 92.3075 42.7272C92.3075 49.6304 89.5273 55.8805 85.0326 60.4047C80.5378 64.9287 74.3284 67.7272 67.4699 67.7272C60.6115 67.7272 54.4021 64.9287 49.9072 60.4047C45.4126 55.8805 42.6323 49.6305 42.6323 42.7272C42.6323 35.824 45.4126 29.5739 49.9072 25.0498C54.4021 20.5257 60.6115 17.7273 67.4699 17.7273ZM82.1789 27.9221C78.4147 24.1334 73.2142 21.7899 67.4699 21.7899C61.7256 21.7899 56.5251 24.1334 52.761 27.9221C48.9968 31.7109 46.6686 36.9454 46.6686 42.7272C46.6686 48.5091 48.9968 53.7436 52.761 57.5323C56.5251 61.321 61.7256 63.6645 67.4699 63.6645C73.2142 63.6645 78.4147 61.321 82.1789 57.5323C85.943 53.7436 88.2713 48.509 88.2713 42.7272C88.2713 36.9454 85.943 31.7109 82.1789 27.9221Z" fill="#FFB200"/>
<path d="M96.5438 108.188C91.0202 112.185 84.4064 113.571 78.1641 112.576C71.8848 111.575 65.9858 108.164 61.956 102.581C57.9282 97.0011 56.5295 90.3012 57.5241 83.98C58.5186 77.6596 61.9072 71.7221 67.4538 67.666C72.9976 63.6119 79.6541 62.204 85.9342 63.2051C92.1755 64.2001 98.0406 67.5761 102.069 73.0987C102.122 73.1638 102.171 73.2314 102.215 73.3011C106.187 78.8609 107.563 85.5178 106.574 91.8009C105.586 98.083 102.232 103.986 96.745 108.04C96.6803 108.094 96.6131 108.143 96.5438 108.188ZM78.7947 108.577C84.0212 109.41 89.5651 108.245 94.2012 104.887C94.2256 104.867 94.2505 104.848 94.276 104.829L94.2778 104.831L94.2796 104.83L95.3649 106.337L95.4622 106.472L94.2798 104.83C98.9289 101.43 101.769 96.4572 102.601 91.1661C103.429 85.9055 102.271 80.3255 98.935 75.6591C98.9155 75.6345 98.8964 75.6094 98.8778 75.5837L98.8801 75.582L98.8788 75.5801L100.376 74.4878L100.51 74.3898L98.8786 75.58C95.5008 70.9004 90.5603 68.0421 85.3036 67.2041C80.0476 66.3662 74.4706 67.549 69.8186 70.9509C65.1694 74.3509 62.3296 79.3236 61.4971 84.6146C60.6646 89.9049 61.8398 95.5184 65.2196 100.201C68.5974 104.88 73.538 107.739 78.7947 108.577Z" fill="#00B971"/>
<path d="M40.5801 104.771C40.6351 104.807 40.6887 104.846 40.7407 104.888C45.3764 108.245 50.9194 109.41 56.1451 108.577C61.3715 107.744 66.2851 104.913 69.6613 100.282C69.6972 100.226 69.7359 100.173 69.7777 100.12C73.113 95.4541 74.2704 89.8748 73.4427 84.6148C72.6149 79.3542 69.8028 74.4087 65.2013 71.0103C65.1465 70.9743 65.0931 70.9353 65.0412 70.8934C60.4053 67.536 54.8622 66.3711 49.6362 67.2042C44.4098 68.0374 39.4963 70.8679 36.12 75.4996C36.0842 75.5548 36.0453 75.6086 36.0036 75.6609C32.6683 80.327 31.511 85.9063 32.3387 91.1662C33.1665 96.4268 35.9786 101.372 40.5801 104.771ZM38.2952 108.115L38.2934 108.113L38.2917 108.116C38.259 108.092 38.2274 108.067 38.1965 108.042C32.7088 103.987 29.3543 98.0836 28.3657 91.8009C27.3711 85.4798 28.7697 78.78 32.7974 73.1999L34.4292 74.3901L34.2952 74.2921L32.7976 73.1997L32.7989 73.1979L32.7966 73.1961C32.8203 73.1633 32.8449 73.1315 32.8701 73.1006C36.8979 67.5768 42.7637 64.2002 49.0056 63.2052C55.2859 62.2041 61.9423 63.6119 67.4861 67.666L66.3037 69.3085L66.3523 69.2411L67.4862 67.6661L67.4881 67.6676L67.4899 67.6652C67.5224 67.689 67.554 67.7137 67.5847 67.7391C73.0726 71.7933 76.4271 77.6973 77.4157 83.9801C78.4104 90.3013 77.0117 97.0013 72.9839 102.581L71.3521 101.391L71.4861 101.489L72.9837 102.581L72.9824 102.583L72.9847 102.585C72.961 102.618 72.9365 102.65 72.9112 102.681C68.8833 108.204 63.0176 111.581 56.7757 112.576C50.4955 113.577 43.8392 112.169 38.2954 108.115L39.4778 106.473L39.3318 106.675L38.2951 108.115L38.2952 108.115Z" fill="#0E6DD1"/>
<path d="M20.262 52.2535C22.3816 45.6871 26.9438 40.6077 32.6059 37.7039C38.2666 34.8008 45.0301 34.0719 51.5543 36.2055L51.5554 36.2019C51.5987 36.2161 51.641 36.2316 51.6827 36.2484C58.1443 38.3999 63.1438 42.9685 66.0099 48.6301C68.8941 54.3279 69.6183 61.1354 67.4986 67.7022L67.5021 67.7033C67.4881 67.7468 67.4726 67.7895 67.456 67.8315C65.3184 74.3354 60.7795 79.3676 55.1544 82.2523C49.4935 85.1556 42.73 85.8844 36.2059 83.7507C29.682 81.6172 24.6356 77.0253 21.7506 71.3261C18.8663 65.6282 18.1422 58.8204 20.262 52.2535L20.262 52.2535ZM34.4348 41.3221C29.6901 43.7554 25.8679 48.0094 24.0933 53.5073C22.3186 59.0046 22.9271 64.7082 25.3453 69.4853C27.7628 74.261 31.9893 78.1082 37.4514 79.8945C42.9131 81.6807 48.5796 81.0682 53.3256 78.6343C58.038 76.2175 61.8402 72.0042 63.6304 66.5606C63.6496 66.4872 63.6731 66.4143 63.7009 66.3422C65.4334 60.8778 64.8178 55.2172 62.4153 50.4711C60.0142 45.7279 55.8284 41.9009 50.42 40.099C50.3471 40.0797 50.2747 40.056 50.2031 40.028C44.7741 38.2841 39.1501 38.9038 34.4348 41.3221Z" fill="#00B971"/>
<path d="M12.6562 7.20312V30H8.15625V12.3906L2.75 14.1094V10.5625L12.1719 7.20312H12.6562ZM35.5156 7.25V9.67188L26.7188 30H21.9688L30.7656 10.7656H19.4375V7.25H35.5156Z" fill="#00B971"/>
<rect width="30" height="30" transform="translate(101 131) rotate(-90)" fill="#E66A27"/>
<path d="M107.25 116L124.75 116" stroke="white" stroke-width="3" stroke-linecap="round" stroke-linejoin="round"/>
<path d="M116 107.25L124.75 116L116 124.75" stroke="white" stroke-width="3" stroke-linecap="round" stroke-linejoin="round"/>
</svg>
