<svg width="130" height="130" viewBox="0 0 130 130" fill="none" xmlns="http://www.w3.org/2000/svg">
<g clip-path="url(#clip0_71_1091)">
<path d="M109.336 72C105.858 66.5813 101.226 62.2057 95.872 58.8596C87.0544 53.3485 76.2947 50.6266 65.4918 50.6252C54.6753 50.6239 43.8355 53.3464 34.8733 58.7238C29.2419 62.1026 24.3564 66.5343 20.6966 72.0001C24.3562 77.4657 29.2419 81.8975 34.8733 85.2763C43.8355 90.6536 54.6753 93.3761 65.4918 93.3748C76.2946 93.3735 87.0544 90.6516 95.872 85.1405C101.226 81.7943 105.858 77.4186 109.336 72ZM98.0144 55.4159C104.181 59.2698 109.481 64.3939 113.365 70.8095C113.827 71.4484 113.892 72.3265 113.461 73.0451L113.455 73.0417C109.564 79.5271 104.228 84.7004 98.0143 88.5841C88.5509 94.4988 77.0339 97.4201 65.4917 97.4215C53.9634 97.4229 42.3888 94.5083 32.7943 88.7517C26.2983 84.8541 20.7051 79.6586 16.6327 73.1872C16.1653 72.5375 16.1085 71.6439 16.5588 70.9234L16.5618 70.9252C20.64 64.4014 26.2607 59.1684 32.7943 55.2483C42.3887 49.4917 53.9634 46.5771 65.4917 46.5785C77.0339 46.5799 88.551 49.5011 98.0144 55.4159Z" fill="#00B971"/>
<path d="M65 52.1953C70.4688 52.1953 75.4201 54.4122 79.004 57.9961C82.5879 61.58 84.8047 66.5313 84.8047 72C84.8047 77.4688 82.5879 82.4201 79.004 86.004C75.4201 89.5879 70.4688 91.8047 65 91.8047C59.5312 91.8047 54.58 89.5879 50.9961 86.004C47.4122 82.4201 45.1953 77.4688 45.1953 72C45.1953 66.5312 47.4122 61.58 50.9961 57.9961C54.58 54.4122 59.5313 52.1953 65 52.1953ZM76.8497 60.1503C73.8173 57.1179 69.6277 55.2422 65 55.2422C60.3724 55.2422 56.1827 57.1179 53.1503 60.1503C50.1179 63.1827 48.2422 67.3723 48.2422 72C48.2422 76.6277 50.1179 80.8173 53.1503 83.8497C56.1828 86.8821 60.3723 88.7578 65 88.7578C69.6277 88.7578 73.8173 86.8821 76.8497 83.8497C79.8821 80.8173 81.7578 76.6277 81.7578 72C81.7578 67.3723 79.8821 63.1827 76.8497 60.1503Z" fill="#00B971"/>
<path d="M65 52.1953C67.7812 52.1953 70.4385 52.776 72.8572 53.8235C75.366 54.9099 77.6018 56.4945 79.4375 58.4503L78.3306 59.4917L79.4414 58.4491C80.0172 59.0625 79.9867 60.0267 79.3733 60.6025L79.3638 60.6112C77.5421 62.5311 75.3327 64.088 72.8573 65.16C70.4385 66.2075 67.7811 66.7882 65 66.7882C62.2189 66.7882 59.5615 66.2075 57.1427 65.16C54.6339 64.0736 52.3981 62.4889 50.5624 60.5331L51.6693 59.4917L50.5585 60.5343C49.9827 59.9209 50.0132 58.9567 50.6267 58.3809L50.6362 58.3722C52.4579 56.4523 54.6674 54.8954 57.1427 53.8235C59.5615 52.776 62.2188 52.1953 65 52.1953ZM71.6551 56.6086C69.6253 55.7295 67.3756 55.2422 65 55.2422C62.6244 55.2422 60.3746 55.7295 58.3448 56.6086C56.6918 57.3244 55.1741 58.3027 53.8435 59.4917C55.1741 60.6807 56.6917 61.6591 58.3448 62.3749C60.3747 63.254 62.6244 63.7413 65 63.7413C67.3755 63.7413 69.6253 63.254 71.6552 62.3749C73.3082 61.6591 74.8258 60.6806 76.1564 59.4917C74.8258 58.3027 73.3082 57.3244 71.6551 56.6086Z" fill="#00B971"/>
<path d="M79.364 85.6271C77.542 87.5473 75.3325 89.1044 72.857 90.1765C70.4382 91.2239 67.7808 91.8046 64.9998 91.8046C62.2188 91.8046 59.5613 91.2239 57.1426 90.1765C54.6338 89.09 52.398 87.5054 50.5623 85.5497L51.6692 84.5083L50.5584 85.5509C49.9826 84.9375 50.0131 83.9732 50.6265 83.3975L50.6361 83.3888C52.4578 81.469 54.6673 79.9119 57.1426 78.84C59.5614 77.7925 62.2187 77.2118 64.9998 77.2118C67.7809 77.2118 70.4382 77.7925 72.857 78.84C75.3657 79.9264 77.6015 81.5112 79.4373 83.4668L78.3304 84.5083L79.4411 83.4656C80.0169 84.079 79.9865 85.0432 79.373 85.619L79.364 85.6271ZM71.6549 87.3914C73.3078 86.6756 74.8254 85.6972 76.1561 84.5083C74.8254 83.3193 73.3078 82.3409 71.6549 81.625C69.6251 80.746 67.3753 80.2587 64.9998 80.2587C62.6243 80.2587 60.3745 80.746 58.3447 81.625C56.6917 82.3409 55.174 83.3193 53.8434 84.5083C55.174 85.6972 56.6917 86.6756 58.3447 87.3914C60.3745 88.2704 62.6244 88.7577 64.9998 88.7577C67.3753 88.7577 69.6251 88.2704 71.6549 87.3914Z" fill="#00B971"/>
<path d="M64.9999 52.1953C68.0314 52.1953 70.6748 54.5759 72.4978 58.4246C74.1568 61.9268 75.1829 66.7288 75.1829 72C75.1829 77.2713 74.1568 82.0733 72.4978 85.5755C70.6748 89.4242 68.0314 91.8048 64.9999 91.8048C61.9685 91.8048 59.325 89.4242 57.502 85.5755C55.843 82.0733 54.8169 77.2713 54.8169 72C54.8169 66.7288 55.843 61.9268 57.502 58.4246C59.3251 54.5759 61.9685 52.1953 64.9999 52.1953ZM69.7485 59.7219C68.4374 56.9542 66.7509 55.2422 64.9999 55.2422C63.249 55.2422 61.5624 56.9542 60.2513 59.722C58.7763 62.8361 57.8638 67.1749 57.8638 72C57.8638 76.8251 58.7763 81.164 60.2513 84.2781C61.5624 87.0459 63.249 88.7579 64.9999 88.7579C66.7509 88.7579 68.4374 87.0459 69.7485 84.2782C71.2235 81.164 72.136 76.8251 72.136 72C72.136 67.175 71.2235 62.8361 69.7485 59.7219Z" fill="#00B971"/>
<path d="M66.5234 53.7188C66.5234 52.8774 65.8413 52.1953 65 52.1953C64.1587 52.1953 63.4766 52.8774 63.4766 53.7188V90.2814C63.4766 91.1227 64.1587 91.8048 65 91.8048C65.8413 91.8048 66.5234 91.1227 66.5234 90.2814V53.7188Z" fill="#00B971"/>
<path d="M83.2813 73.5234C84.1226 73.5234 84.8047 72.8413 84.8047 72C84.8047 71.1587 84.1226 70.4766 83.2813 70.4766H46.7186C45.8773 70.4766 45.1952 71.1587 45.1952 72C45.1952 72.8413 45.8773 73.5234 46.7186 73.5234H83.2813Z" fill="#00B971"/>
<path d="M12.6562 7.20312V30H8.15625V12.3906L2.75 14.1094V10.5625L12.1719 7.20312H12.6562ZM24.6719 16.6719H27.0781C27.849 16.6719 28.4844 16.5417 28.9844 16.2812C29.4844 16.0104 29.8542 15.6354 30.0938 15.1562C30.3438 14.6667 30.4688 14.099 30.4688 13.4531C30.4688 12.8698 30.3542 12.3542 30.125 11.9062C29.9062 11.4479 29.5677 11.0938 29.1094 10.8438C28.651 10.5833 28.0729 10.4531 27.375 10.4531C26.8229 10.4531 26.3125 10.5625 25.8438 10.7812C25.375 11 25 11.3073 24.7188 11.7031C24.4375 12.099 24.2969 12.5781 24.2969 13.1406H19.7812C19.7812 11.8906 20.1146 10.8021 20.7812 9.875C21.4583 8.94792 22.3646 8.22396 23.5 7.70312C24.6354 7.18229 25.8854 6.92188 27.25 6.92188C28.7917 6.92188 30.1406 7.17188 31.2969 7.67188C32.4531 8.16146 33.3542 8.88542 34 9.84375C34.6458 10.8021 34.9688 11.9896 34.9688 13.4062C34.9688 14.125 34.8021 14.8229 34.4688 15.5C34.1354 16.1667 33.6562 16.7708 33.0312 17.3125C32.4167 17.8438 31.6667 18.2708 30.7812 18.5938C29.8958 18.9062 28.901 19.0625 27.7969 19.0625H24.6719V16.6719ZM24.6719 20.0938V17.7656H27.7969C29.0365 17.7656 30.125 17.9062 31.0625 18.1875C32 18.4688 32.7865 18.875 33.4219 19.4062C34.0573 19.9271 34.5365 20.5469 34.8594 21.2656C35.1823 21.974 35.3438 22.7604 35.3438 23.625C35.3438 24.6875 35.1406 25.6354 34.7344 26.4688C34.3281 27.2917 33.7552 27.9896 33.0156 28.5625C32.2865 29.1354 31.4323 29.5729 30.4531 29.875C29.474 30.1667 28.4062 30.3125 27.25 30.3125C26.2917 30.3125 25.349 30.1823 24.4219 29.9219C23.5052 29.651 22.6719 29.25 21.9219 28.7188C21.1823 28.1771 20.5885 27.5 20.1406 26.6875C19.7031 25.8646 19.4844 24.8906 19.4844 23.7656H24C24 24.349 24.1458 24.8698 24.4375 25.3281C24.7292 25.7865 25.1302 26.1458 25.6406 26.4062C26.1615 26.6667 26.7396 26.7969 27.375 26.7969C28.0938 26.7969 28.7083 26.6667 29.2188 26.4062C29.7396 26.1354 30.1354 25.7604 30.4062 25.2812C30.6875 24.7917 30.8281 24.224 30.8281 23.5781C30.8281 22.7448 30.6771 22.0781 30.375 21.5781C30.0729 21.0677 29.6406 20.6927 29.0781 20.4531C28.5156 20.2135 27.849 20.0938 27.0781 20.0938H24.6719Z" fill="#006C42"/>
<rect width="30" height="30" transform="translate(100 100)" fill="#B52736"/>
<path d="M115 106.25V123.75" stroke="white" stroke-width="3" stroke-linecap="round" stroke-linejoin="round"/>
<path d="M123.75 115L115 123.75L106.25 115" stroke="white" stroke-width="3" stroke-linecap="round" stroke-linejoin="round"/>
</g>
<defs>
<clipPath id="clip0_71_1091">
<rect width="130" height="130" fill="white"/>
</clipPath>
</defs>
</svg>
