<svg width="131" height="131" viewBox="0 0 131 131" fill="none" xmlns="http://www.w3.org/2000/svg">
<g clip-path="url(#clip0_39_1070)">
<path d="M38.6067 53.5445C38.6067 52.3301 38.1146 51.2308 37.319 50.4352C36.5235 49.6397 35.4242 49.1476 34.2098 49.1476C32.9954 49.1476 31.8961 49.6397 31.1006 50.4352C30.3051 51.2308 29.8129 52.3301 29.8129 53.5445V72.2009H38.6067V53.5445ZM40.2135 47.5408C41.7501 49.0774 42.7005 51.2002 42.7005 53.5445V73.4258C42.7005 73.5651 42.6934 73.7461 42.6795 73.9667C42.6734 74.0643 42.6626 74.1806 42.6473 74.3149C42.6119 75.4143 41.7096 76.2948 40.6016 76.2948H27.8274C26.8072 76.3008 25.9196 75.5441 25.7875 74.5065L27.818 74.2479L25.7951 74.5038C25.7675 74.2869 25.7489 74.1069 25.7401 73.9663C25.7262 73.7458 25.7191 73.565 25.7191 73.4258V53.5445C25.7191 51.2002 26.6695 49.0774 28.2061 47.5408C29.7427 46.0042 31.8655 45.0537 34.2098 45.0537C36.5541 45.0537 38.6769 46.0042 40.2135 47.5408Z" fill="#0E6DD1"/>
<path d="M30.1723 51.7912C30.6845 50.7844 30.2836 49.5529 29.2768 49.0407C28.2701 48.5285 27.0385 48.9294 26.5263 49.9362L16.5988 69.3897C16.0866 70.3965 16.4876 71.628 17.4943 72.1402C18.5011 72.6525 19.7326 72.2515 20.2448 71.2448L30.1723 51.7912Z" fill="#0E6DD1"/>
<path d="M41.887 49.9362C41.3748 48.9294 40.1433 48.5285 39.1365 49.0407C38.1298 49.5529 37.7288 50.7844 38.2411 51.7912L48.1685 71.2448C48.6807 72.2515 49.9122 72.6525 50.919 72.1402C51.9257 71.628 52.3267 70.3965 51.8145 69.3897L41.887 49.9362Z" fill="#0E6DD1"/>
<path d="M32.2648 74.2477C32.2648 73.1173 31.3483 72.2008 30.2179 72.2008C29.0874 72.2008 28.171 73.1173 28.171 74.2477V95.19C28.171 96.3204 29.0874 97.2369 30.2179 97.2369C31.3483 97.2369 32.2648 96.3204 32.2648 95.19V74.2477Z" fill="#0E6DD1"/>
<path d="M40.2486 74.2477C40.2486 73.1173 39.3321 72.2008 38.2016 72.2008C37.0712 72.2008 36.1547 73.1173 36.1547 74.2477V95.19C36.1547 96.3204 37.0712 97.2369 38.2016 97.2369C39.3321 97.2369 40.2486 96.3204 40.2486 95.19V74.2477Z" fill="#0E6DD1"/>
<path d="M34.5293 28.8386C36.5841 28.8386 38.4448 29.6717 39.7917 31.0186C41.1385 32.3653 41.9716 34.226 41.9716 36.281C41.9716 38.3358 41.1385 40.1965 39.7917 41.5433C38.4448 42.8901 36.5841 43.7232 34.5293 43.7232C32.4744 43.7232 30.6139 42.8901 29.267 41.5433C27.9203 40.1965 27.0871 38.3358 27.0871 36.281C27.0871 34.226 27.9203 32.3653 29.267 31.0186C30.6139 29.6717 32.4744 28.8386 34.5293 28.8386ZM36.8972 33.913C36.2914 33.3072 35.4542 32.9325 34.5293 32.9325C33.6044 32.9325 32.7673 33.3072 32.1614 33.913C31.5558 34.5187 31.181 35.356 31.181 36.281C31.181 37.2058 31.5558 38.0431 32.1614 38.6488C32.7673 39.2546 33.6044 39.6294 34.5293 39.6294C35.4542 39.6294 36.2914 39.2546 36.8972 38.6488C37.503 38.0431 37.8778 37.2058 37.8778 36.281C37.8778 35.356 37.503 34.5188 36.8972 33.913Z" fill="#0E6DD1"/>
<path d="M88.3016 53.3616C88.3496 51.0899 89.29 49.0372 90.7865 47.5407C92.3231 46.0041 94.4459 45.0536 96.7902 45.0536C99.1345 45.0536 101.257 46.0041 102.794 47.5407C104.29 49.0372 105.231 51.0899 105.279 53.3616L109.493 77.1627L109.495 77.1625C109.518 77.2938 109.528 77.4245 109.526 77.5532C109.525 77.6875 109.518 77.8568 109.505 78.0599C109.496 78.2005 109.478 78.3805 109.45 78.5974L109.236 78.5702L109.235 78.5717L109.458 78.6001C109.326 79.6378 108.438 80.3944 107.418 80.3884H86.1532C85.0452 80.3884 84.1429 79.5079 84.1074 78.4085C84.0922 78.2742 84.0814 78.1579 84.0753 78.0604C84.0614 77.8397 84.0543 77.6587 84.0543 77.5194C84.0543 77.3676 84.071 77.2197 84.1022 77.0774L88.3016 53.3616ZM93.681 50.4351C92.8895 51.2265 92.3985 52.3186 92.3935 53.5255C92.3945 53.6493 92.3843 53.7749 92.362 53.9012L92.3605 53.9009L88.3953 76.2946H105.185L101.235 53.9864C101.204 53.844 101.187 53.6961 101.187 53.5443C101.187 52.3299 100.695 51.2306 99.8994 50.4351C99.1039 49.6396 98.0046 49.1475 96.7902 49.1475C95.5758 49.1475 94.4765 49.6396 93.681 50.4351Z" fill="#0E6DD1"/>
<path d="M104.474 49.9362C103.962 48.9294 102.73 48.5285 101.723 49.0407C100.716 49.5529 100.316 50.7844 100.828 51.7912L110.755 71.2448C111.267 72.2515 112.499 72.6525 113.506 72.1402C114.512 71.628 114.913 70.3965 114.401 69.3897L104.474 49.9362Z" fill="#0E6DD1"/>
<path d="M92.7593 51.7912C93.2715 50.7844 92.8706 49.5529 91.8638 49.0407C90.857 48.5285 89.6255 48.9294 89.1133 49.9362L79.1859 69.3897C78.6737 70.3965 79.0746 71.628 80.0814 72.1402C81.0881 72.6525 82.3196 72.2515 82.8319 71.2448L92.7593 51.7912Z" fill="#0E6DD1"/>
<path d="M102.829 78.3415C102.829 77.211 101.913 76.2946 100.782 76.2946C99.6519 76.2946 98.7354 77.211 98.7354 78.3415V95.1899C98.7354 96.3203 99.6519 97.2368 100.782 97.2368C101.913 97.2368 102.829 96.3203 102.829 95.1899V78.3415Z" fill="#0E6DD1"/>
<path d="M94.8452 78.3415C94.8452 77.211 93.9287 76.2946 92.7983 76.2946C91.6678 76.2946 90.7513 77.211 90.7513 78.3415V95.1899C90.7513 96.3203 91.6678 97.2368 92.7983 97.2368C93.9287 97.2368 94.8452 96.3203 94.8452 95.1899V78.3415Z" fill="#0E6DD1"/>
<path d="M96.4705 32.9325C95.5456 32.9325 94.7083 33.3073 94.1026 33.913C93.4968 34.5188 93.122 35.356 93.122 36.281C93.122 37.2058 93.4968 38.0431 94.1026 38.6489C94.7083 39.2546 95.5456 39.6294 96.4705 39.6294C97.3954 39.6294 98.2326 39.2546 98.8383 38.6488C99.4441 38.0431 99.8189 37.2058 99.8189 36.281C99.8189 35.3561 99.4441 34.5188 98.8384 33.913C98.2326 33.3072 97.3954 32.9325 96.4705 32.9325ZM91.2082 31.0186C92.5549 29.6717 94.4155 28.8386 96.4705 28.8386C98.5254 28.8386 100.386 29.6717 101.733 31.0186C103.08 32.3655 103.913 34.2261 103.913 36.281C103.913 38.3358 103.08 40.1965 101.733 41.5433C100.386 42.8901 98.5255 43.7232 96.4705 43.7232C94.4156 43.7232 92.5549 42.8901 91.2082 41.5433C89.8613 40.1964 89.0282 38.3358 89.0282 36.281C89.0282 34.2259 89.8613 32.3653 91.2082 31.0186Z" fill="#0E6DD1"/>
<path d="M51.5307 72.4543C51.587 71.6098 50.9479 70.8794 50.1034 70.8232C49.259 70.7669 48.5286 71.4059 48.4723 72.2504C48.4709 72.2723 47.8531 79.8784 55.3376 80.502C56.1821 80.5715 56.9232 79.9433 56.9927 79.0988C57.0622 78.2543 56.4339 77.5132 55.5894 77.4436C51.1571 77.0744 51.5298 72.4675 51.5307 72.4543Z" fill="#0E6DD1"/>
<path d="M58.7298 80.556C58.7298 80.2457 58.6039 79.9646 58.4007 79.7613C58.1975 79.5581 57.9164 79.4323 57.6059 79.4323C57.2955 79.4323 57.0145 79.558 56.8111 79.7613C56.6079 79.9646 56.4821 80.2456 56.4821 80.556V86.728H58.7298L58.7298 80.556ZM60.5715 77.5905C61.3305 78.3495 61.8001 79.3981 61.8001 80.556V88.2632C61.8001 89.111 61.1128 89.7983 60.2649 89.7983H54.9469C54.0991 89.7983 53.4117 89.111 53.4117 88.2632V80.556C53.4117 79.3981 53.8814 78.3495 54.6403 77.5905C55.3993 76.8314 56.448 76.3619 57.6059 76.3619C58.7639 76.3619 59.8126 76.8315 60.5715 77.5905Z" fill="#0E6DD1"/>
<path d="M56.9686 89.151C56.9686 88.3032 56.2813 87.6158 55.4335 87.6158C54.5857 87.6158 53.8983 88.3032 53.8983 89.151V96.0209C53.8983 96.8687 54.5857 97.556 55.4335 97.556C56.2813 97.556 56.9686 96.8687 56.9686 96.0209V89.151Z" fill="#0E6DD1"/>
<path d="M61.3134 89.151C61.3134 88.3032 60.6261 87.6158 59.7783 87.6158C58.9305 87.6158 58.2431 88.3032 58.2431 89.151V96.021C58.2431 96.8688 58.9305 97.5561 59.7783 97.5561C60.6261 97.5561 61.3134 96.8688 61.3134 96.021V89.151Z" fill="#0E6DD1"/>
<path d="M57.4196 67.6831C58.5803 67.6831 59.6315 68.1538 60.3922 68.9145C61.153 69.6753 61.6236 70.7264 61.6236 71.887C61.6236 73.0477 61.153 74.0989 60.3922 74.8596C59.6314 75.6204 58.5803 76.091 57.4196 76.091C56.259 76.091 55.2079 75.6204 54.4471 74.8596C53.6864 74.0989 53.2157 73.0477 53.2157 71.887C53.2157 70.7264 53.6864 69.6753 54.4471 68.9145C55.2079 68.1538 56.259 67.6831 57.4196 67.6831ZM58.2214 71.0853C58.0164 70.8803 57.7328 70.7534 57.4196 70.7534C57.1065 70.7534 56.8229 70.8803 56.6179 71.0853C56.4129 71.2903 56.286 71.5738 56.286 71.887C56.286 72.2002 56.4129 72.4838 56.6179 72.6888C56.8229 72.8938 57.1065 73.0207 57.4196 73.0207C57.7328 73.0207 58.0163 72.8938 58.2214 72.6888C58.4264 72.4837 58.5533 72.2002 58.5533 71.887C58.5533 71.5739 58.4264 71.2903 58.2214 71.0853Z" fill="#0E6DD1"/>
<path d="M63.6484 84.3735C63.5689 85.2146 64.1864 85.961 65.0276 86.0405C65.8688 86.12 66.6152 85.5025 66.6947 84.6613C66.6967 84.6392 67.5228 76.964 57.9731 76.3677C57.1286 76.318 56.4035 76.9624 56.3539 77.8069C56.3042 78.6514 56.9486 79.3764 57.7931 79.426C64.1456 79.8227 63.6496 84.3605 63.6484 84.3735Z" fill="#0E6DD1"/>
<path d="M63.993 84.6613C64.0725 85.5025 64.8189 86.12 65.6601 86.0405C66.5013 85.961 67.1188 85.2146 67.0393 84.3735C67.0381 84.3605 66.5422 79.8227 72.8947 79.4261C73.7392 79.3764 74.3835 78.6514 74.3339 77.8069C74.2843 76.9624 73.5592 76.318 72.7147 76.3677C63.165 76.964 63.991 84.6392 63.993 84.6613Z" fill="#0E6DD1"/>
<path d="M82.2153 72.2508C82.159 71.4063 81.4287 70.7672 80.5842 70.8235C79.7397 70.8798 79.1006 71.6101 79.1569 72.4546C79.1578 72.4678 79.5306 77.0748 75.0982 77.444C74.2537 77.5135 73.6254 78.2547 73.695 79.0992C73.7645 79.9437 74.5056 80.5719 75.3501 80.5024C82.8344 79.8788 82.2167 72.2726 82.2153 72.2508Z" fill="#0E6DD1"/>
<path d="M74.2012 80.556C74.2012 80.2457 74.0753 79.9646 73.8721 79.7613C73.6689 79.5581 73.3877 79.4323 73.0773 79.4323C72.7669 79.4323 72.4857 79.5581 72.2825 79.7613C72.0793 79.9646 71.9534 80.2457 71.9534 80.556V86.728H74.2012V80.556ZM76.0429 77.5905C76.8019 78.3495 77.2715 79.3981 77.2715 80.556V88.2632C77.2715 89.111 76.5841 89.7983 75.7363 89.7983H70.4183C69.5705 89.7983 68.8831 89.111 68.8831 88.2632V80.556C68.8831 79.3981 69.3527 78.3495 70.1117 77.5905C70.8707 76.8315 71.9194 76.3619 73.0773 76.3619C74.2352 76.3619 75.2839 76.8315 76.0429 77.5905Z" fill="#0E6DD1"/>
<path d="M72.4402 89.151C72.4402 88.3032 71.7528 87.6158 70.905 87.6158C70.0572 87.6158 69.3699 88.3032 69.3699 89.151V96.0209C69.3699 96.8687 70.0572 97.556 70.905 97.556C71.7528 97.556 72.4402 96.8687 72.4402 96.0209V89.151Z" fill="#0E6DD1"/>
<path d="M76.7847 89.151C76.7847 88.3032 76.0974 87.6158 75.2496 87.6158C74.4018 87.6158 73.7144 88.3032 73.7144 89.151V96.021C73.7144 96.8688 74.4018 97.5561 75.2496 97.5561C76.0974 97.5561 76.7847 96.8688 76.7847 96.021V89.151Z" fill="#0E6DD1"/>
<path d="M72.8912 67.6831C74.052 67.6831 75.103 68.1538 75.8638 68.9145C76.6246 69.6753 77.0953 70.7264 77.0953 71.887C77.0953 73.0477 76.6246 74.0989 75.8638 74.8596C75.103 75.6204 74.0518 76.091 72.8912 76.091C71.7305 76.091 70.6794 75.6204 69.9186 74.8596C69.1579 74.0989 68.6873 73.0477 68.6873 71.887C68.6873 70.7264 69.1579 69.6753 69.9186 68.9145C70.6795 68.1538 71.7305 67.6831 72.8912 67.6831ZM73.693 71.0853C73.4879 70.8803 73.2044 70.7534 72.8912 70.7534C72.578 70.7534 72.2945 70.8803 72.0895 71.0853C71.8845 71.2903 71.7576 71.5738 71.7576 71.887C71.7576 72.2002 71.8845 72.4838 72.0895 72.6888C72.2945 72.8938 72.578 73.0207 72.8912 73.0207C73.2043 73.0207 73.4879 72.8938 73.693 72.6888C73.898 72.4837 74.0249 72.2002 74.0249 71.887C74.0249 71.5739 73.898 71.2903 73.693 71.0853Z" fill="#0E6DD1"/>
<path d="M12.8438 7.20312V30H8.34375V12.3906L2.9375 14.1094V10.5625L12.3594 7.20312H12.8438Z" fill="#1D36AE"/>
<rect width="30" height="30" transform="translate(101 130) rotate(-90)" fill="#E66A27"/>
<path d="M107.25 115L124.75 115" stroke="white" stroke-width="3" stroke-linecap="round" stroke-linejoin="round"/>
<path d="M116 106.25L124.75 115L116 123.75" stroke="white" stroke-width="3" stroke-linecap="round" stroke-linejoin="round"/>
</g>
<defs>
<clipPath id="clip0_39_1070">
<rect width="131" height="131" fill="white"/>
</clipPath>
</defs>
</svg>
