<svg width="130" height="130" viewBox="0 0 130 130" fill="none" xmlns="http://www.w3.org/2000/svg">
<g clip-path="url(#clip0_39_1054)">
<path d="M64.4455 57.7927C65.4363 57.9089 70.9345 58.8301 71.5804 65.0189L71.5853 65.0184C71.6925 66.0483 70.9444 66.9702 69.9145 67.0774C69.7857 67.0909 69.6586 67.0909 69.5346 67.0787C68.774 67.0844 64.8093 67.3318 63.5918 71.8364L61.7827 71.353L63.5928 71.8422C63.5035 72.1726 63.3312 72.4583 63.1046 72.6831C62.4018 73.5059 59.1515 77.0011 54.5137 77.18C53.7415 80.0796 52.2677 82.2788 50.4146 83.8761C47.8102 86.1212 44.485 87.1365 41.3286 87.22L41.3288 87.2268C40.7929 87.2408 40.3037 87.0285 39.9526 86.6768L31.5689 79.1314L31.5671 79.1335C30.9043 78.537 30.7659 77.5749 31.1828 76.8277C31.2101 76.7764 31.2396 76.7269 31.2709 76.6791L31.2839 76.6551C32.5027 73.9548 35.9509 73.5097 39.4566 73.0579C41.0629 72.8509 42.6845 72.6419 43.8479 72.2198C44.5292 71.9728 45.01 71.5809 45.0756 70.897C32.256 69.7055 26.7557 61.4079 24.838 52.8862C23.8141 48.3368 23.8421 43.7287 24.3175 40.1693C24.8529 36.1618 26.1944 33.1875 27.4268 32.6073C28.3949 32.1513 29.2887 32.2994 30.0634 33.1241C30.5286 33.6194 31.4619 34.8502 32.7581 36.5596C37.6158 42.9664 47.865 56.4837 55.678 60.3901C58.5501 61.8262 61.0258 61.7246 62.483 58.8101L62.4759 58.8066C62.8506 58.0571 63.6597 57.6683 64.4455 57.7927ZM67.3291 63.6215C66.7438 62.5555 65.8148 62.0253 65.0888 61.7634C62.3975 65.8715 58.4508 65.9514 54.0081 63.73C45.4192 59.4356 34.8119 45.446 29.7845 38.8154C29.3393 38.2283 28.9404 37.7023 28.5952 37.252C28.4145 38.064 28.2134 39.2319 28.0236 40.6528C27.5958 43.855 27.569 47.9935 28.4855 52.0659C30.1491 59.4583 35.0311 66.6503 46.6057 67.2597C47.3875 67.2427 48.1276 67.7197 48.409 68.4955L46.6464 69.1348L48.4042 68.4976C49.9124 72.6559 48.1561 74.6353 45.1224 75.7355C43.5887 76.2919 41.7483 76.5291 39.9254 76.764C38.18 76.9889 36.4552 77.2114 35.4756 77.61L41.9586 83.4446C44.0981 83.2634 46.2649 82.5173 47.9683 81.049C49.5087 79.7211 50.6891 77.7739 51.1495 75.0787C51.1527 75.0406 51.157 75.0025 51.1625 74.9641C51.3115 73.9394 52.263 73.2294 53.2878 73.3783L53.2873 73.3815C56.7126 73.8762 59.3308 71.3089 60.0919 70.4607C61.5231 65.7772 64.9592 64.1692 67.3291 63.6215Z" fill="#0E6DD1"/>
<path d="M42.1989 53.561C42.5346 54.5399 43.6004 55.0613 44.5793 54.7256C45.5582 54.3898 46.0796 53.3241 45.7439 52.3452C44.4468 48.5747 44.0006 44.228 44.7648 40.5049C45.2099 38.3364 46.0693 36.3946 47.4168 34.95C48.7641 38.2113 50.7662 41.5903 52.7407 44.9222C56.8234 51.812 60.7733 58.4777 57.4964 61.727C56.7643 62.4551 56.761 63.639 57.4891 64.3711C58.2172 65.1032 59.401 65.1065 60.1332 64.3784C65.4795 59.077 60.8002 51.1803 55.9633 43.018C53.6067 39.0411 51.2087 34.9941 50.1199 31.4302C50.0783 31.26 50.012 31.0928 49.9196 30.9337C49.3996 30.0382 48.252 29.7339 47.3566 30.2539L47.3588 30.2577C43.9112 32.2607 41.9266 35.7442 41.1027 39.7578C40.2007 44.1524 40.7039 49.2155 42.1989 53.561L42.1989 53.561Z" fill="#0E6DD1"/>
<path d="M34.1187 101.955C33.0832 101.955 32.2437 102.794 32.2437 103.83C32.2437 104.865 33.0832 105.705 34.1187 105.705H85.3651C86.4006 105.705 87.2401 104.865 87.2401 103.83C87.2401 102.794 86.4006 101.955 85.3651 101.955H34.1187Z" fill="#0E6DD1"/>
<path d="M85.5942 93.4133H100.778C101.814 93.4133 102.653 94.2529 102.653 95.2884V112.37C102.653 113.406 101.814 114.246 100.778 114.246H85.5942C84.5586 114.246 83.7191 113.406 83.7191 112.37V95.2884C83.7191 94.2529 84.5586 93.4133 85.5942 93.4133ZM98.9032 97.1634H87.4692V110.495H98.9032V97.1634Z" fill="#0E6DD1"/>
<path d="M83.9034 93.4135H102.47V91.4088H83.9034V93.4135ZM104.345 97.1636H82.0284C80.9929 97.1636 80.1533 96.3241 80.1533 95.2886V89.5337C80.1533 88.4982 80.9929 87.6587 82.0284 87.6587H104.345C105.38 87.6587 106.22 88.4982 106.22 89.5337V95.2886C106.22 96.3241 105.38 97.1636 104.345 97.1636Z" fill="#0E6DD1"/>
<path d="M82.0284 110.495H104.345C105.38 110.495 106.22 111.335 106.22 112.37V118.125C106.22 119.16 105.38 120 104.345 120H82.0284C80.9929 120 80.1533 119.16 80.1533 118.125V112.37C80.1533 111.335 80.9929 110.495 82.0284 110.495ZM102.47 114.245H83.9034V116.25H102.47V114.245Z" fill="#0E6DD1"/>
<path d="M91.7834 47.7956C94.5158 40.0821 97.9327 36.5007 100.704 35.4141C102.982 34.5209 104.93 35.1385 106.056 36.5783C107.118 37.9378 107.37 40.0216 106.347 42.1806C104.954 45.118 101.059 48.3388 93.3177 49.7484L93.3187 49.7539C92.5546 49.8929 91.8224 49.3862 91.6834 48.6221C91.6305 48.3317 91.671 48.0459 91.7834 47.7956ZM101.725 38.0288C99.8374 38.7691 97.4855 41.2231 95.3065 46.4398C100.318 45.1079 102.878 42.9474 103.809 40.9831C104.343 39.8564 104.292 38.8714 103.847 38.3031C103.466 37.815 102.704 37.6452 101.725 38.0288Z" fill="#0E6DD1"/>
<path d="M84.452 55.943C81.9549 50.4528 81.9504 46.7635 82.8832 44.7228C83.7013 42.933 85.1858 42.2031 86.658 42.4091C88.0331 42.6014 89.3395 43.6526 89.9453 45.4471C90.7306 47.7726 90.3242 51.5394 86.9158 56.2898L86.92 56.2929C86.4672 56.9238 85.5885 57.0683 84.9576 56.6155C84.7151 56.4415 84.5445 56.2046 84.452 55.943ZM85.4321 45.8874C84.897 47.0578 84.8816 49.1764 86.0459 52.4391C87.5479 49.6925 87.7249 47.6349 87.2866 46.3369C87.0501 45.6363 86.6537 45.2417 86.2735 45.1886C85.9907 45.149 85.6671 45.3732 85.4321 45.8874Z" fill="#0E6DD1"/>
<path d="M88.8161 55.276C92.0468 56.5118 94.1623 56.5445 95.3432 56.0369C95.8625 55.8136 96.0942 55.4961 96.0612 55.2137C96.0168 54.8332 95.6309 54.4283 94.9348 54.1755C93.6503 53.7089 91.5932 53.8393 88.8161 55.276ZM96.4528 58.6186C94.3832 59.5083 90.675 59.4161 85.2094 56.7666C84.9742 56.6648 84.764 56.4976 84.6087 56.2704C84.1705 55.6293 84.3349 54.7541 84.976 54.3158L85.7697 55.4767L84.9786 54.3177C89.8036 51.019 93.5809 50.6998 95.8907 51.5387C97.67 52.1851 98.6907 53.5153 98.8517 54.8951C99.0243 56.3731 98.2607 57.8415 96.4528 58.6186Z" fill="#0E6DD1"/>
<path d="M76.6057 66.0109C74.1085 60.5207 74.104 56.8313 75.0369 54.7907C75.855 53.0009 77.3395 52.2709 78.8117 52.477C80.1867 52.6693 81.4931 53.7204 82.099 55.515C82.8843 57.8404 82.4779 61.6073 79.0694 66.3577L79.0737 66.3608C78.6209 66.9917 77.7422 67.1361 77.1113 66.6834C76.8688 66.5094 76.6982 66.2725 76.6057 66.0109ZM77.5857 55.9553C77.0507 57.1257 77.0353 59.2442 78.1996 62.507C79.7016 59.7604 79.8786 57.7029 79.4403 56.4048C79.2038 55.7041 78.8074 55.3096 78.4272 55.2565C78.1444 55.2169 77.8208 55.4411 77.5857 55.9553Z" fill="#0E6DD1"/>
<path d="M80.9684 65.3444C84.1992 66.5802 86.3146 66.6129 87.4955 66.1053C88.0149 65.8821 88.2465 65.5646 88.2136 65.2823C88.1691 64.9017 87.7833 64.4968 87.0873 64.244C85.8027 63.7774 83.7455 63.9077 80.9684 65.3444ZM88.6051 68.6871C86.5356 69.5767 82.8273 69.4846 77.3618 66.8351C77.1266 66.7332 76.9164 66.566 76.7611 66.3388C76.3228 65.6977 76.4872 64.8225 77.1284 64.3843L77.922 65.5452L77.131 64.3861C81.956 61.0875 85.7332 60.7682 88.0431 61.6073C89.8224 62.2535 90.843 63.5839 91.0041 64.9637C91.1766 66.4415 90.413 67.91 88.6051 68.6871Z" fill="#0E6DD1"/>
<path d="M68.7934 73.1283C68.2746 73.7016 68.3189 74.5871 68.8923 75.1058C69.4656 75.6246 70.351 75.5803 70.8698 75.0069L94.1055 49.3094C94.6243 48.736 94.58 47.8506 94.0066 47.3318C93.4333 46.8131 92.5479 46.8574 92.0291 47.4307L68.7934 73.1283Z" fill="#0E6DD1"/>
<path d="M12.6562 7.20312V30H8.15625V12.3906L2.75 14.1094V10.5625L12.1719 7.20312H12.6562ZM31.6719 7.01562H32.3281V10.6094H32.0625C30.875 10.6094 29.8177 10.7865 28.8906 11.1406C27.9635 11.4948 27.1771 12 26.5312 12.6562C25.8958 13.3021 25.4062 14.0833 25.0625 15C24.7292 15.9167 24.5625 16.9427 24.5625 18.0781V21.8594C24.5625 22.6719 24.6406 23.3906 24.7969 24.0156C24.9635 24.6302 25.1979 25.1458 25.5 25.5625C25.8125 25.9688 26.1771 26.276 26.5938 26.4844C27.0104 26.6823 27.4792 26.7812 28 26.7812C28.4896 26.7812 28.9323 26.6771 29.3281 26.4688C29.7344 26.2604 30.0781 25.9688 30.3594 25.5938C30.651 25.2083 30.8698 24.7604 31.0156 24.25C31.1719 23.7292 31.25 23.1615 31.25 22.5469C31.25 21.9323 31.1719 21.3646 31.0156 20.8438C30.8698 20.3229 30.651 19.875 30.3594 19.5C30.0677 19.1146 29.7135 18.8177 29.2969 18.6094C28.8802 18.401 28.4115 18.2969 27.8906 18.2969C27.1823 18.2969 26.5573 18.4635 26.0156 18.7969C25.4844 19.1198 25.0677 19.5365 24.7656 20.0469C24.4635 20.5573 24.3021 21.0938 24.2812 21.6562L22.9219 20.7812C22.9531 19.9792 23.1198 19.2188 23.4219 18.5C23.7344 17.7812 24.1615 17.1458 24.7031 16.5938C25.2552 16.0312 25.9167 15.5938 26.6875 15.2812C27.4583 14.9583 28.3281 14.7969 29.2969 14.7969C30.3594 14.7969 31.2917 15 32.0938 15.4062C32.9062 15.8125 33.5833 16.3698 34.125 17.0781C34.6667 17.7865 35.0729 18.6042 35.3438 19.5312C35.6146 20.4583 35.75 21.4479 35.75 22.5C35.75 23.6042 35.5677 24.6302 35.2031 25.5781C34.849 26.526 34.3333 27.3542 33.6562 28.0625C32.9896 28.7708 32.1875 29.3229 31.25 29.7188C30.3125 30.1146 29.2604 30.3125 28.0938 30.3125C26.8854 30.3125 25.7865 30.0938 24.7969 29.6562C23.8177 29.2083 22.974 28.5833 22.2656 27.7812C21.5573 26.9792 21.0104 26.026 20.625 24.9219C20.25 23.8177 20.0625 22.6094 20.0625 21.2969V19.5469C20.0625 17.7135 20.3281 16.0365 20.8594 14.5156C21.401 12.9844 22.1771 11.6615 23.1875 10.5469C24.1979 9.42188 25.4167 8.55208 26.8438 7.9375C28.2708 7.32292 29.8802 7.01562 31.6719 7.01562Z" fill="#1D36AE"/>
<rect width="30" height="30" transform="translate(101 130) rotate(-90)" fill="#E66A27"/>
<path d="M107.25 115L124.75 115" stroke="white" stroke-width="3" stroke-linecap="round" stroke-linejoin="round"/>
<path d="M116 106.25L124.75 115L116 123.75" stroke="white" stroke-width="3" stroke-linecap="round" stroke-linejoin="round"/>
</g>
<defs>
<clipPath id="clip0_39_1054">
<rect width="130" height="130" fill="white"/>
</clipPath>
</defs>
</svg>
