<svg width="180" height="175" viewBox="0 0 180 175" fill="none" xmlns="http://www.w3.org/2000/svg">
<g id="Capa_8" clip-path="url(#clip0_419_441)">
<g id="Group">
<path id="Vector" d="M90 168.892C136.6 168.892 174.375 131.086 174.375 84.446H168.75C168.75 88.7781 166.967 93.0848 163.451 97.2452C159.75 101.625 154.111 105.783 147.147 109.267C141.784 111.953 135.745 114.216 129.136 116.034C130.998 106.796 132.069 96.747 132.179 86.2222C130.253 86.7204 128.365 87.32 126.526 88.0096C126.318 97.7575 125.263 107.21 123.373 116.153C123.275 116.62 123.173 117.079 123.069 117.54C122.608 117.642 122.147 117.746 121.683 117.844C112.748 119.736 103.303 120.794 93.5635 121C92.8744 122.844 92.2753 124.73 91.7775 126.658C102.291 126.548 112.331 125.478 121.565 123.612C119.748 130.23 117.487 136.271 114.803 141.638C111.322 148.608 107.168 154.252 102.791 157.956C98.6344 161.475 94.3313 163.259 90.0028 163.259C85.6744 163.259 81.3713 161.475 77.2144 157.956C72.8381 154.252 68.6841 148.608 65.2022 141.638C62.5191 136.271 60.2578 130.227 58.4409 123.612C67.6716 125.475 77.7122 126.548 88.2281 126.658C87.7303 124.73 87.1313 122.841 86.4422 121C76.7025 120.792 67.2581 119.736 58.3228 117.844C57.8587 117.746 57.3975 117.645 56.9362 117.54C56.835 117.079 56.7309 116.617 56.6325 116.153C54.7425 107.21 53.685 97.7575 53.4797 88.0096C51.6375 87.32 49.7531 86.7204 47.8266 86.2222C47.9362 96.7442 49.005 106.793 50.8697 116.034C44.2575 114.216 38.2219 111.953 32.8584 109.267C25.8947 105.783 20.2556 101.625 16.5544 97.2452C13.0387 93.0848 11.2556 88.7781 11.2556 84.446H5.63062C5.63062 131.086 43.4053 168.892 90.0056 168.892H90ZM127.738 122.216C144.948 117.901 158.799 110.731 166.807 101.943C165.788 106.439 164.374 110.838 162.563 115.122C158.597 124.507 152.918 132.938 145.685 140.178C138.451 147.417 130.028 153.101 120.651 157.07C116.373 158.882 111.974 160.298 107.483 161.317C116.263 153.303 123.427 139.44 127.738 122.216ZM52.2591 122.216C56.5706 139.44 63.7341 153.303 72.5147 161.317C68.0231 160.298 63.6272 158.882 59.3466 157.07C49.9697 153.101 41.5462 147.417 34.3125 140.178C27.0787 132.938 21.4003 124.507 17.4347 115.122C15.6234 110.841 14.2087 106.439 13.1906 101.943C21.1978 110.731 35.0494 117.901 52.2591 122.216Z" fill="#001511"/>
<path id="Vector_2" d="M12.2597 78.8163C13.1316 76.3955 14.5631 73.9972 16.5516 71.6468C20.2528 67.2669 25.8919 63.1093 32.8556 59.6245C38.2191 56.9391 44.2575 54.676 50.8669 52.8576C49.1372 61.4401 48.0881 70.7207 47.8603 80.432C49.7475 80.8739 51.615 81.4003 53.4572 82.0224C53.6034 71.872 54.6694 62.0312 56.6325 52.7393C56.7309 52.2721 56.8322 51.8132 56.9363 51.3516C57.3975 51.2503 57.8588 51.1461 58.3228 51.0476C68.3438 48.928 79.0003 47.8527 90.0028 47.8527C101.005 47.8527 111.662 48.928 121.683 51.0476C122.147 51.1461 122.608 51.2475 123.069 51.3516C123.171 51.8132 123.275 52.2749 123.373 52.7393C125.336 62.0312 126.402 71.872 126.548 82.0224C128.391 81.4031 130.258 80.8739 132.145 80.432C131.918 70.7207 130.871 61.4401 129.139 52.8576C135.751 54.676 141.787 56.9391 147.15 59.6245C154.114 63.1093 159.753 67.2669 163.454 71.6468C165.44 73.9972 166.874 76.3955 167.746 78.8163H174.189C171.29 34.803 134.708 0 90 0C45.2925 0 8.71032 34.803 5.81625 78.8163H12.2597ZM120.651 11.8224C130.028 15.7914 138.451 21.4746 145.685 28.7145C152.918 35.9543 158.597 44.3848 162.562 53.7696C164.374 58.051 165.788 62.4534 166.807 66.9488C158.799 58.1608 144.948 50.9913 127.738 46.6761C123.427 29.452 116.263 15.5887 107.483 7.57481C111.974 8.59379 116.37 10.0097 120.651 11.8224ZM77.2116 10.9358C81.3684 7.41717 85.6716 5.63255 90 5.63255C94.3284 5.63255 98.6316 7.41717 102.788 10.9358C107.165 14.6401 111.319 20.2839 114.801 27.2535C117.484 32.6215 119.745 38.665 121.562 45.2799C111.811 43.3095 101.16 42.223 90 42.223C78.84 42.223 68.1891 43.3095 58.4381 45.2799C60.255 38.6622 62.5163 32.6215 65.1994 27.2535C68.6813 20.2839 72.8353 14.6401 77.2116 10.9358ZM34.3153 28.7173C41.5491 21.4774 49.9725 15.7942 59.3494 11.8253C63.6272 10.0125 68.0259 8.5966 72.5175 7.57762C63.7369 15.5915 56.5734 29.4548 52.2619 46.6789C35.0522 50.9941 21.2006 58.1636 13.1934 66.9516C14.2116 62.4563 15.6263 58.0566 17.4375 53.7724C21.4031 44.3876 27.0816 35.9571 34.3153 28.7173Z" fill="#E6E6E6"/>
</g>
<path id="Vector_3" d="M146.25 84.446C115.183 84.446 90 109.65 90 140.743C90 109.65 64.8169 84.446 33.75 84.446H0V118.224C0 149.317 25.1831 174.522 56.25 174.522H123.75C154.817 174.522 180 149.317 180 118.224V84.446H146.25Z" fill="#CBCBCB"/>
</g>
<defs>
<clipPath id="clip0_419_441">
<rect width="180" height="174.522" fill="white"/>
</clipPath>
</defs>
</svg>
