<svg width="190" height="190" viewBox="0 0 190 190" fill="none" xmlns="http://www.w3.org/2000/svg">
<g id="Capa_8" clip-path="url(#clip0_419_447)">
<path id="Vector" d="M153.362 70.3475C150.176 62.8045 145.616 56.0342 139.808 50.217C134.001 44.403 127.237 39.8367 119.703 36.6447C111.901 33.3387 103.613 31.6635 95.0728 31.6635C86.5324 31.6635 78.2483 33.3387 70.4425 36.6447C62.909 39.8367 56.145 44.403 50.3373 50.217C44.5297 56.031 39.9697 62.8045 36.784 70.3475C33.4843 78.1597 31.8123 86.4532 31.8123 95C31.8123 103.547 33.4843 111.84 36.784 119.652C39.9697 127.195 44.5297 133.966 50.3373 139.783C56.145 145.597 62.909 150.163 70.4425 153.355C78.2452 156.661 86.5324 158.336 95.0728 158.336C103.613 158.336 111.897 156.661 119.703 153.355C127.237 150.163 134.001 145.597 139.808 139.783C145.616 133.969 150.176 127.195 153.362 119.652C156.661 111.84 158.333 103.547 158.333 95C158.333 86.4532 156.661 78.1597 153.362 70.3475Z" fill="#E6E6E6"/>
<path id="Vector_2" d="M95 0C42.5315 0 0 42.5315 0 95C0 147.469 42.5315 190 95 190C147.469 190 190 147.469 190 95C190 42.5315 147.469 0 95 0ZM176.7 129.51C172.235 140.068 165.841 149.552 157.697 157.697C149.552 165.841 140.068 172.235 129.51 176.7C124.694 178.739 119.741 180.332 114.684 181.479C121.59 175.18 127.607 165.664 132.265 153.894C129.384 155.721 126.366 157.333 123.221 158.723C123.12 158.929 123.025 159.138 122.924 159.34C119.003 167.181 114.326 173.53 109.399 177.698C104.718 181.656 99.8735 183.663 95 183.663C90.1265 183.663 85.2815 181.656 80.6012 177.698C75.6738 173.53 70.9967 167.181 67.0763 159.34C66.9623 159.112 66.8515 158.875 66.7407 158.644C63.593 157.238 60.572 155.616 57.6872 153.776C62.3485 165.601 68.3842 175.158 75.3128 181.479C70.2557 180.332 65.3062 178.739 60.4865 176.7C49.9288 172.235 40.4447 165.841 32.3 157.697C24.1553 149.552 17.7618 140.068 13.2968 129.51C11.2575 124.694 9.66467 119.741 8.51833 114.684C14.8548 121.632 24.4435 127.677 36.3058 132.344C34.4787 129.469 32.8668 126.455 31.4703 123.316C31.2012 123.183 30.9225 123.057 30.6565 122.924C22.8158 119.003 16.4667 114.326 12.2993 109.399C8.341 104.718 6.33333 99.8735 6.33333 95C6.33333 90.1265 8.341 85.2815 12.2993 80.6012C16.4667 75.6738 22.8158 70.9967 30.6565 67.0763C30.9225 66.9433 31.2012 66.8135 31.4703 66.6837C32.8668 63.5455 34.4787 60.5308 36.3058 57.6555C24.4435 62.3232 14.8548 68.3683 8.51833 75.316C9.66467 70.2588 11.2575 65.3093 13.2968 60.4897C17.7618 49.932 24.1553 40.4478 32.3 32.3032C40.4447 24.1585 49.9288 17.765 60.4865 13.3C65.303 11.2607 70.2557 9.66783 75.3128 8.5215C68.3842 14.8422 62.3485 24.3992 57.6872 36.2235C60.572 34.3837 63.593 32.7592 66.7407 31.3563C66.8547 31.1252 66.9623 30.8877 67.0763 30.6597C70.9967 22.819 75.6738 16.4698 80.6012 12.3025C85.2815 8.34417 90.1265 6.3365 95 6.3365C99.8735 6.3365 104.718 8.34417 109.399 12.3025C114.326 16.4698 119.003 22.819 122.924 30.6597C123.025 30.8623 123.123 31.0745 123.221 31.2772C126.366 32.6705 129.384 34.2823 132.265 36.1063C127.61 24.3358 121.59 14.82 114.684 8.5215C119.741 9.66783 124.691 11.2607 129.51 13.3C140.068 17.765 149.552 24.1585 157.697 32.3032C165.841 40.4478 172.235 49.932 176.7 60.4897C178.739 65.3062 180.332 70.2588 181.479 75.316C175.177 68.4063 165.658 62.3865 153.881 57.7315C155.705 60.6132 157.317 63.631 158.707 66.7755C158.916 66.88 159.134 66.9782 159.34 67.0827C167.181 71.003 173.53 75.6802 177.698 80.6075C181.656 85.2878 183.663 90.1328 183.663 95.0063C183.663 99.8798 181.656 104.725 177.698 109.405C173.53 114.332 167.181 119.01 159.34 122.93C159.131 123.035 158.916 123.133 158.707 123.237C157.314 126.382 155.705 129.4 153.881 132.281C165.658 127.626 175.177 121.606 181.479 114.697C180.332 119.754 178.739 124.703 176.7 129.523V129.51Z" fill="#E6E6E6"/>
<path id="Vector_3" d="M110.833 107.667C110.833 98.9362 103.731 91.8333 95 91.8333C89.7623 91.8333 85.5 87.571 85.5 82.3333C85.5 77.0957 89.7623 72.8333 95 72.8333H107.667V66.5H98.1667V57H91.8333V66.8198C84.6165 68.2923 79.1667 74.689 79.1667 82.3333C79.1667 91.0638 86.2695 98.1667 95 98.1667C100.238 98.1667 104.5 102.429 104.5 107.667C104.5 112.904 100.238 117.167 95 117.167H82.3333V123.5H91.8333V133H98.1667V123.18C105.384 121.708 110.833 115.311 110.833 107.667Z" fill="#CBCBCB"/>
</g>
<defs>
<clipPath id="clip0_419_447">
<rect width="190" height="190" fill="white"/>
</clipPath>
</defs>
</svg>
