<svg width="180" height="183" viewBox="0 0 180 183" fill="none" xmlns="http://www.w3.org/2000/svg">
<g id="Capa_8" clip-path="url(#clip0_419_423)">
<path id="Vector" d="M24 14.307C33.939 14.307 42 22.368 42 32.307C42 42.246 33.939 50.307 24 50.307C14.061 50.307 6 42.249 6 32.307C6 22.365 14.058 14.307 24 14.307Z" fill="#E6E6E6"/>
<path id="Vector_2" d="M156 14.307C165.939 14.307 174 22.368 174 32.307C174 42.246 165.939 50.307 156 50.307C146.061 50.307 138 42.249 138 32.307C138 22.365 146.058 14.307 156 14.307Z" fill="#E6E6E6"/>
<path id="Vector_3" d="M90 0C102.234 0 112.155 9.921 112.155 22.155C112.155 34.389 102.234 44.31 90 44.31C77.766 44.31 67.845 34.392 67.845 22.155C67.845 9.918 77.763 0 90 0Z" fill="#E6E6E6"/>
<path id="Vector_4" d="M135 92.307H0C0 142.014 40.293 182.307 90 182.307C139.707 182.307 180 142.014 180 92.307H135ZM172.923 98.307C171.993 100.887 170.466 103.443 168.345 105.948C164.397 110.616 158.382 115.047 150.954 118.761C145.233 121.623 138.792 124.035 131.742 125.973C133.485 117.336 134.577 108.033 134.898 98.307H172.923ZM128.898 98.307C128.574 107.919 127.464 117.24 125.592 126.099C125.487 126.597 125.379 127.086 125.268 127.578C124.776 127.686 124.284 127.797 123.789 127.902C113.1 130.161 101.733 131.307 89.997 131.307C78.261 131.307 66.894 130.161 56.205 127.902C55.707 127.797 55.218 127.689 54.726 127.578C54.618 127.086 54.507 126.594 54.402 126.099C52.53 117.243 51.42 107.919 51.096 98.307H128.895H128.898ZM103.641 170.655C99.207 174.405 94.617 176.307 90 176.307C85.383 176.307 80.793 174.405 76.359 170.655C71.691 166.707 67.26 160.692 63.546 153.264C60.684 147.543 58.272 141.102 56.334 134.052C66.735 136.152 78.096 137.31 90 137.31C101.904 137.31 113.265 136.152 123.666 134.052C121.728 141.105 119.316 147.543 116.454 153.264C112.74 160.692 108.309 166.707 103.641 170.655ZM45.102 98.307C45.423 108.033 46.515 117.333 48.258 125.973C41.205 124.035 34.767 121.623 29.046 118.761C21.618 115.047 15.603 110.616 11.655 105.948C9.537 103.443 8.007 100.887 7.077 98.307H45.102ZM57.306 169.707C47.304 165.477 38.319 159.42 30.603 151.704C22.887 143.988 16.83 135.003 12.6 125.001C10.671 120.438 9.165 115.749 8.079 110.961C16.62 120.324 31.395 127.965 49.746 132.561C54.345 150.918 61.986 165.693 71.352 174.234C66.561 173.148 61.872 171.639 57.306 169.707ZM149.397 151.704C141.681 159.42 132.696 165.477 122.694 169.707C118.131 171.639 113.439 173.148 108.648 174.234C118.014 165.693 125.655 150.918 130.254 132.561C148.608 127.965 163.38 120.324 171.921 110.961C170.835 115.749 169.329 120.438 167.4 125.001C163.17 135.003 157.113 143.988 149.397 151.704Z" fill="#E6E6E6"/>
<path id="Vector_5" d="M135 86.307H180V80.307C180 67.053 169.254 56.307 156 56.307C142.746 56.307 132 67.053 132 80.307V86.307H135Z" fill="#CBCBCB"/>
<path id="Vector_6" d="M120 86.307V79.845C120 63.531 106.569 50.307 90 50.307C73.431 50.307 60 63.534 60 79.845V86.307H120Z" fill="#CBCBCB"/>
<path id="Vector_7" d="M48 86.307V80.307C48 67.053 37.254 56.307 24 56.307C10.746 56.307 0 67.053 0 80.307V86.307H48Z" fill="#CBCBCB"/>
</g>
<defs>
<clipPath id="clip0_419_423">
<rect width="180" height="182.307" fill="white"/>
</clipPath>
</defs>
</svg>
