<svg width="56" height="35" viewBox="0 0 56 35" fill="none" xmlns="http://www.w3.org/2000/svg">
<g id="Capa_2" clip-path="url(#clip0_38_582)">
<path id="Vector" d="M51.8 16.8H47.6L40.25 6.29999H28.7V22.4H0V29.4H5.2675C5.2605 29.5155 5.25 29.631 5.25 29.75C5.25 32.648 7.602 35 10.5 35C13.398 35 15.75 32.648 15.75 29.75C15.75 29.631 15.7395 29.5155 15.7325 29.4H39.5675C39.5605 29.5155 39.55 29.631 39.55 29.75C39.55 32.648 41.902 35 44.8 35C47.698 35 50.05 32.648 50.05 29.75C50.05 29.631 50.0395 29.5155 50.0325 29.4H55.3V20.3C55.3 18.368 53.732 16.8 51.8 16.8ZM10.5 32.375C9.051 32.375 7.875 31.199 7.875 29.75C7.875 28.301 9.051 27.125 10.5 27.125C11.949 27.125 13.125 28.301 13.125 29.75C13.125 31.199 11.949 32.375 10.5 32.375ZM32.55 15.4V10.15H38.675L41.65 15.4H32.55ZM44.8 32.375C43.351 32.375 42.175 31.199 42.175 29.75C42.175 28.301 43.351 27.125 44.8 27.125C46.249 27.125 47.425 28.301 47.425 29.75C47.425 31.199 46.249 32.375 44.8 32.375Z" fill="white"/>
<path id="Vector_2" d="M27.475 0H1.22501V21H27.475V0Z" fill="white"/>
</g>
<defs>
<clipPath id="clip0_38_582">
<rect width="55.3" height="35" fill="white"/>
</clipPath>
</defs>
</svg>
