<?xml version="1.0" encoding="UTF-8"?>
<svg id="COLOR" xmlns="http://www.w3.org/2000/svg" viewBox="0 0 800 800">
  <defs>
    <style>
      .cls-1 {
        fill: #00b971;
      }

      .cls-2 {
        fill: #1d1d1b;
      }
    </style>
  </defs>
  <g>
    <path class="cls-1" d="m480,440c0-80-120-200-120-200,0,0-120,120-120,200s60,120,120,120,120-40,120-120Z"/>
    <path class="cls-1" d="m455,240s-15.38,15.38-34.36,38.29c5.02,6.21,10.18,12.81,15.36,19.71,42.47,56.62,64,104.4,64,142,0,29.37-7.15,55.62-20.92,77.5,43.35-9.13,80.92-43.29,80.92-102.5,0-70-105-175-105-175Z"/>
  </g>
  <g>
    <path class="cls-2" d="m439.99,710c-1.5,0-3.03-.34-4.46-1.06l-80-40c-3.39-1.69-5.53-5.16-5.53-8.94s2.14-7.25,5.53-8.94l80-40c4.94-2.47,10.95-.47,13.42,4.47s.47,10.95-4.47,13.42l-62.11,31.06,62.11,31.06c4.94,2.47,6.94,8.48,4.47,13.42-1.75,3.5-5.28,5.53-8.95,5.53Z"/>
    <path class="cls-2" d="m360.01,190c-3.67,0-7.2-2.03-8.95-5.53-2.47-4.94-.47-10.95,4.47-13.42l62.11-31.06-62.11-31.06c-4.94-2.47-6.94-8.48-4.47-13.42,2.47-4.94,8.48-6.94,13.42-4.47l80,40c3.39,1.69,5.53,5.16,5.53,8.94s-2.14,7.25-5.53,8.94l-80,40c-1.44.72-2.96,1.06-4.46,1.06Z"/>
    <g>
      <path class="cls-2" d="m300,650.06c-1.28,0-2.59-.25-3.85-.77-48.6-20.27-89.97-54.08-119.66-97.78-30.42-44.78-46.49-97.17-46.49-151.51,0-72.12,28.08-139.92,79.08-190.92,51-51,118.8-79.08,190.92-79.08,7.46,0,15.01.31,22.42.92,5.5.45,9.6,5.28,9.15,10.79-.45,5.5-5.29,9.6-10.79,9.15-6.87-.57-13.86-.85-20.77-.85-137.85,0-250,112.15-250,250,0,101.25,60.39,191.85,153.85,230.83,5.1,2.13,7.51,7.98,5.38,13.08-1.6,3.84-5.32,6.15-9.23,6.15Z"/>
      <path class="cls-2" d="m400,670c-6.91,0-13.89-.27-20.76-.79-5.51-.42-9.63-5.22-9.21-10.73.42-5.51,5.23-9.64,10.73-9.21,6.36.48,12.84.73,19.24.73,137.85,0,250-112.15,250-250,0-101.25-60.39-191.85-153.85-230.83-5.1-2.13-7.51-7.98-5.38-13.08,2.13-5.1,7.98-7.51,13.08-5.38,48.6,20.27,89.97,54.08,119.66,97.78,30.42,44.78,46.49,97.17,46.49,151.51,0,72.12-28.08,139.92-79.08,190.92s-118.8,79.08-190.92,79.08Z"/>
    </g>
  </g>
</svg>