<svg width="105" height="120" viewBox="0 0 105 120" fill="none" xmlns="http://www.w3.org/2000/svg">
<path d="M83.2208 62.9029C83.2208 49.3553 62.8994 29.034 62.8994 29.034C62.8994 29.034 42.5781 49.3553 42.5781 62.9029C42.5781 76.4504 52.7388 83.2242 62.8994 83.2242C73.0601 83.2242 83.2208 76.4504 83.2208 62.9029Z" fill="#00B971"/>
<path d="M44.5134 92.901C37.9544 92.901 31.8271 90.6657 27.2615 86.6053C22.0883 82.0069 19.3536 75.4847 19.3536 67.7413C19.3536 51.641 42.1735 28.6373 43.1451 27.6657L44.5134 26.2974L45.8817 27.6657C46.8532 28.6373 69.6731 51.6429 69.6731 67.7413C69.6731 75.4847 66.9384 82.0088 61.7652 86.6053C57.1977 90.6657 51.0723 92.901 44.5134 92.901Z" fill="#00B971"/>
<path d="M44.5133 29.034C44.5133 29.034 67.7377 52.2584 67.7377 67.7413C67.7377 83.2242 56.1255 90.9657 44.5133 90.9657C32.9011 90.9657 21.2889 83.2242 21.2889 67.7413C21.2889 52.2584 44.5133 29.034 44.5133 29.034ZM44.5133 23.5608L41.7767 26.2974C41.5309 26.5432 35.7074 32.388 29.8045 40.2591C21.5851 51.2172 17.4182 60.4643 17.4182 67.7413C17.4182 76.0537 20.3774 83.0771 25.9745 88.0529C30.8961 92.4269 37.4802 94.8364 44.5133 94.8364C51.5464 94.8364 58.1305 92.4269 63.0522 88.0529C68.6492 83.0771 71.6084 76.0537 71.6084 67.7413C71.6084 60.4643 67.4416 51.2172 59.2221 40.2591C53.3192 32.388 47.4957 26.5413 47.2499 26.2974L44.5133 23.5608Z" fill="white"/>
<path d="M59.9963 102.578L44.5134 110.319L59.9963 118.061" stroke="#001511" stroke-width="3" stroke-linecap="round" stroke-linejoin="round"/>
<path d="M44.5134 17.4218L59.9963 9.68039L44.5134 1.93893" stroke="#001511" stroke-width="3" stroke-linecap="round" stroke-linejoin="round"/>
<path d="M56.4332 9.85264C55.0552 9.73845 53.6618 9.68039 52.2548 9.68039C24.4649 9.68039 1.9353 32.21 1.9353 59.9998C1.9353 80.9327 14.7184 98.8774 32.9011 106.46" stroke="#001511" stroke-width="3" stroke-miterlimit="10" stroke-linecap="round"/>
<path d="M48.3842 110.172C49.6615 110.269 50.9524 110.319 52.2549 110.319C80.0448 110.319 102.574 87.7897 102.574 59.9998C102.574 39.0669 89.7913 21.1223 71.6085 13.5395" stroke="#001511" stroke-width="3" stroke-miterlimit="10" stroke-linecap="round"/>
<path d="M67.7377 67.7413C67.7377 52.2584 44.5133 29.034 44.5133 29.034C44.5133 29.034 21.2889 52.2584 21.2889 67.7413C21.2889 83.2242 32.9011 90.9656 44.5133 90.9656C56.1255 90.9656 67.7377 83.2242 67.7377 67.7413Z" fill="#00B971"/>
<path d="M62.8994 29.034C62.8994 29.034 59.9228 32.0106 56.2495 36.4445C57.2211 37.6464 58.2197 38.9237 59.2222 40.2591C67.4417 51.2171 71.6086 60.4643 71.6086 67.7413C71.6086 73.4254 70.2248 78.5058 67.5598 82.7403C75.9496 80.9733 83.2207 74.3621 83.2207 62.9029C83.2207 49.3553 62.8994 29.034 62.8994 29.034Z" fill="#00B971"/>
<path d="M59.9945 119.996C59.7042 119.996 59.408 119.93 59.1313 119.791L43.6484 112.05C42.9923 111.722 42.5781 111.051 42.5781 110.319C42.5781 109.588 42.9923 108.916 43.6484 108.589L59.1313 100.848C60.0874 100.37 61.2505 100.757 61.7286 101.713C62.2066 102.669 61.8195 103.832 60.8634 104.31L48.8429 110.321L60.8634 116.332C61.8195 116.811 62.2066 117.974 61.7286 118.93C61.3899 119.607 60.7067 120 59.9964 120L59.9945 119.996Z" fill="#1D1D1B"/>
<path d="M44.5154 19.3572C43.8051 19.3572 43.1219 18.9643 42.7832 18.2869C42.3052 17.3309 42.6923 16.1677 43.6483 15.6897L55.6689 9.67845L43.6483 3.66721C42.6923 3.18918 42.3052 2.02602 42.7832 1.06995C43.2613 0.113885 44.4244 -0.273188 45.3805 0.204847L60.8634 7.9463C61.5195 8.27338 61.9336 8.94495 61.9336 9.67652C61.9336 10.4081 61.5195 11.0797 60.8634 11.4067L45.3805 19.1482C45.1018 19.2875 44.8076 19.3533 44.5173 19.3533L44.5154 19.3572Z" fill="#1D1D1B"/>
<path d="M32.9012 108.396C32.6535 108.396 32.3999 108.347 32.1561 108.247C22.7502 104.324 14.7436 97.7801 8.99751 89.3225C3.11207 80.6579 0 70.5166 0 59.9998C0 46.042 5.4345 32.9202 15.3049 23.0499C25.1752 13.1795 38.297 7.74503 52.2548 7.74503C53.6986 7.74503 55.1598 7.80502 56.5939 7.92308C57.6584 8.01017 58.4519 8.94495 58.3648 10.0113C58.2777 11.0758 57.341 11.8693 56.2765 11.7822C54.9469 11.6719 53.5941 11.6177 52.2568 11.6177C25.5778 11.6177 3.87266 33.3228 3.87266 60.0018C3.87266 79.5973 15.5603 97.1317 33.6482 104.676C34.6353 105.088 35.1017 106.22 34.6895 107.207C34.3798 107.95 33.6598 108.397 32.9031 108.397L32.9012 108.396Z" fill="#1D1D1B"/>
<path d="M52.2547 112.255C50.9174 112.255 49.5665 112.202 48.2369 112.102C47.1705 112.02 46.3731 111.092 46.4544 110.025C46.5357 108.959 47.4666 108.159 48.5311 108.243C49.762 108.336 51.0161 108.384 52.2547 108.384C78.9337 108.384 100.639 86.6788 100.639 59.9999C100.639 40.4043 88.9511 22.8699 70.8632 15.3259C69.8762 14.9136 69.4098 13.7814 69.822 12.7944C70.2342 11.8074 71.3664 11.3409 72.3535 11.7532C81.7593 15.6762 89.7659 22.2196 95.512 30.6772C101.399 39.3437 104.51 49.4831 104.51 59.9999C104.51 73.9577 99.075 87.0795 89.2047 96.9498C79.3343 106.82 66.2126 112.255 52.2547 112.255Z" fill="#1D1D1B"/>
</svg>
