<?xml version="1.0" encoding="UTF-8"?>
<svg id="COLOR" xmlns="http://www.w3.org/2000/svg" viewBox="0 0 800 800">
  <defs>
    <style>
      .cls-1 {
        fill: #fff;
      }

      .cls-2 {
        fill: #fbbf20;
      }

      .cls-3 {
        fill: #1d1d1b;
      }
    </style>
  </defs>
  <path class="cls-3" d="m210,400.22c-.02-.89-.36-3.69-1.64-6.02-1.12-2.03-2.98-4.1-8.36-4.1s-7.24,2.07-8.36,4.1c-1.28,2.32-1.62,5.13-1.64,6.02v-.12s-20,0-20,0c0-12.06,7.99-30,30-30s30,17.94,30,30h-20v.12Z"/>
  <path class="cls-3" d="m680,470.1c-7.34,0-14.04-1.95-20-5.27-5.96,3.33-12.66,5.27-20,5.27-20.11,0-35.71-9.07-43.94-25.53-5.89-11.77-6.06-23.21-6.06-24.47h20-10l10-.06c0,.08.14,8.32,4.2,16.09,4.91,9.4,13.35,13.96,25.8,13.96,1.11,0,2.21-.09,3.28-.28-9.71-12.88-15.08-29.69-15.08-43.62,0-9.75,2.48-18.2,7.17-24.46,3.98-5.31,11.49-11.64,24.63-11.64s20.65,6.33,24.63,11.64c4.69,6.26,7.17,14.71,7.17,24.46,0,13.93-5.38,30.74-15.08,43.62,1.07.18,2.17.28,3.28.28,22.63,0,29.53-6.91,30.02-10.56-.05.35-.02.56-.02.56h20c0,1.23-.57,30-50,30Zm-20-80c-5.29,0-7.46,2.08-8.63,3.64-2.05,2.73-3.17,7.15-3.17,12.46,0,10.22,4.47,23.31,11.8,32.52,7.34-9.21,11.8-22.3,11.8-32.52,0-5.31-1.13-9.73-3.17-12.46-1.17-1.56-3.34-3.64-8.63-3.64Z"/>
  <g>
    <path class="cls-2" d="m405.87,90.96c-60.14-7.94-115.51,34.54-123.44,94.68-3.14,23.82,1.42,47.44,13.18,68.31l8.71-4.91,158.64,20.92,7.14,7c16.77-17.11,27.3-38.75,30.44-62.56,7.93-60.13-34.54-115.51-94.67-123.44Z"/>
    <path class="cls-3" d="m536.46,257.16c-6.76-6.19-13.84-11.98-21.2-17.36-2.11,6.62-4.75,13.04-7.89,19.2,50.47,38.55,82.63,96.45,82.63,161.09,0,52.39-21.26,102.56-59.87,141.29l-1.66,1.67-35.68,107.04h-62.79v-49.57l-12.3,2.9c-18.75,4.42-38.16,6.66-57.7,6.66s-38.96-2.24-57.7-6.66l-12.3-2.9v49.57h-62.79l-35.68-107.04-1.66-1.67c-23.94-24.01-41.66-53.14-51.26-84.24l-2.18-7.05h-46.43v-60h40.06l.89-9.02c2.2-22.35,8.28-44.11,18.08-64.67l.97-2.04v-104.27h-25.86l37.83-37.83,30.95,15.47,27.22,45.37,8.66-5.5c11.41-7.25,23.42-13.49,35.89-18.68-1.53-6.7-2.52-13.51-2.96-20.39-12.04,4.74-23.7,10.37-34.89,16.87l-19.77-32.95-49.05-24.53-82.17,82.17h54.14v79.77c-8.94,19.26-14.93,39.47-17.87,60.23h-42.13v100h51.81c10.7,30.8,28.64,59.58,52.22,83.72l38.76,116.28h97.21v-44.6c32.77,6.12,67.23,6.12,100,0v44.6h97.21l38.76-116.28c41.31-42.27,64.03-96.77,64.03-153.72,0-61.6-26.12-119.47-73.54-162.94Z"/>
  </g>
  <g>
    <path class="cls-1" d="m262.06,263.64c24.22-20.66,71.69-30.89,124.2-23.97,52.51,6.92,95.7,29.11,113.74,55.35"/>
    <path class="cls-3" d="m491.76,300.68c-17-24.73-58.93-44.78-106.81-51.1-47.88-6.31-93.57,2.19-116.4,21.66l-12.98-15.22c27.36-23.34,77.94-33.4,132-26.27,54.06,7.13,100.3,29.96,120.67,59.59l-16.48,11.33Z"/>
  </g>
</svg>