<?xml version="1.0" encoding="UTF-8"?>
<svg id="COLOR" xmlns="http://www.w3.org/2000/svg" viewBox="0 0 800 800">
  <defs>
    <style>
      .cls-1 {
        fill: #fff;
      }

      .cls-2 {
        fill: #00b971;
      }

      .cls-3 {
        fill: #1d1d1b;
      }
    </style>
  </defs>
  <path class="cls-2" d="m640,700v20h10v-46.44c-6.22,7.05-10,16.3-10,26.44Z"/>
  <path class="cls-3" d="m189.33,543.59l-18.67-7.18,13.84-36,18.67,7.18-13.84,36Zm28.2-73.33l-18.67-7.18,14.36-37.33,18.67,7.18-14.36,37.33Zm28.72-74.67l-18.67-7.18,14.36-37.33,18.67,7.18-14.36,37.33Zm28.72-74.67l-18.67-7.18,14.36-37.33,18.67,7.18-14.36,37.33Z"/>
  <path class="cls-3" d="m610.67,543.59l-13.84-36,18.67-7.18,13.84,36-18.67,7.18Zm-28.2-73.33l-14.36-37.33,18.67-7.18,14.36,37.33-18.67,7.18Zm-28.72-74.67l-14.36-37.33,18.67-7.18,14.36,37.33-18.67,7.18Zm-28.72-74.67l-14.36-37.33,18.67-7.18,14.36,37.33-18.67,7.18Z"/>
  <g>
    <path class="cls-2" d="m260,580h-40v-20H80v140h29.9c.92,11.2,10.3,20,21.74,20s20.81-8.8,21.73-20h87.44c.92,11.2,10.3,20,21.74,20s20.81-8.8,21.73-20h15.72v-80l-40-40Zm-121.33,120c-.8,3.14-3.65,5.45-7.03,5.45s-6.24-2.31-7.04-5.45c-.16-.58-.24-1.19-.24-1.82,0-4.01,3.26-7.27,7.28-7.27s7.27,3.26,7.27,7.27c0,.63-.08,1.24-.24,1.82Zm130.91,0c-.8,3.14-3.65,5.45-7.03,5.45s-6.24-2.31-7.04-5.45c-.16-.58-.24-1.19-.24-1.82,0-4.01,3.26-7.27,7.28-7.27s7.27,3.26,7.27,7.27c0,.63-.08,1.24-.24,1.82Z"/>
    <g>
      <path class="cls-2" d="m138.91,698.18c0,.63-.08,1.24-.24,1.82h-14.07c-.16-.58-.24-1.19-.24-1.82,0-4.01,3.26-7.27,7.28-7.27s7.27,3.26,7.27,7.27Z"/>
      <path class="cls-2" d="m269.82,698.18c0,.63-.08,1.24-.24,1.82h-14.07c-.16-.58-.24-1.19-.24-1.82,0-4.01,3.26-7.27,7.28-7.27s7.27,3.26,7.27,7.27Z"/>
    </g>
    <path class="cls-2" d="m138.91,698.18c0,.63-.08,1.24-.24,1.82-.8,3.14-3.65,5.45-7.03,5.45s-6.24-2.31-7.04-5.45c-.16-.58-.24-1.19-.24-1.82,0-4.01,3.26-7.27,7.28-7.27s7.27,3.26,7.27,7.27Z"/>
    <path class="cls-1" d="m138.91,698.18c0,.63-.08,1.24-.24,1.82-.8,3.14-3.65,5.45-7.03,5.45s-6.24-2.31-7.04-5.45c-.16-.58-.24-1.19-.24-1.82,0-4.01,3.26-7.27,7.28-7.27s7.27,3.26,7.27,7.27Z"/>
    <path class="cls-2" d="m269.82,698.18c0,.63-.08,1.24-.24,1.82-.8,3.14-3.65,5.45-7.03,5.45s-6.24-2.31-7.04-5.45c-.16-.58-.24-1.19-.24-1.82,0-4.01,3.26-7.27,7.28-7.27s7.27,3.26,7.27,7.27Z"/>
    <path class="cls-1" d="m269.82,698.18c0,.63-.08,1.24-.24,1.82-.8,3.14-3.65,5.45-7.03,5.45s-6.24-2.31-7.04-5.45c-.16-.58-.24-1.19-.24-1.82,0-4.01,3.26-7.27,7.28-7.27s7.27,3.26,7.27,7.27Z"/>
  </g>
  <polygon class="cls-2" points="500 175.75 500 324.63 300 324.63 300 138.9 357.43 138.9 357.43 199.71 404.96 175.75 404.96 199.71 452.48 175.75 452.48 199.71 500 175.75"/>
  <path class="cls-1" d="m467.74,247.74h15.98c4.41,0,7.99,3.58,7.99,7.99v64.27h-31.95v-64.27c0-4.41,3.58-7.99,7.99-7.99Z"/>
  <g>
    <path class="cls-2" d="m610,560c16.57,0,30,13.43,30,30s-13.43,30-30,30-30-13.43-30-30,13.43-30,30-30Z"/>
    <path class="cls-2" d="m629.35,624.99c-5.74,3.19-12.33,5.01-19.35,5.01s-13.61-1.82-19.35-5.01c-12.31,6.82-20.65,19.94-20.65,35.01v.03c12.14,9.13,20,23.65,20,39.97v20h40v-20c0-16.32,7.86-30.84,20-39.97v-.03c0-15.07-8.34-28.19-20.65-35.01Z"/>
  </g>
  <rect class="cls-1" x="315.98" y="247.74" width="31.95" height="31.95" rx="7.99" ry="7.99"/>
  <rect class="cls-1" x="363.9" y="247.74" width="31.95" height="31.95" rx="7.99" ry="7.99"/>
  <rect class="cls-1" x="411.83" y="247.74" width="31.95" height="31.95" rx="7.99" ry="7.99"/>
  <g>
    <path class="cls-2" d="m570,720h10v-20c0-10.14-3.78-19.39-10-26.44v46.44Z"/>
    <g>
      <path class="cls-2" d="m540,600c16.57,0,30,13.43,30,30s-13.43,30-30,30-30-13.43-30-30,13.43-30,30-30Z"/>
      <path class="cls-2" d="m559.35,664.99c-5.74,3.19-12.33,5.01-19.35,5.01s-13.61-1.82-19.35-5.01c-12.31,6.82-20.65,19.94-20.65,35.01v20h80v-20c0-15.07-8.34-28.19-20.65-35.01Z"/>
    </g>
  </g>
  <path class="cls-3" d="m480,650h-20v-20h20v20Zm-60,0h-40v-20h40v20Zm-80,0h-20v-20h20v20Z"/>
  <g>
    <path class="cls-2" d="m680,600c16.57,0,30,13.43,30,30s-13.43,30-30,30-30-13.43-30-30,13.43-30,30-30Z"/>
    <path class="cls-2" d="m699.35,664.99c-5.74,3.19-12.33,5.01-19.35,5.01s-13.61-1.82-19.35-5.01c-12.31,6.82-20.65,19.94-20.65,35.01v20h80v-20c0-15.07-8.34-28.19-20.65-35.01Z"/>
  </g>
  <polygon class="cls-2" points="350 127.93 340 127.93 340 106.95 500 106.95 500 116.95 350 116.95 350 127.93"/>
  <path class="cls-2" d="m319.41,127.93h-10v-11.58c-7.65-1.8-15.98-7.83-15.98-20.37,0-15.39,12.54-20.98,20.98-20.98h165.59v10h-165.59c-1.8.03-10.98.68-10.98,10.98s9.17,10.95,11.01,10.98l4.93.07.04,4.93v15.98Z"/>
  <polygon class="cls-1" points="260 594.55 220 594.55 220 640 280 640 280 612.73 260 594.55"/>
</svg>