<?xml version="1.0" encoding="UTF-8"?>
<svg id="COLOR" xmlns="http://www.w3.org/2000/svg" viewBox="0 0 800 800">
  <defs>
    <style>
      .cls-1 {
        fill: #2d7dd1;
      }

      .cls-2 {
        fill: #1d1d1b;
      }
    </style>
  </defs>
  <path class="cls-2" d="m109.28,723.71l-18.57-7.43,39.33-98.31c.22-6.77,1.62-29.3,10.56-53.89,14.27-39.25,40.89-64.76,76.97-73.78,32.53-8.13,54.92-19.75,72.9-29.09,25.85-13.42,46.27-24.01,73.99-10.15,13.41,6.7,17.64,16.84,18.83,24.17,3,18.47-10.04,40.05-21.38,54.78h134.74l76.87-57.66c1.89-1.75,7.66-6.62,15.8-9.33,13.45-4.48,26.85-.96,37.73,9.92,10.88,10.88,14.4,24.28,9.92,37.73-2.71,8.14-7.58,13.9-9.33,15.8l-59.49,79.32-33.91,50.86c-5.58,8.37-14.91,13.36-24.96,13.36h-234.88c-4.31,0-8.12,2.75-9.49,6.84l-15.44,46.32-18.97-6.32,15.44-46.32c4.09-12.27,15.53-20.51,28.46-20.51h234.88c3.35,0,6.46-1.67,8.32-4.45l34.38-51.55,60.43-80.57.5-.5h0s3.64-3.82,5.24-9.08c1.84-6.04.17-11.37-5.24-16.78-5.41-5.41-10.74-7.08-16.78-5.24-5.28,1.6-9.1,5.26-9.13,5.3l-.5.5-.51.37-82.67,62h-187.48l17.07-17.07c13.13-13.16,33.06-39.6,30.63-54.51-.45-2.77-1.77-6.35-8.03-9.48-17.89-8.95-29.35-3.73-55.84,10.02-18.92,9.82-42.46,22.04-77.27,30.74-71.6,17.9-72.43,109.38-72.43,110.3v1.93l-40.72,101.79Z"/>
  <path class="cls-1" d="m535.76,320s-52.33,10.05-75.76,53.52v-33.52h0v-80h84.24s86.87,0,86.87-100h-104.24s-41.22,7.91-66.87,40.07v-20.07c0-83.33-90.91-100-90.91-100h-109.09c0,100,90.91,100,90.91,100h89.09v101.21c-26.77-33.11-70.91-41.21-70.91-41.21h-109.09c0,100,90.91,100,90.91,100h89.09v81.03c-13.14,2.06-25.06,9.29-32.93,20.31l-9.89,13.85c2.89,5.14,4.89,10.78,5.87,16.83.45,2.74.67,5.55.69,8.4l19.61-27.45c5.82-8.14,14.88-12.74,24.9-12.56,10.01.16,18.93,5.03,24.48,13.35l30.75,46.13,16.02-12.02-30.14-45.21c-6.95-10.42-17.47-17.72-29.36-20.73v-1.94h93.13s86.87,0,86.87-100h-104.24Z"/>
</svg>