<?xml version="1.0" encoding="UTF-8"?>
<svg id="BW" xmlns="http://www.w3.org/2000/svg" viewBox="0 0 800 800">
  <defs>
    <style>
      .cls-1 {
        fill: #cbcbcb;
      }

      .cls-2 {
        fill: gray;
      }
    </style>
  </defs>
  <path class="cls-1" d="m240,640v40H80v-40c0-44.18,35.81-80,80-80s80,35.82,80,80Z"/>
  <path class="cls-1" d="m160,420c33.13,0,60,26.87,60,60s-26.87,60-60,60-60-26.86-60-60,26.86-60,60-60Z"/>
  <path class="cls-1" d="m720,640v40h-160v-40c0-44.18,35.81-80,80-80s80,35.82,80,80Z"/>
  <path class="cls-1" d="m640,420c33.13,0,60,26.87,60,60s-26.87,60-60,60-60-26.86-60-60,26.86-60,60-60Z"/>
  <path class="cls-1" d="m480,700v40h-160v-40c0-44.18,35.81-80,80-80s80,35.82,80,80Z"/>
  <path class="cls-1" d="m400,480c33.13,0,60,26.87,60,60s-26.87,60-60,60-60-26.86-60-60,26.86-60,60-60Z"/>
  <path class="cls-2" d="m540,65.86l-87.07,87.07-7.07,7.07-27.83,27.83-72.1-36.05-85.92-85.92L85.86,240l87.07,87.07,7.07,7.07,49.35,49.35c-1.83,5.24-2.78,10.8-2.78,16.51,0,13.36,5.2,25.91,14.64,35.36l3.43,3.43c9.44,9.44,22,14.64,35.36,14.64s25.91-5.2,35.36-14.64l24.64-24.64,24.64,24.64c9.44,9.44,22,14.64,35.36,14.64s25.91-5.2,35.36-14.64l4.64-4.64,4.64,4.64c19.5,19.49,51.21,19.49,70.71,0l104.64-104.64,7.07-7.07,87.07-87.07-174.14-174.14ZM114.14,240l145.86-145.86,65.86,65.86-145.86,145.86-65.86-65.86Zm80,80l147.83-147.83,72.1,36.05,90.23,90.23-8.92,5.95c-19.76,13.18-46.29,10.55-63.09-6.25l-25.22-25.22-7.01-7.13-7.07,7.07c-.09.09-9.51,9.03-30.1,15.62-19.22,6.15-52.32,11.43-100.93,1.71l-3.92,19.61c11.85,2.37,22.9,3.92,33.19,4.82l-50.02,50.02c-.41.41-.79.83-1.18,1.24l-45.89-45.89Zm307.07,104.64c-11.7,11.7-30.73,11.7-42.43,0l-18.79-18.79-18.79,18.79c-11.7,11.7-30.73,11.7-42.43,0l-38.79-38.79-38.79,38.79c-5.67,5.67-13.2,8.79-21.21,8.79s-15.55-3.12-21.21-8.79l-3.43-3.43c-5.67-5.67-8.79-13.2-8.79-21.21s3.12-15.55,8.79-21.21l63.26-63.26c42.85-1.07,68.64-14.15,80.55-22.22l18.98,18.98c13.49,13.49,31.47,20.45,49.57,20.45,13.45,0,26.96-3.84,38.76-11.71l29.22-19.48-101.55-101.55,25.86-25.86,145.86,145.86-104.64,104.64Zm118.79-118.79l-145.86-145.86,65.86-65.86,145.86,145.86-65.86,65.86Z"/>
</svg>