<?xml version="1.0" encoding="UTF-8"?>
<svg id="COLOR" xmlns="http://www.w3.org/2000/svg" viewBox="0 0 800 800">
  <defs>
    <style>
      .cls-1 {
        fill: #00b971;
      }

      .cls-2 {
        fill: #1d1d1b;
      }
    </style>
  </defs>
  <path class="cls-1" d="m635.01,322.86c3.24-10.38,4.99-21.41,4.99-32.86,0-60.75-49.25-110-110-110-23,0-44.34,7.06-62,19.13-23.95-58.17-81.19-99.13-148-99.13-88.37,0-160,71.63-160,160,0,21.77,4.35,42.52,12.23,61.44-52.3,8.5-92.23,53.86-92.23,108.56h0c0,60.75,49.25,110,110,110h420c60.75,0,110-49.25,110-110h0c0-52.15-36.29-95.82-84.99-107.14Z"/>
  <path class="cls-2" d="m434,450c-40.8,0-74-33.2-74-74s33.2-74,74-74,74,33.2,74,74-33.2,74-74,74Zm0-128c-29.78,0-54,24.22-54,54s24.22,54,54,54,54-24.22,54-54-24.22-54-54-54Z"/>
  <path class="cls-2" d="m340,450h-34.5c-41.63,0-75.5-33.2-75.5-74s33.87-74,75.5-74h34.5c5.52,0,10,4.48,10,10s-4.48,10-10,10h-34.5c-30.6,0-55.5,24.22-55.5,54s24.9,54,55.5,54h34.5c5.52,0,10,4.48,10,10s-4.48,10-10,10Z"/>
  <path class="cls-2" d="m560,490h-40c-4.04,0-7.69-2.44-9.24-6.17-1.55-3.74-.69-8.04,2.17-10.9l31.83-31.83c2.82-2.82,1.82-6.17,1.45-7.12-.44-1.14-1.86-3.8-5.41-3.96-.26-.01-.53-.02-.8-.02h-20c-5.52,0-10-4.48-10-10s4.48-10,10-10h20c.56,0,1.11.01,1.65.04,10.47.45,19.36,6.84,23.2,16.68,3.91,10.02,1.63,20.95-5.94,28.52l-14.76,14.76h15.86c5.52,0,10,4.48,10,10s-4.48,10-10,10Z"/>
  <path class="cls-2" d="m660,190c-33.08,0-60-26.92-60-60s26.92-60,60-60,60,26.92,60,60-26.92,60-60,60Zm0-100c-22.06,0-40,17.94-40,40s17.94,40,40,40,40-17.94,40-40-17.94-40-40-40Z"/>
  <path class="cls-2" d="m170,690c-33.08,0-60-26.92-60-60s26.92-60,60-60,60,26.92,60,60-26.92,60-60,60Zm0-100c-22.06,0-40,17.94-40,40s17.94,40,40,40,40-17.94,40-40-17.94-40-40-40Z"/>
  <path class="cls-2" d="m310,630c-22.06,0-40-17.94-40-40s17.94-40,40-40,40,17.94,40,40-17.94,40-40,40Zm0-60c-11.03,0-20,8.97-20,20s8.97,20,20,20,20-8.97,20-20-8.97-20-20-20Z"/>
  <path class="cls-2" d="m650,630c-22.06,0-40-17.94-40-40s17.94-40,40-40,40,17.94,40,40-17.94,40-40,40Zm0-60c-11.03,0-20,8.97-20,20s8.97,20,20,20,20-8.97,20-20-8.97-20-20-20Z"/>
  <path class="cls-2" d="m130,170c-22.06,0-40-17.94-40-40s17.94-40,40-40,40,17.94,40,40-17.94,40-40,40Zm0-60c-11.03,0-20,8.97-20,20s8.97,20,20,20,20-8.97,20-20-8.97-20-20-20Z"/>
  <circle class="cls-1" cx="600" cy="660" r="20"/>
  <circle class="cls-1" cx="280" cy="700" r="20"/>
  <circle class="cls-1" cx="540" cy="580" r="20"/>
  <circle class="cls-1" cx="100" cy="240" r="20"/>
  <circle class="cls-1" cx="540" cy="140" r="20"/>
  <path class="cls-2" d="m450,710c-33.08,0-60-26.92-60-60s26.92-60,60-60,60,26.92,60,60-26.92,60-60,60Zm0-100c-22.06,0-40,17.94-40,40s17.94,40,40,40,40-17.94,40-40-17.94-40-40-40Z"/>
</svg>