<svg width="119" height="120" viewBox="0 0 119 120" fill="none" xmlns="http://www.w3.org/2000/svg">
<g clip-path="url(#clip0_530_502)">
<path d="M102.463 46.6819C103.062 44.7655 103.385 42.7292 103.385 40.6154C103.385 29.4 94.2923 20.3077 83.0769 20.3077C78.8308 20.3077 74.8911 21.6111 71.6308 23.8394C67.2092 13.1003 56.6418 5.53847 44.3077 5.53847C27.9932 5.53847 14.7692 18.7625 14.7692 35.0769C14.7692 39.096 15.5723 42.9268 17.0271 46.4197C7.37169 47.9871 0 56.3631 0 66.4615C0 77.6769 9.09231 86.7692 20.3077 86.7692H97.8462C109.062 86.7692 118.154 77.6769 118.154 66.4615C118.154 56.8339 111.454 48.7717 102.463 46.6819Z" fill="#00B971"/>
<path d="M65.3538 68.3077C71.8793 68.3077 77.1692 63.0178 77.1692 56.4923C77.1692 49.9669 71.8793 44.6769 65.3538 44.6769C58.8284 44.6769 53.5385 49.9669 53.5385 56.4923C53.5385 63.0178 58.8284 68.3077 65.3538 68.3077Z" stroke="#001511" stroke-width="4" stroke-miterlimit="10" stroke-linecap="round"/>
<path d="M48 44.6769H41.6308C34.9532 44.6769 29.5385 49.9662 29.5385 56.4923C29.5385 63.0185 34.9532 68.3077 41.6308 68.3077H48" stroke="#001511" stroke-width="4" stroke-miterlimit="10" stroke-linecap="round"/>
<path d="M88.6153 75.6923H81.2307L87.107 69.816C88.9606 67.9625 87.7679 64.7317 85.1483 64.6209C85.0744 64.6172 84.9987 64.6154 84.923 64.6154H81.2307" stroke="#001511" stroke-width="4" stroke-linecap="round" stroke-linejoin="round"/>
<path d="M107.077 20.3077C112.175 20.3077 116.308 16.1749 116.308 11.0769C116.308 5.97892 112.175 1.84616 107.077 1.84616C101.979 1.84616 97.8462 5.97892 97.8462 11.0769C97.8462 16.1749 101.979 20.3077 107.077 20.3077Z" stroke="#001511" stroke-width="4" stroke-miterlimit="10" stroke-linecap="round"/>
<path d="M16.6154 112.615C21.7134 112.615 25.8462 108.483 25.8462 103.385C25.8462 98.2866 21.7134 94.1538 16.6154 94.1538C11.5174 94.1538 7.38464 98.2866 7.38464 103.385C7.38464 108.483 11.5174 112.615 16.6154 112.615Z" stroke="#001511" stroke-width="4" stroke-miterlimit="10" stroke-linecap="round"/>
<path d="M42.4616 101.538C45.5204 101.538 48 99.0588 48 96C48 92.9412 45.5204 90.4615 42.4616 90.4615C39.4027 90.4615 36.9231 92.9412 36.9231 96C36.9231 99.0588 39.4027 101.538 42.4616 101.538Z" stroke="#001511" stroke-width="4" stroke-miterlimit="10" stroke-linecap="round"/>
<path d="M105.231 101.538C108.29 101.538 110.769 99.0588 110.769 96C110.769 92.9412 108.29 90.4615 105.231 90.4615C102.172 90.4615 99.6923 92.9412 99.6923 96C99.6923 99.0588 102.172 101.538 105.231 101.538Z" stroke="#001511" stroke-width="4" stroke-miterlimit="10" stroke-linecap="round"/>
<path d="M9.23072 16.6154C12.2895 16.6154 14.7692 14.1357 14.7692 11.0769C14.7692 8.01812 12.2895 5.53847 9.23072 5.53847C6.17191 5.53847 3.69226 8.01812 3.69226 11.0769C3.69226 14.1357 6.17191 16.6154 9.23072 16.6154Z" stroke="#001511" stroke-width="4" stroke-miterlimit="10" stroke-linecap="round"/>
<path d="M96 112.615C98.0393 112.615 99.6924 110.962 99.6924 108.923C99.6924 106.884 98.0393 105.231 96 105.231C93.9608 105.231 92.3077 106.884 92.3077 108.923C92.3077 110.962 93.9608 112.615 96 112.615Z" fill="#00B971"/>
<path d="M36.923 120C38.9622 120 40.6153 118.347 40.6153 116.308C40.6153 114.268 38.9622 112.615 36.923 112.615C34.8838 112.615 33.2307 114.268 33.2307 116.308C33.2307 118.347 34.8838 120 36.923 120Z" fill="#00B971"/>
<path d="M84.923 97.8461C86.9622 97.8461 88.6153 96.193 88.6153 94.1538C88.6153 92.1146 86.9622 90.4615 84.923 90.4615C82.8838 90.4615 81.2307 92.1146 81.2307 94.1538C81.2307 96.193 82.8838 97.8461 84.923 97.8461Z" fill="#00B971"/>
<path d="M3.69231 35.0769C5.73151 35.0769 7.38462 33.4238 7.38462 31.3846C7.38462 29.3454 5.73151 27.6923 3.69231 27.6923C1.6531 27.6923 0 29.3454 0 31.3846C0 33.4238 1.6531 35.0769 3.69231 35.0769Z" fill="#00B971"/>
<path d="M84.923 16.6154C86.9622 16.6154 88.6153 14.9623 88.6153 12.9231C88.6153 10.8839 86.9622 9.23077 84.923 9.23077C82.8838 9.23077 81.2307 10.8839 81.2307 12.9231C81.2307 14.9623 82.8838 16.6154 84.923 16.6154Z" fill="#00B971"/>
<path d="M68.3077 116.308C73.4057 116.308 77.5384 112.175 77.5384 107.077C77.5384 101.979 73.4057 97.8462 68.3077 97.8462C63.2097 97.8462 59.0769 101.979 59.0769 107.077C59.0769 112.175 63.2097 116.308 68.3077 116.308Z" stroke="#001511" stroke-width="4" stroke-miterlimit="10" stroke-linecap="round"/>
<path d="M102.463 46.6819C103.062 44.7655 103.385 42.7292 103.385 40.6154C103.385 29.4 94.2923 20.3077 83.0769 20.3077C78.8308 20.3077 74.8911 21.6111 71.6308 23.8394C67.2092 13.1003 56.6418 5.53847 44.3077 5.53847C27.9932 5.53847 14.7692 18.7625 14.7692 35.0769C14.7692 39.096 15.5723 42.9268 17.0271 46.4197C7.37169 47.9871 0 56.3631 0 66.4615C0 77.6769 9.09231 86.7692 20.3077 86.7692H97.8462C109.062 86.7692 118.154 77.6769 118.154 66.4615C118.154 56.8339 111.454 48.7717 102.463 46.6819Z" fill="#00B971"/>
<path d="M65.3538 70.1538C57.8215 70.1538 51.6923 64.0246 51.6923 56.4923C51.6923 48.96 57.8215 42.8308 65.3538 42.8308C72.8861 42.8308 79.0153 48.96 79.0153 56.4923C79.0153 64.0246 72.8861 70.1538 65.3538 70.1538ZM65.3538 46.5231C59.856 46.5231 55.3846 50.9945 55.3846 56.4923C55.3846 61.9901 59.856 66.4615 65.3538 66.4615C70.8516 66.4615 75.323 61.9901 75.323 56.4923C75.323 50.9945 70.8516 46.5231 65.3538 46.5231Z" fill="#1D1D1B"/>
<path d="M48 70.1538H41.6307C33.9452 70.1538 27.6923 64.0246 27.6923 56.4923C27.6923 48.96 33.9452 42.8308 41.6307 42.8308H48C49.019 42.8308 49.8461 43.6578 49.8461 44.6769C49.8461 45.696 49.019 46.5231 48 46.5231H41.6307C35.9815 46.5231 31.3846 50.9945 31.3846 56.4923C31.3846 61.9901 35.9815 66.4615 41.6307 66.4615H48C49.019 66.4615 49.8461 67.2886 49.8461 68.3077C49.8461 69.3268 49.019 70.1538 48 70.1538Z" fill="#1D1D1B"/>
<path d="M88.6154 77.5385H81.2308C80.4849 77.5385 79.8111 77.088 79.5249 76.3994C79.2388 75.7089 79.3975 74.9151 79.9255 74.3871L85.8019 68.5108C86.3225 67.9902 86.1379 67.3717 86.0695 67.1963C85.9883 66.9859 85.7262 66.4948 85.0708 66.4652C85.0228 66.4634 84.9729 66.4615 84.9231 66.4615H81.2308C80.2117 66.4615 79.3846 65.6345 79.3846 64.6154C79.3846 63.5963 80.2117 62.7692 81.2308 62.7692H84.9231C85.0265 62.7692 85.128 62.7711 85.2277 62.7766C87.1606 62.8597 88.8019 64.0394 89.5108 65.856C90.2326 67.7058 89.8117 69.7237 88.4142 71.1212L85.6892 73.8462H88.6172C89.6363 73.8462 90.4634 74.6732 90.4634 75.6923C90.4634 76.7114 89.6363 77.5385 88.6172 77.5385H88.6154Z" fill="#1D1D1B"/>
<path d="M107.077 22.1538C100.97 22.1538 96 17.184 96 11.0769C96 4.96985 100.97 0 107.077 0C113.184 0 118.154 4.96985 118.154 11.0769C118.154 17.184 113.184 22.1538 107.077 22.1538ZM107.077 3.69231C103.004 3.69231 99.6923 7.00431 99.6923 11.0769C99.6923 15.1495 103.004 18.4615 107.077 18.4615C111.15 18.4615 114.462 15.1495 114.462 11.0769C114.462 7.00431 111.15 3.69231 107.077 3.69231Z" fill="#1D1D1B"/>
<path d="M16.6154 114.462C10.5083 114.462 5.53845 109.492 5.53845 103.385C5.53845 97.2775 10.5083 92.3077 16.6154 92.3077C22.7225 92.3077 27.6923 97.2775 27.6923 103.385C27.6923 109.492 22.7225 114.462 16.6154 114.462ZM16.6154 96C12.5428 96 9.23076 99.312 9.23076 103.385C9.23076 107.457 12.5428 110.769 16.6154 110.769C20.688 110.769 24 107.457 24 103.385C24 99.312 20.688 96 16.6154 96Z" fill="#1D1D1B"/>
<path d="M42.4615 103.385C38.3889 103.385 35.0769 100.073 35.0769 96C35.0769 91.9274 38.3889 88.6154 42.4615 88.6154C46.5341 88.6154 49.8461 91.9274 49.8461 96C49.8461 100.073 46.5341 103.385 42.4615 103.385ZM42.4615 92.3077C40.4252 92.3077 38.7692 93.9637 38.7692 96C38.7692 98.0363 40.4252 99.6923 42.4615 99.6923C44.4978 99.6923 46.1538 98.0363 46.1538 96C46.1538 93.9637 44.4978 92.3077 42.4615 92.3077Z" fill="#1D1D1B"/>
<path d="M105.231 103.385C101.158 103.385 97.8462 100.073 97.8462 96C97.8462 91.9274 101.158 88.6154 105.231 88.6154C109.303 88.6154 112.615 91.9274 112.615 96C112.615 100.073 109.303 103.385 105.231 103.385ZM105.231 92.3077C103.194 92.3077 101.538 93.9637 101.538 96C101.538 98.0363 103.194 99.6923 105.231 99.6923C107.267 99.6923 108.923 98.0363 108.923 96C108.923 93.9637 107.267 92.3077 105.231 92.3077Z" fill="#1D1D1B"/>
<path d="M9.23081 18.4615C5.15819 18.4615 1.84619 15.1495 1.84619 11.0769C1.84619 7.00431 5.15819 3.69231 9.23081 3.69231C13.3034 3.69231 16.6154 7.00431 16.6154 11.0769C16.6154 15.1495 13.3034 18.4615 9.23081 18.4615ZM9.23081 7.38461C7.1945 7.38461 5.5385 9.04061 5.5385 11.0769C5.5385 13.1132 7.1945 14.7692 9.23081 14.7692C11.2671 14.7692 12.9231 13.1132 12.9231 11.0769C12.9231 9.04061 11.2671 7.38461 9.23081 7.38461Z" fill="#1D1D1B"/>
<path d="M96 112.615C98.0393 112.615 99.6924 110.962 99.6924 108.923C99.6924 106.884 98.0393 105.231 96 105.231C93.9608 105.231 92.3077 106.884 92.3077 108.923C92.3077 110.962 93.9608 112.615 96 112.615Z" fill="#00B971"/>
<path d="M36.923 120C38.9622 120 40.6153 118.347 40.6153 116.308C40.6153 114.268 38.9622 112.615 36.923 112.615C34.8838 112.615 33.2307 114.268 33.2307 116.308C33.2307 118.347 34.8838 120 36.923 120Z" fill="#00B971"/>
<path d="M84.923 97.8461C86.9622 97.8461 88.6153 96.193 88.6153 94.1538C88.6153 92.1146 86.9622 90.4615 84.923 90.4615C82.8838 90.4615 81.2307 92.1146 81.2307 94.1538C81.2307 96.193 82.8838 97.8461 84.923 97.8461Z" fill="#00B971"/>
<path d="M3.69231 35.0769C5.73151 35.0769 7.38462 33.4238 7.38462 31.3846C7.38462 29.3454 5.73151 27.6923 3.69231 27.6923C1.6531 27.6923 0 29.3454 0 31.3846C0 33.4238 1.6531 35.0769 3.69231 35.0769Z" fill="#00B971"/>
<path d="M84.923 16.6154C86.9622 16.6154 88.6153 14.9623 88.6153 12.9231C88.6153 10.8839 86.9622 9.23077 84.923 9.23077C82.8838 9.23077 81.2307 10.8839 81.2307 12.9231C81.2307 14.9623 82.8838 16.6154 84.923 16.6154Z" fill="#00B971"/>
<path d="M68.3076 118.154C62.2006 118.154 57.2307 113.184 57.2307 107.077C57.2307 100.97 62.2006 96 68.3076 96C74.4147 96 79.3846 100.97 79.3846 107.077C79.3846 113.184 74.4147 118.154 68.3076 118.154ZM68.3076 99.6923C64.235 99.6923 60.923 103.004 60.923 107.077C60.923 111.15 64.235 114.462 68.3076 114.462C72.3802 114.462 75.6922 111.15 75.6922 107.077C75.6922 103.004 72.3802 99.6923 68.3076 99.6923Z" fill="#1D1D1B"/>
</g>
<defs>
<clipPath id="clip0_530_502">
<rect width="118.154" height="120" fill="white"/>
</clipPath>
</defs>
</svg>
