<?xml version="1.0" encoding="UTF-8"?>
<svg id="BW" xmlns="http://www.w3.org/2000/svg" viewBox="0 0 800 800">
  <defs>
    <style>
      .cls-1 {
        fill: #fff;
      }

      .cls-2 {
        fill: #cbcbcb;
      }

      .cls-3 {
        fill: gray;
      }
    </style>
  </defs>
  <circle class="cls-2" cx="350" cy="590" r="120"/>
  <rect class="cls-1" x="340" y="524" width="20" height="132"/>
  <rect class="cls-1" x="284" y="580" width="132" height="20"/>
  <rect class="cls-3" x="120" y="230" width="200" height="20"/>
  <rect class="cls-3" x="120" y="290" width="320" height="20"/>
  <rect class="cls-3" x="120" y="350" width="280" height="20"/>
  <rect class="cls-3" x="120" y="410" width="280" height="20"/>
  <path class="cls-3" d="m649.39,390.43c-5.19,44.73-43.29,79.57-89.39,79.57s-84.21-34.84-89.39-79.57c-7.84-1.41-14.61-2.97-20.46-4.72,2.98,58.01,51.11,104.29,109.85,104.29s106.87-46.28,109.85-104.29c-5.85,1.75-12.62,3.31-20.46,4.72Z"/>
  <path class="cls-3" d="m458.19,90H70v580h165.18c-4.41-6.31-8.31-12.99-11.65-20H90V110h354v67.2h66v61.12c.57-.21,1.13-.44,1.71-.64,2.01-.7,4.09-1.38,6.21-2.01,2.86-4.96,7.06-9.04,12.08-11.8v-60.75l-71.81-73.11Zm5.81,34.45l32.16,32.75h-32.16v-32.75Z"/>
  <path class="cls-3" d="m560,492.22c-32.53,0-62.96,10.15-88.82,27.73,3.37,5.81,6.33,11.88,8.85,18.17,23.16-16.39,50.59-25.9,79.97-25.9,79.71,0,145.09,69.91,149.74,157.78h-244.91c-5.02,7.19-10.7,13.88-16.95,20h282.13v-10c0-103.54-76.26-187.78-170-187.78Z"/>
  <path class="cls-2" d="m560,377.14c-32.27,0-62.64-2.25-85.51-6.33-11.29-2.02-20.22-4.39-26.52-7.05-2.9-1.22-7.97-4.95-7.97-11.8v-17.14s0,0,0,0h3.75s.02.13.08.25c6.42-23.18,20.38-44.11,39.77-59.43,10.43-8.24,22.12-14.67,34.73-19.1,2.61-.92,5.25-1.73,7.92-2.47v27.17c0,2.07,1.68,3.75,3.75,3.75,2.07,0,3.75-1.68,3.75-3.75v-30c0-6.2,5.05-11.25,11.25-11.25h15s15,0,15,0c6.2,0,11.25,5.05,11.25,11.25v30c0,2.07,1.68,3.75,3.75,3.75s3.75-1.68,3.75-3.75v-27.17c2.66.73,5.31,1.55,7.92,2.47,12.61,4.43,24.3,10.86,34.73,19.1,19.38,15.32,33.35,36.25,39.77,59.43.06-.12.08-.2.08-.25h3.75v17.14c0,6.85-5.07,10.57-7.97,11.8-6.3,2.66-15.22,5.03-26.52,7.05-22.88,4.09-53.24,6.33-85.51,6.33Z"/>
</svg>