<svg width="113" height="120" viewBox="0 0 113 120" fill="none" xmlns="http://www.w3.org/2000/svg">
<g clip-path="url(#clip0_530_571)">
<path d="M56.25 108.75C83.1739 108.75 105 86.9239 105 60C105 33.0761 83.1739 11.25 56.25 11.25C29.3261 11.25 7.5 33.0761 7.5 60C7.5 86.9239 29.3261 108.75 56.25 108.75Z" stroke="#001511" stroke-width="3" stroke-miterlimit="10" stroke-linecap="round"/>
<path d="M71.25 120L78.75 41.25L56.25 48.75L41.25 0L33.75 78.75L56.25 71.25L71.25 120Z" fill="#00B971"/>
<path d="M100.164 69C87.8288 78 97.0801 90 97.0801 90C97.0801 90 112.5 90 112.5 75V60L100.164 69Z" fill="#00B971"/>
<path d="M12.3356 69C24.6712 78 15.42 90 15.42 90C15.42 90 0 90 0 75V60C0 60 0 60 12.3356 69Z" fill="#00B971"/>
</g>
<defs>
<clipPath id="clip0_530_571">
<rect width="112.5" height="120" fill="white"/>
</clipPath>
</defs>
</svg>
