<?xml version="1.0" encoding="UTF-8"?>
<svg id="BW" xmlns="http://www.w3.org/2000/svg" viewBox="0 0 800 800">
  <defs>
    <style>
      .cls-1 {
        fill: #cbcbcb;
      }

      .cls-2 {
        fill: gray;
      }
    </style>
  </defs>
  <path class="cls-1" d="m634.21,448c-65.79,48-16.45,112-16.45,112h0s82.24,0,82.24-80v-80l-65.79,48Z"/>
  <polygon class="cls-1" points="480 720 520 300 400 340 320 80 280 500 400 460 480 720"/>
  <path class="cls-1" d="m165.79,448c65.79,48,16.45,112,16.45,112h0s-82.24,0-82.24-80v-80s0,0,65.79,48Z"/>
  <g>
    <path class="cls-2" d="m290.85,175.12l2.21-23.17c-30.96,13.35-59.42,32.58-83.98,57.14-50.32,50.32-78.32,117.02-79.05,188.07l20.26,14.78c-.19-3.96-.29-7.93-.29-11.94,0-98.74,57.54-184.28,140.85-224.88Z"/>
    <path class="cls-2" d="m669.97,397.16c-.73-71.06-28.72-137.75-79.05-188.07-51-51-118.8-79.08-190.92-79.08-14.43,0-28.68,1.14-42.66,3.35l5.95,19.35c11.98-1.77,24.24-2.7,36.71-2.7,137.85,0,250,112.15,250,250,0,4-.1,7.98-.29,11.94l20.26-14.78Z"/>
  </g>
  <g>
    <path class="cls-2" d="m436.71,647.3c-11.98,1.77-24.24,2.7-36.71,2.7-77.8,0-147.4-35.72-193.29-91.62-4.27,8.05-8.07,13.1-8.62,13.81l-2.9,3.78c4.42,5.13,9.05,10.12,13.89,14.96,51,51,118.8,79.08,190.92,79.08,14.43,0,28.68-1.14,42.66-3.35l-5.95-19.35Z"/>
    <path class="cls-2" d="m601.9,572.18c-.54-.7-4.35-5.75-8.62-13.81-22.82,27.8-51.5,50.6-84.14,66.5l-2.21,23.18c30.96-13.35,59.42-32.58,83.98-57.14,4.84-4.84,9.47-9.83,13.89-14.96l-2.9-3.78Z"/>
  </g>
</svg>