<?xml version="1.0" encoding="UTF-8"?>
<svg id="BW" xmlns="http://www.w3.org/2000/svg" viewBox="0 0 800 800">
  <defs>
    <style>
      .cls-1 {
        fill: #cbcbcb;
      }

      .cls-2 {
        fill: gray;
      }
    </style>
  </defs>
  <path class="cls-1" d="m714.55,550.4l-72.73-47.98c-8.99-5.93-21.82-.29-21.82,9.6v7.98h-60v80h60v7.98c0,9.89,12.83,15.53,21.82,9.6l72.73-47.98c7.27-4.8,7.27-14.39,0-19.19Z"/>
  <g>
    <path class="cls-1" d="m234.55,550.4l-72.73-47.98c-8.99-5.93-21.82-.29-21.82,9.6v7.98h-60v80h60v7.98c0,9.89,12.83,15.53,21.82,9.6l72.73-47.98c7.27-4.8,7.27-14.39,0-19.19Z"/>
    <g>
      <path class="cls-2" d="m640,639.41v60.59H160v-60.59c-2.07.38-4.17.59-6.31.59-4.76,0-9.41-.96-13.69-2.76v82.76h520v-90.46l-7.17,4.73c-3.91,2.58-8.27,4.3-12.83,5.13Z"/>
      <path class="cls-2" d="m630.45,356.5l-90.45,49.14v-65.19l-29.55,16.05-90.45,49.14v-65.19l-29.55,16.05-90.45,49.14v-165.63h-160v242.76c4.28-1.8,8.94-2.76,13.69-2.76,2.13,0,4.24.21,6.31.59v-220.59h120v179.26l120-65.19v65.19l120-65.19v65.19l120-65.19v106.52c4.57.84,8.92,2.55,12.83,5.13l7.17,4.73v-150.01l-29.55,16.05Z"/>
    </g>
  </g>
  <g>
    <path class="cls-2" d="m190,220h-20v-31.14c-4.21-.85-9.31-2.33-14.47-4.92-16.46-8.23-25.53-23.84-25.53-43.94s9.07-35.71,25.53-43.94c11.77-5.89,23.21-6.06,24.47-6.06h480v20H180s-8.26.14-16.04,4.2c-9.4,4.91-13.96,13.35-13.96,25.8s4.57,20.88,13.96,25.8c7.77,4.06,16.01,4.2,16.09,4.2h10l-.06,10v40Z"/>
    <polygon class="cls-2" points="250 220 230 220 230 170 660 170 660 190 250 190 250 220"/>
  </g>
</svg>