<svg width="112" height="110" viewBox="0 0 112 110" fill="none" xmlns="http://www.w3.org/2000/svg">
<g clip-path="url(#clip0_530_564)">
<path d="M34.9206 29.6825V60.9819L55.873 49.5995V60.9819L76.8254 49.5995V60.9819L97.7778 49.5995V106.508H13.9683V29.6825H34.9206ZM38.4127 26.1905H10.4762V110H101.27V43.7294L96.1103 46.5317L80.3175 55.1117V43.7294L75.1579 46.5317L59.3651 55.1117V43.7294L54.2056 46.5317L38.4127 55.1117V26.1922V26.1905Z" fill="#CBCBCB"/>
<path d="M26.9849 80.3873L14.286 72.0098C12.7163 70.9744 10.4762 71.9592 10.4762 73.686V75.0794H0V89.0476H10.4762V90.4409C10.4762 92.1678 12.7163 93.1525 14.286 92.1171L26.9849 83.7397C28.2543 82.9016 28.2543 81.2271 26.9849 80.389V80.3873Z" fill="#E6E6E6"/>
<path d="M110.794 80.3873L98.0956 72.0098C96.5259 70.9744 94.2858 71.9592 94.2858 73.686V75.0794H83.8096V89.0476H94.2858V90.4409C94.2858 92.1678 96.5259 93.1525 98.0956 92.1171L110.794 83.7397C112.064 82.9016 112.064 81.2271 110.794 80.389V80.3873Z" fill="#E6E6E6"/>
<path d="M17.4603 22.6984V15.7143C17.4603 15.7143 10.4762 15.7143 10.4762 8.73016C10.4762 1.74603 17.4603 1.74603 17.4603 1.74603H101.27" stroke="#CBCBCB" stroke-width="3" stroke-miterlimit="10"/>
<path d="M27.9365 22.6984V15.7143H101.27" stroke="#CBCBCB" stroke-width="3" stroke-miterlimit="10"/>
</g>
<defs>
<clipPath id="clip0_530_564">
<rect width="111.746" height="110" fill="white"/>
</clipPath>
</defs>
</svg>
