<?xml version="1.0" encoding="UTF-8"?>
<svg id="BW" xmlns="http://www.w3.org/2000/svg" viewBox="0 0 800 800">
  <defs>
    <style>
      .cls-1 {
        fill: #cbcbcb;
      }

      .cls-2 {
        fill: gray;
      }
    </style>
  </defs>
  <path class="cls-2" d="m662.63,472.93c-10.88-10.88-24.28-14.4-37.73-9.92-8.14,2.71-13.9,7.58-15.8,9.33l-76.87,57.66h-134.74c11.34-14.73,24.38-36.3,21.38-54.78-.82-5.06-3.1-11.47-8.86-17.16v-28.07c22.06,0,40-17.94,40-40s-17.94-40-40-40h-20c-11.03,0-20-8.97-20-20s8.97-20,20-20h50v-20h-30v-30h-20v30c-22.06,0-40,17.94-40,40s17.94,40,40,40h20c11.03,0,20,8.97,20,20s-8.97,20-20,20h-50v20h30v16.98c-22.86-7.1-41.33,2.48-63.97,14.23-17.99,9.34-40.38,20.96-72.9,29.09-36.08,9.02-62.7,34.54-76.97,73.78-8.94,24.59-10.34,47.12-10.56,53.89l-39.33,98.31,18.57,7.43,40.72-101.79v-1.93c0-.92.83-92.4,72.43-110.3,34.81-8.7,58.35-20.92,77.27-30.74,26.48-13.74,37.94-18.96,55.84-10.02,6.26,3.13,7.58,6.71,8.03,9.48,2.43,14.91-17.5,41.35-30.63,54.51l-17.07,17.07h187.48l82.67-62,.51-.37.5-.5s3.86-3.69,9.14-5.3c6.04-1.84,11.37-.17,16.78,5.24,5.41,5.41,7.08,10.74,5.24,16.78-1.6,5.26-5.24,9.08-5.24,9.08l-.5.5-60.43,80.57-34.38,51.55c-1.86,2.79-4.97,4.45-8.32,4.45h-234.88c-12.93,0-24.37,8.24-28.46,20.51l-15.44,46.32,18.97,6.32,15.44-46.32c1.36-4.09,5.18-6.84,9.49-6.84h234.88c10.05,0,19.38-4.99,24.96-13.36l33.91-50.86,59.49-79.32c1.75-1.89,6.62-7.66,9.33-15.8,4.48-13.45.96-26.85-9.92-37.73Z"/>
  <path class="cls-1" d="m706.51,364.44c-4.94-22.49-15.19-41.72-15.63-42.52l-4.73-8.81-93.12,50.04c-15.06,8.09-31.09,26.43-21.98,67.88,4.94,22.49,15.19,41.72,15.63,42.52l4.73,8.81,93.12-50.04c15.06-8.09,31.09-26.43,21.99-67.88Z"/>
  <path class="cls-2" d="m593.21,256.62c-20.45-32.17-48.32-59.98-80.92-80.84l37.71-73.37v-2.42c0-12.2-13.9-18.94-49.59-24.04-26.9-3.84-62.56-5.96-100.41-5.96s-73.51,2.12-100.41,5.96c-35.69,5.1-49.59,11.84-49.59,24.04v2.42l37.71,73.37c-32.6,20.86-60.47,48.66-80.92,80.83-10.65,16.75-19.03,34.39-25.04,52.51l15.3,18.58c14.09-53.76,50.58-102.9,102.31-135.63,21.14,17.91,49.1,17.92,100.64,17.92s79.51-.01,100.64-17.92c53.82,34.05,91.15,85.87,103.9,142.17l18.19-9.77c-5.97-23.5-15.89-46.4-29.53-67.85Zm-193.21-66.62c-50.95,0-74.75,0-90.66-15.9l-36.94-71.86c13.53-5.12,56.55-12.25,127.6-12.25s114.07,7.13,127.6,12.25l-36.94,71.86c-15.91,15.9-39.71,15.9-90.66,15.9Z"/>
  <path class="cls-1" d="m263.9,380.11c-10.21-18.15-24.96-30.41-25.59-30.92l-7.72-6.36-76.83,93.29c-17.26,20.95-18.71,45.66-4.19,71.45,10.21,18.15,24.96,30.41,25.59,30.92l7.72,6.36,76.83-93.29c17.26-20.96,18.71-45.66,4.19-71.45Z"/>
  <path class="cls-1" d="m194.14,355.64l-40.94-49.71-7.72,6.36c-.51.42-12.64,10.47-22.46,23.74-19.03,25.74-13.84,42.3-6.13,51.66l25.43,30.88,51.82-62.92Z"/>
</svg>