<?xml version="1.0" encoding="UTF-8"?>
<svg id="Capa_8" data-name="Capa 8" xmlns="http://www.w3.org/2000/svg" viewBox="0 0 800 800">
  <defs>
    <style>
      .cls-1 {
        fill: #fbbf20;
      }

      .cls-2 {
        fill: #1d1d1b;
      }
    </style>
  </defs>
  <path class="cls-2" d="m144.84,723.71l-18.57-7.43,39.33-98.31c.22-6.77,1.62-29.3,10.56-53.89,14.27-39.25,40.89-64.76,76.97-73.78,32.53-8.13,54.92-19.75,72.9-29.09,25.85-13.42,46.27-24.01,73.99-10.15,13.41,6.7,17.64,16.84,18.83,24.17,3,18.47-10.04,40.05-21.38,54.78h134.74l76.87-57.66c1.89-1.75,7.66-6.62,15.8-9.33,13.45-4.49,26.85-.96,37.73,9.92,10.88,10.88,14.4,24.28,9.92,37.73-2.71,8.14-7.58,13.9-9.33,15.8l-59.49,79.32-33.91,50.86c-5.58,8.37-14.91,13.36-24.96,13.36h-234.88c-4.31,0-8.12,2.75-9.49,6.84l-15.44,46.32-18.97-6.32,15.44-46.32c4.09-12.27,15.53-20.51,28.46-20.51h234.88c3.35,0,6.46-1.67,8.32-4.45l34.38-51.55,60.43-80.57.5-.5h0s3.64-3.82,5.24-9.08c1.84-6.04.17-11.37-5.24-16.78-5.41-5.41-10.74-7.08-16.78-5.24-5.28,1.6-9.1,5.26-9.14,5.3l-.5.5-.51.37-82.67,62h-187.48l17.07-17.07c13.13-13.16,33.06-39.6,30.63-54.51-.45-2.77-1.77-6.35-8.03-9.48-17.9-8.95-29.35-3.73-55.84,10.02-18.92,9.82-42.46,22.04-77.27,30.74-71.6,17.9-72.43,109.38-72.43,110.3v1.93l-40.72,101.79Z"/>
  <path class="cls-2" d="m410,350h-20c-11.03,0-20-8.97-20-20s8.97-20,20-20h50v-20h-30v-30h-20v30c-22.06,0-40,17.94-40,40s17.94,40,40,40h20c11.03,0,20,8.97,20,20s-8.97,20-20,20h-50v20h30v30h20v-30c22.06,0,40-17.94,40-40s-17.94-40-40-40Z"/>
  <path class="cls-1" d="m706.51,364.44c-4.94-22.49-15.19-41.72-15.63-42.52l-4.73-8.81-93.12,50.04c-15.06,8.09-31.09,26.43-21.98,67.88,4.94,22.49,15.19,41.72,15.63,42.52l4.73,8.81,93.12-50.04c15.06-8.09,31.09-26.43,21.99-67.88Z"/>
  <path class="cls-2" d="m593.21,256.62c-20.45-32.17-48.32-59.98-80.92-80.84l37.71-73.37v-2.42c0-12.2-13.9-18.94-49.59-24.04-26.9-3.84-62.56-5.96-100.41-5.96s-73.51,2.12-100.41,5.96c-35.69,5.1-49.59,11.84-49.59,24.04v2.42l37.71,73.37c-32.6,20.86-60.47,48.66-80.92,80.83-10.65,16.75-19.03,34.39-25.04,52.51l15.3,18.58c14.09-53.76,50.58-102.9,102.31-135.63,21.14,17.91,49.1,17.92,100.64,17.92s79.51-.01,100.64-17.92c53.82,34.05,91.15,85.87,103.9,142.17l18.19-9.77c-5.97-23.5-15.89-46.4-29.53-67.85Zm-193.21-66.62c-50.95,0-74.75,0-90.66-15.9l-36.94-71.86c13.53-5.12,56.55-12.25,127.6-12.25s114.07,7.13,127.6,12.25l-36.94,71.86c-15.91,15.9-39.71,15.9-90.66,15.9Z"/>
  <path class="cls-1" d="m263.9,380.11c-10.21-18.15-24.96-30.41-25.59-30.92l-7.72-6.36-76.83,93.29c-17.26,20.95-18.71,45.66-4.19,71.45,10.21,18.15,24.96,30.41,25.59,30.92l7.72,6.36,76.83-93.29c17.26-20.96,18.71-45.66,4.19-71.45Z"/>
  <path class="cls-1" d="m194.14,355.64l-40.94-49.71-7.72,6.36c-.51.42-12.64,10.47-22.46,23.74-19.03,25.74-13.84,42.3-6.13,51.66l25.43,30.88,51.82-62.92Z"/>
</svg>