<?xml version="1.0" encoding="UTF-8"?>
<svg id="BW" xmlns="http://www.w3.org/2000/svg" viewBox="0 0 800 800">
  <defs>
    <style>
      .cls-1 {
        fill: #cbcbcb;
      }

      .cls-2 {
        fill: gray;
      }
    </style>
  </defs>
  <circle class="cls-1" cx="400" cy="400" r="200"/>
  <path class="cls-2" d="m410.5,300.5h-21v-41h21v41Zm-20-1h19v-39h-19v39Z"/>
  <g>
    <path class="cls-2" d="m415,390h-30c-19.3,0-35-15.7-35-35s15.7-35,35-35h75v-20h-50v-40h-20v40h-5c-30.33,0-55,24.67-55,55s24.67,55,55,55h30c19.3,0,35,15.7,35,35s-15.7,35-35,35h-75v20h50v40h20v-40h5c30.33,0,55-24.67,55-55s-24.67-55-55-55Z"/>
    <path class="cls-2" d="m410.5,540.5h-21v-41h21v41Zm-20-1h19v-39h-19v39Z"/>
  </g>
  <g>
    <path class="cls-2" d="m680,453.08c-3.79,0-7.25-2.14-8.94-5.53l-43.08-86.15c-2.47-4.94-.47-10.95,4.47-13.42,4.94-2.47,10.95-.47,13.42,4.47l34.13,68.27,34.13-68.27c2.47-4.94,8.48-6.94,13.42-4.47,4.94,2.47,6.94,8.48,4.47,13.42l-43.08,86.15c-1.69,3.39-5.16,5.53-8.94,5.53Z"/>
    <path class="cls-2" d="m163.08,453.08c-3.67,0-7.2-2.03-8.95-5.53l-34.13-68.27-34.13,68.27c-2.47,4.94-8.48,6.94-13.42,4.47-4.94-2.47-6.94-8.48-4.47-13.42l43.08-86.15c1.69-3.39,5.16-5.53,8.94-5.53s7.25,2.14,8.94,5.53l43.08,86.15c2.47,4.94.47,10.95-4.47,13.42-1.43.72-2.96,1.06-4.46,1.06Z"/>
    <g>
      <path class="cls-2" d="m400,690c-77.46,0-150.29-30.17-205.06-84.94-54.77-54.77-84.94-127.6-84.94-205.06,0-8.01.33-16.11.99-24.08.45-5.5,5.28-9.6,10.79-9.15,5.5.45,9.6,5.28,9.14,10.79-.61,7.42-.92,14.97-.92,22.43,0,148.88,121.12,270,270,270,109.35,0,207.2-65.22,249.3-166.16,2.13-5.1,7.98-7.5,13.08-5.38,5.1,2.13,7.51,7.98,5.38,13.08-21.77,52.2-58.08,96.64-105.02,128.52-48.1,32.67-104.37,49.94-162.74,49.94Z"/>
      <path class="cls-2" d="m679.19,431.54c-.25,0-.51,0-.77-.03-5.51-.42-9.63-5.22-9.21-10.73.52-6.87.79-13.86.79-20.78,0-148.88-121.12-270-270-270-109.35,0-207.2,65.22-249.3,166.16-2.13,5.1-7.98,7.51-13.08,5.38-5.1-2.13-7.51-7.98-5.38-13.08,21.77-52.2,58.08-96.64,105.02-128.52,48.1-32.67,104.37-49.94,162.74-49.94,77.46,0,150.29,30.17,205.06,84.94,54.77,54.77,84.94,127.6,84.94,205.06,0,7.42-.29,14.93-.85,22.3-.4,5.25-4.78,9.24-9.96,9.24Z"/>
    </g>
  </g>
</svg>