<?xml version="1.0" encoding="UTF-8"?>
<svg id="COLOR" xmlns="http://www.w3.org/2000/svg" viewBox="0 0 800 800">
  <defs>
    <style>
      .cls-1 {
        fill: #2d7dd1;
      }

      .cls-2 {
        fill: #1d1d1b;
      }
    </style>
  </defs>
  <path class="cls-1" d="m189.31,200c49.7,0,90,40.3,90,90s-40.3,90-90,90-90-40.29-90-90,40.29-90,90-90Z"/>
  <path class="cls-1" d="m700.69,290c0,49.71-40.29,90-90,90-49.7,0-90-40.29-90-90,0-49.7,40.3-90,90-90,49.71,0,90,40.3,90,90Z"/>
  <path class="cls-1" d="m610.69,396.76c-49.02,0-90.51,32.36-104.37,76.93l-106.32,106.32-106.32-106.32c-13.86-44.57-55.35-76.93-104.37-76.93-60.38,0-109.31,49.06-109.31,109.57v213.67h218.62v-121.38l47.06,47.06c14.79,14.79,37.77,16.37,54.32,4.75,16.55,11.61,39.53,10.03,54.32-4.75l47.06-47.06v121.38h218.62v-213.67c0-60.51-48.93-109.57-109.31-109.57Z"/>
  <rect class="cls-2" x="260" y="190" width="40" height="20"/>
  <rect class="cls-2" x="295.03" y="112.02" width="20" height="35.99" transform="translate(27.64 311.69) rotate(-56.31)"/>
  <rect class="cls-2" x="390" y="80.78" width="20" height="39.22"/>
  <rect class="cls-2" x="500" y="190" width="40" height="20"/>
  <rect class="cls-2" x="476.98" y="120.02" width="35.99" height="20" transform="translate(11.01 296.4) rotate(-33.69)"/>
  <path class="cls-2" d="m448,410c-1.52,0-15.27.25-29.3,9.02-2.84,1.78-5.81,3.98-8.7,6.71v-75.73h26.36c15.54,0,28.18-12.64,28.18-28.18v-57.37c11.75-14.65,18.18-32.87,18.18-51.72,0-45.57-37.07-82.68-82.64-82.73h-.08c-22,0-42.74,8.62-58.41,24.26-15.68,15.67-24.32,36.43-24.32,58.46,0,18.85,6.43,37.07,18.18,51.72v57.37c0,15.54,12.64,28.18,28.18,28.18h26.36v75.73c-2.9-2.73-5.86-4.93-8.7-6.71-14.03-8.77-27.78-9.02-29.3-9.02h-42v10c0,35.58,15.61,52.8,28.7,60.98,14.03,8.77,27.78,9.02,29.3,9.02h22v51.72l10,10,10-10v-51.72h22c1.52,0,15.27-.25,29.3-9.02,13.09-8.18,28.7-25.41,28.7-60.98v-10h-42Zm-95.05-155.81c-10.11-11.46-15.68-26.19-15.68-41.46,0-16.69,6.55-32.43,18.46-44.32,11.89-11.88,27.61-18.41,44.27-18.41h.06c34.55.03,62.66,28.17,62.66,62.73,0,15.27-5.57,30-15.68,41.46l-2.5,2.83v28.43c0,4.51-3.67,8.18-8.18,8.18h-72.73c-4.51,0-8.18-3.67-8.18-8.18v-28.43l-2.5-2.83Zm2.5,67.63v-9.4c2.59.79,5.34,1.22,8.18,1.22h72.73c2.85,0,5.59-.43,8.18-1.22v9.4c0,4.51-3.67,8.18-8.18,8.18h-72.73c-4.51,0-8.18-3.67-8.18-8.18Zm12.55,148.18c-.09,0-9.39-.16-18.7-5.98-10.69-6.68-16.98-18.1-18.77-34.02h21.47c.09,0,9.39.16,18.7,5.98,10.69,6.68,16.98,18.1,18.77,34.02h-21.47Zm83.36-6.4c-9.44,6.18-19.33,6.4-19.36,6.4h-21.47c1.75-15.58,7.82-26.86,18.11-33.6,9.44-6.18,19.33-6.4,19.36-6.4h21.47c-1.75,15.58-7.82,26.86-18.11,33.6Z"/>
</svg>