<svg id="visual" viewBox="0 0 540 960" width="540" height="960" xmlns="http://www.w3.org/2000/svg" xmlns:xlink="http://www.w3.org/1999/xlink" version="1.1"><path d="M0 107L60 145L120 135L180 87L240 145L300 116L360 126L420 135L480 126L540 135L540 0L480 0L420 0L360 0L300 0L240 0L180 0L120 0L60 0L0 0Z" fill="#03bd76"></path><path d="M0 337L60 327L120 308L180 308L240 347L300 241L360 327L420 337L480 356L540 251L540 133L480 124L420 133L360 124L300 114L240 143L180 85L120 133L60 143L0 105Z" fill="#01a769"></path><path d="M0 663L60 606L120 567L180 577L240 577L300 596L360 615L420 577L480 615L540 548L540 249L480 354L420 335L360 325L300 239L240 345L180 306L120 306L60 325L0 335Z" fill="#00925c"></path><path d="M0 759L60 750L120 663L180 721L240 654L300 683L360 702L420 654L480 692L540 673L540 546L480 613L420 575L360 613L300 594L240 575L180 575L120 565L60 604L0 661Z" fill="#017e4f"></path><path d="M0 961L60 961L120 961L180 961L240 961L300 961L360 961L420 961L480 961L540 961L540 671L480 690L420 652L360 700L300 681L240 652L180 719L120 661L60 748L0 757Z" fill="#016a42"></path></svg>