<?xml version="1.0" encoding="UTF-8"?>
<svg id="Layer_1" data-name="Layer 1" xmlns="http://www.w3.org/2000/svg" viewBox="0 0 512.15 511.96">
  <defs>
    <style>
      .cls-1 {
        fill: #fff;
      }
    </style>
  </defs>
  <path class="cls-1" d="m200.64,511.96c-6.01-.38-11.97-1.42-17.75-3.11-39.75-10.98-63.07-52.1-52.1-91.85,6.03-21.84,21.66-39.76,42.47-48.72-3.81-19.29-3.39-39.17,1.22-58.28,16.98-68.62,86.38-110.48,155-93.5,39.46,9.77,71.93,37.69,87.49,75.24h0c3.55,5.75,9.61,9.47,16.34,10.05,55.7,15.18,89.3,71.84,75.88,128-9.1,39.21-39.72,69.83-78.93,78.93-7.44,1.84-15.04,2.93-22.7,3.24h-206.93Zm-72.53-165.76c-.42-15.57,1.23-31.13,4.91-46.27,22.51-91.53,114.96-147.48,206.49-124.96,47.84,11.77,88.25,43.63,110.86,87.39,23.37,7.44,44.57,20.48,61.74,37.99,1.04-75.6-48.06-142.76-120.41-164.71-7.43-2.3-13.22-8.17-15.4-15.64h0C348.29,30,252.63-20.25,162.63,7.75,102.73,26.39,57.88,76.4,45.84,137.96c-7.5,37.69-1.46,76.82,17.07,110.49C18.66,271.29-6.11,319.78,1.3,369.02c8.87,45.73,42.68,82.6,87.47,95.4-10.62-43.69,4.65-89.61,39.34-118.23Z"/>
</svg>