<?xml version="1.0" encoding="UTF-8"?>
<svg id="Capa_1" data-name="Capa 1" xmlns="http://www.w3.org/2000/svg" viewBox="0 0 460.68 512">
  <defs>
    <style>
      .cls-1 {
        fill: #fff;
      }
    </style>
  </defs>
  <path class="cls-1" d="m8.62,384c17.65,30.63,56.78,41.15,87.41,23.5.02-.01.04-.02.06-.04l9.49-5.48c17.92,15.33,38.52,27.22,60.76,35.07v10.95c0,35.35,28.65,64,64,64s64-28.65,64-64v-10.94c22.24-7.86,42.84-19.77,60.76-35.11l9.54,5.5c30.63,17.67,69.79,7.17,87.47-23.47,17.67-30.63,7.17-69.79-23.47-87.47h0l-9.47-5.46c4.26-23.2,4.26-46.99,0-70.19l9.47-5.46c30.63-17.67,41.14-56.83,23.47-87.47-17.67-30.63-56.83-41.14-87.47-23.47l-9.49,5.48c-17.94-15.31-38.55-27.18-60.8-35.01v-10.94C294.34,28.65,265.69,0,230.34,0s-64,28.65-64,64v10.94c-22.24,7.86-42.84,19.77-60.76,35.12l-9.54-5.53c-30.63-17.67-69.79-7.17-87.47,23.47-17.67,30.63-7.17,69.79,23.47,87.47h0l9.47,5.46c-4.26,23.2-4.26,46.99,0,70.19l-9.47,5.46c-30.55,17.72-41.02,56.8-23.42,87.42Zm221.72-213.33c47.13,0,85.33,38.21,85.33,85.33s-38.21,85.33-85.33,85.33-85.33-38.21-85.33-85.33,38.2-85.33,85.33-85.33Z"/>
</svg>