<svg width="67" height="40" viewBox="0 0 67 40" fill="none" xmlns="http://www.w3.org/2000/svg">
<g id="Capa_4">
<path id="Vector" d="M18.519 14.5614C28.2598 14.5614 36.1562 11.4981 36.1562 7.7193C36.1562 3.94051 28.2598 0.877197 18.519 0.877197C8.77827 0.877197 0.881836 3.94051 0.881836 7.7193C0.881836 11.4981 8.77827 14.5614 18.519 14.5614Z" stroke="#FDF479" stroke-miterlimit="10"/>
<path id="Vector_2" d="M36.1562 7.7193V32.2807C36.1562 36.0597 28.2583 39.1228 18.519 39.1228C8.77976 39.1228 0.881836 36.0597 0.881836 32.2807V7.7193" stroke="#FDF479" stroke-miterlimit="10"/>
<path id="Vector_3" d="M36.1562 24.5614C36.1562 28.3403 28.2583 31.4035 18.519 31.4035C8.77976 31.4035 0.881836 28.3403 0.881836 24.5614" stroke="#FDF479" stroke-miterlimit="10"/>
<path id="Vector_4" d="M36.1562 16.1404C36.1562 19.9193 28.2583 22.9825 18.519 22.9825C8.77976 22.9825 0.881836 19.9193 0.881836 16.1404" stroke="#FDF479" stroke-miterlimit="10"/>
<path id="Vector_5" d="M47.7967 39.1228C57.5375 39.1228 65.4339 31.2682 65.4339 21.579C65.4339 11.8897 57.5375 4.0351 47.7967 4.0351C38.056 4.0351 30.1595 11.8897 30.1595 21.579C30.1595 31.2682 38.056 39.1228 47.7967 39.1228Z" fill="#FFB200"/>
<path id="Vector_6" d="M47.7967 39.1228C57.5375 39.1228 65.4339 31.2682 65.4339 21.579C65.4339 11.8897 57.5375 4.0351 47.7967 4.0351C38.056 4.0351 30.1595 11.8897 30.1595 21.579C30.1595 31.2682 38.056 39.1228 47.7967 39.1228Z" stroke="#FDF479" stroke-miterlimit="10"/>
</g>
</svg>
