<svg width="40" height="40" viewBox="0 0 40 40" fill="none" xmlns="http://www.w3.org/2000/svg">
<g id="Vector">
<path fill-rule="evenodd" clip-rule="evenodd" d="M35.666 0.745731C35.4098 0.274678 34.9112 -0.0131352 34.3749 0.000461371C31.9698 0.0615317 26.7147 1.3732 23.5208 6.11018C20.2451 4.29672 16.8263 4.58754 15.4792 4.97858C15.0095 5.11495 14.6421 5.48223 14.5055 5.95197C13.9786 7.76645 13.6529 12.1858 16.8309 15.3628C18.3214 16.853 19.9108 17.4989 21.4028 17.524C22.3508 17.54 23.2036 17.3041 23.9036 16.9416C24.2696 17.2755 24.6416 17.5434 24.989 17.7439C26.067 18.3661 27.8253 18.8697 29.7638 18.4798C31.7664 18.077 33.7838 16.7568 35.3549 14.036C38.4706 8.64075 36.8786 2.97377 35.666 0.745731ZM22.1925 14.5657C22.1094 14.3769 22.0328 14.1809 21.9642 13.9779C21.4537 12.4627 21.4254 10.6584 22.1914 8.64052C20.2705 7.56033 18.2683 7.45993 17.0829 7.57956C16.8846 9.11691 17.0835 11.5758 18.8511 13.343C19.896 14.3876 20.8037 14.657 21.4511 14.6679C21.7214 14.6725 21.9708 14.6325 22.1925 14.5657Z" fill="#43E5FF"/>
<path fill-rule="evenodd" clip-rule="evenodd" d="M26.6745 23.4264C27.2973 23.8401 27.6845 24.4331 27.9256 25.0869C28.4193 26.4266 28.2144 27.7008 27.4907 28.746C27.4859 28.7531 27.4807 28.7603 27.4759 28.7674C28.6476 28.4035 29.7679 27.9656 30.8241 27.5148C31.4355 27.2541 32.051 26.9767 32.6475 26.7076C33.7718 26.2006 34.8298 25.7233 35.6712 25.4437C36.322 25.2271 37.0903 25.0352 37.8249 25.128C38.2217 25.1783 38.642 25.3154 39.0211 25.6008C39.4023 25.8878 39.6606 26.264 39.8243 26.6656C40.1831 27.546 39.9271 28.432 39.6368 29.0542C39.3277 29.7174 38.8383 30.3907 38.2694 31.0374C37.1237 32.3399 35.462 33.7527 33.5972 35.0501C31.7252 36.3526 29.5953 37.5766 27.4847 38.4798C25.3968 39.3736 23.2211 40 21.2891 40C19.5829 40.0003 15.3015 39.5801 11.1154 38.9703C9.00684 38.6632 6.88501 38.3024 5.08421 37.9125C3.33821 37.5343 1.73003 37.0962 0.763761 36.5883C0.29411 36.3415 0 35.8548 0 35.324V25.5808C0 25.1803 0.168169 24.7984 0.463508 24.5276C0.758846 24.2571 1.15421 24.1231 1.55326 24.158C10.6573 24.9555 16.4843 24.0751 20.2203 23.4353C20.442 23.3973 20.6608 23.3593 20.8757 23.3219C22.3985 23.0568 23.7388 22.8235 24.7633 22.8672C25.3945 22.894 26.0705 23.0257 26.6745 23.4264ZM2.8571 27.1264V34.374C3.53115 34.6062 4.49053 34.8613 5.68903 35.1209C7.40341 35.492 9.45566 35.8419 11.5274 36.1438C15.7018 36.7517 19.8063 37.1439 21.2888 37.1436C22.6671 37.1436 24.4322 36.6794 26.3605 35.8539C28.2659 35.0384 30.227 33.9152 31.9652 32.7058C33.7104 31.4913 35.1775 30.227 36.124 29.151C36.5109 28.7111 36.7795 28.3378 36.9466 28.0419C36.8409 28.0696 36.7169 28.1061 36.5732 28.1538C35.8606 28.3909 35.0418 28.7614 34.0378 29.2156C33.4172 29.4964 32.7258 29.8091 31.9452 30.1422C28.0793 31.7915 22.7057 33.5985 16.898 31.8178C16.19 31.601 15.7655 30.8791 15.9198 30.155C16.0738 29.4309 16.756 28.9448 17.4909 29.0348C19.478 29.2787 21.8654 28.9791 23.5345 28.2558C24.3722 27.8928 24.8905 27.4831 25.1416 27.1204C25.3419 26.8307 25.4128 26.5305 25.2448 26.0746C25.1979 25.9478 25.1568 25.8801 25.1328 25.847C25.1116 25.8178 25.0996 25.8098 25.0942 25.8061C25.0825 25.7984 24.9828 25.7356 24.6416 25.721C23.9482 25.6913 22.9548 25.8627 21.3128 26.1458C21.1188 26.1792 20.9154 26.2143 20.7026 26.2509C17.0426 26.8776 11.4112 27.7282 2.8571 27.1264ZM37.142 27.5768C37.142 27.5768 37.142 27.5783 37.1417 27.5811L37.142 27.5768Z" fill="#43E5FF"/>
</g>
</svg>
