<svg width="40" height="40" viewBox="0 0 40 40" fill="none" xmlns="http://www.w3.org/2000/svg">
<g id="Vector">
<path d="M20 17.3084C23.2861 17.3084 25.95 14.5984 25.95 11.2556C25.95 7.91268 23.2861 5.20274 20 5.20274C16.7139 5.20274 14.05 7.91268 14.05 11.2556C14.05 14.5984 16.7139 17.3084 20 17.3084Z" fill="#1D36AE"/>
<path d="M10.975 11.8608H11.575C11.575 11.6677 11.575 11.5002 11.575 11.3071C11.5787 9.69676 12.0196 8.11964 12.848 6.75409C13.6764 5.38855 14.8592 4.28909 16.2625 3.58007C15.8471 2.59431 15.1802 1.74289 14.3328 1.11624C13.4854 0.489578 12.4891 0.111087 11.4496 0.0209617C10.4102 -0.0691638 9.36649 0.132442 8.42935 0.604365C7.4922 1.07629 6.69661 1.80091 6.12709 2.70126C5.55757 3.60161 5.23537 4.64408 5.19472 5.71794C5.15407 6.7918 5.39649 7.85695 5.89623 8.80027C6.39597 9.74358 7.13436 10.5298 8.03299 11.0755C8.93162 11.6212 9.95693 11.9059 11 11.8995L10.975 11.8608Z" fill="#1D36AE"/>
<path d="M28.45 11.2556V11.8093H29.05C30.0792 11.7987 31.0866 11.5024 31.9661 10.9516C32.8456 10.4009 33.5647 9.61599 34.0478 8.67964C34.5309 7.74329 34.76 6.69009 34.7111 5.63089C34.6621 4.57169 34.3369 3.54567 33.7697 2.66083C33.2025 1.77599 32.4142 1.06506 31.4879 0.602856C30.5616 0.140655 29.5315 -0.0557152 28.5059 0.0344148C27.4804 0.124545 26.4974 0.497841 25.6605 1.11501C24.8235 1.73218 24.1635 2.5704 23.75 3.54144C25.1538 4.24768 26.3379 5.34436 27.1684 6.70754C27.999 8.07073 28.4429 9.64608 28.45 11.2556Z" fill="#1D36AE"/>
<path d="M25.3625 17.9137C27.8478 18.4205 30.2509 19.2877 32.5 20.4893C32.8169 20.6687 33.1038 20.8991 33.35 21.1719H40V16.7675C40.0012 16.5986 39.9576 16.4325 39.8739 16.2872C39.7902 16.142 39.6695 16.023 39.525 15.9433C36.2852 14.1974 32.6812 13.2912 29.025 13.3032H28.2C27.7668 15.1174 26.7705 16.7363 25.3625 17.9137Z" fill="#1D36AE"/>
<path d="M5.66252 23.6703C5.66023 23.0217 5.83025 22.3848 6.15414 21.8286C6.47804 21.2725 6.94347 20.8182 7.50001 20.5151C9.74911 19.3134 12.1522 18.4462 14.6375 17.9394C13.2363 16.772 12.2407 15.1678 11.8 13.3676H10.975C7.3188 13.3556 3.71483 14.2618 0.475024 16.0077C0.330485 16.0874 0.209844 16.2064 0.126131 16.3516C0.0424171 16.4969 -0.0011879 16.6629 2.46147e-05 16.8319V25.0611H5.66252V23.6703Z" fill="#1D36AE"/>
<path d="M24.325 31.1011H31.775V32.904H24.325V31.1011Z" fill="#1D36AE"/>
<path d="M38.5125 24.1081H29.925V22.8203C29.925 22.4787 29.7933 22.1512 29.5589 21.9097C29.3244 21.6682 29.0065 21.5325 28.675 21.5325C28.3435 21.5325 28.0255 21.6682 27.7911 21.9097C27.5567 22.1512 27.425 22.4787 27.425 22.8203V24.1081H25V20.4636C23.3554 20.1078 21.6804 19.9223 20 19.9098C16.0547 19.8929 12.1658 20.8746 8.67501 22.7688C8.51953 22.8519 8.38937 22.9777 8.29893 23.1322C8.20849 23.2868 8.16127 23.4641 8.16251 23.6445V30.8693H17.05V38.7122C17.05 39.0537 17.1817 39.3813 17.4161 39.6228C17.6505 39.8643 17.9685 40 18.3 40H38.5125C38.844 40 39.1619 39.8643 39.3964 39.6228C39.6308 39.3813 39.7625 39.0537 39.7625 38.7122V25.396C39.7625 25.0544 39.6308 24.7268 39.3964 24.4853C39.1619 24.2438 38.844 24.1081 38.5125 24.1081ZM37.2625 37.4501H19.55V26.6838H27.425V27.8557C27.425 28.1973 27.5567 28.5249 27.7911 28.7664C28.0255 29.0079 28.3435 29.1436 28.675 29.1436C29.0065 29.1436 29.3244 29.0079 29.5589 28.7664C29.7933 28.5249 29.925 28.1973 29.925 27.8557V26.6838H37.2625V37.4501Z" fill="#1D36AE"/>
</g>
</svg>
