<svg width="45" height="40" viewBox="0 0 45 40" fill="none" xmlns="http://www.w3.org/2000/svg">
<path id="Vector" d="M44.5852 18.4586L40 14.4094V3.75C40 3.41848 39.8683 3.10054 39.6339 2.86612C39.3995 2.6317 39.0815 2.5 38.75 2.5H33.75C33.4185 2.5 33.1005 2.6317 32.8661 2.86612C32.6317 3.10054 32.5 3.41848 32.5 3.75V7.78672L24.5922 0.804687C24.1016 0.360156 23.1664 0 22.5 0C21.8336 0 20.9016 0.360156 20.4109 0.804687L0.410938 18.4609C0.164517 18.7099 0.0182563 19.0408 0 19.3906C0.0159663 19.6962 0.127766 19.9889 0.319531 20.2273L1.99219 22.0859C2.25287 22.3199 2.58119 22.4649 2.92969 22.5C3.23183 22.4698 3.52029 22.3589 3.76484 22.1789L5.00703 21.0852V37.5C5.00703 38.163 5.27042 38.7989 5.73926 39.2678C6.20811 39.7366 6.84399 40 7.50703 40H37.5C38.163 40 38.7989 39.7366 39.2678 39.2678C39.7366 38.7989 40 38.163 40 37.5V21.0844L41.243 22.1781C41.4886 22.3579 41.7777 22.469 42.0805 22.5C42.4258 22.4639 42.7507 22.3186 43.0078 22.0852L44.6805 20.225C44.86 19.9803 44.9704 19.6919 45 19.3898C44.9641 19.0432 44.8188 18.7171 44.5852 18.4586ZM22.5 13.75C23.4889 13.75 24.4556 14.0432 25.2779 14.5927C26.1001 15.1421 26.741 15.923 27.1194 16.8366C27.4978 17.7502 27.5969 18.7555 27.4039 19.7255C27.211 20.6954 26.7348 21.5863 26.0355 22.2855C25.3363 22.9848 24.4454 23.461 23.4755 23.6539C22.5055 23.8469 21.5002 23.7478 20.5866 23.3694C19.673 22.991 18.8921 22.3501 18.3427 21.5279C17.7932 20.7056 17.5 19.7389 17.5 18.75C17.5 17.4239 18.0268 16.1521 18.9645 15.2145C19.9021 14.2768 21.1739 13.75 22.5 13.75ZM31.25 35H13.75C13.4185 35 13.1005 34.8683 12.8661 34.6339C12.6317 34.3995 12.5 34.0815 12.5 33.75C12.5 31.7609 13.2902 29.8532 14.6967 28.4467C16.1032 27.0402 18.0109 26.25 20 26.25H25C26.9891 26.25 28.8968 27.0402 30.3033 28.4467C31.7098 29.8532 32.5 31.7609 32.5 33.75C32.5 34.0815 32.3683 34.3995 32.1339 34.6339C31.8995 34.8683 31.5815 35 31.25 35Z" fill="#40B7FF"/>
</svg>
