<svg width="35" height="40" viewBox="0 0 35 40" fill="none" xmlns="http://www.w3.org/2000/svg">
<path id="Vector" d="M24.9519 25.0476L17.4991 32.5004L10.0464 25.0476C4.46072 25.2898 0 29.8599 0 35.5002V36.2502C0 38.3204 1.67961 40 3.74982 40H31.2485C33.3187 40 34.9983 38.3204 34.9983 36.2502V35.5002C34.9983 29.8599 30.5376 25.2898 24.9519 25.0476ZM1.06245 6.23602L1.56242 6.35321V10.9155C1.01558 11.2436 0.62497 11.8139 0.62497 12.5013C0.62497 13.1576 0.984327 13.7044 1.49211 14.0403L0.273424 18.9073C0.140618 19.4463 0.437479 20.001 0.867145 20.001H4.13261C4.56228 20.001 4.85914 19.4463 4.72633 18.9073L3.50764 14.0403C4.01543 13.7044 4.37479 13.1576 4.37479 12.5013C4.37479 11.8139 3.98418 11.2436 3.43733 10.9155V6.80631L8.59333 8.04843C7.92149 9.39212 7.49963 10.892 7.49963 12.5013C7.49963 18.0245 11.976 22.5009 17.4991 22.5009C23.0223 22.5009 27.4987 18.0245 27.4987 12.5013C27.4987 10.892 27.0846 9.39212 26.405 8.04843L33.928 6.23602C35.3498 5.89229 35.3498 4.11894 33.928 3.77521L19.0538 0.181632C18.0382 -0.0605439 16.9679 -0.0605439 15.9523 0.181632L1.06245 3.76739C-0.351545 4.11113 -0.351545 5.89229 1.06245 6.23602Z" fill="#1D36AE"/>
</svg>
