<svg width="40" height="40" viewBox="0 0 40 40" fill="none" xmlns="http://www.w3.org/2000/svg">
<path id="Vector" fill-rule="evenodd" clip-rule="evenodd" d="M19.1873 0.200891C19.4396 0.0687861 19.7178 0 20 0C20.2822 0 20.5604 0.0687861 20.8127 0.200891L38.9945 9.72494C39.3604 9.91707 39.6538 10.2329 39.8271 10.6213C40.0004 11.0098 40.0435 11.4481 39.9495 11.8654C39.8555 12.2827 39.6298 12.6545 39.3091 12.9208C38.9882 13.1871 38.5911 13.3322 38.1818 13.3326H1.81818C1.40891 13.3322 1.01176 13.1871 0.690982 12.9208C0.3702 12.6545 0.144564 12.2827 0.0505454 11.8654C-0.0434546 11.4481 -0.000325501 11.0098 0.172964 10.6213C0.346254 10.2329 0.639564 9.91707 1.00545 9.72494L19.1873 0.200891ZM9.52 9.52304H30.48L20 4.03338L9.52 9.52304ZM9.09091 15.2375C9.57313 15.2375 10.0356 15.4382 10.3766 15.7954C10.7175 16.1526 10.9091 16.6371 10.9091 17.1423V26.6663C10.9091 27.1714 10.7175 27.6561 10.3766 28.0132C10.0356 28.3704 9.57313 28.5712 9.09091 28.5712C8.60869 28.5712 8.14624 28.3704 7.80525 28.0132C7.46429 27.6561 7.27273 27.1714 7.27273 26.6663V17.1423C7.27273 16.6371 7.46429 16.1526 7.80525 15.7954C8.14624 15.4382 8.60869 15.2375 9.09091 15.2375ZM16.3636 15.2375C16.8458 15.2375 17.3084 15.4382 17.6493 15.7954C17.9902 16.1526 18.1818 16.6371 18.1818 17.1423V26.6663C18.1818 27.1714 17.9902 27.6561 17.6493 28.0132C17.3084 28.3704 16.8458 28.5712 16.3636 28.5712C15.8814 28.5712 15.419 28.3704 15.078 28.0132C14.737 27.6561 14.5455 27.1714 14.5455 26.6663V17.1423C14.5455 16.6371 14.737 16.1526 15.078 15.7954C15.419 15.4382 15.8814 15.2375 16.3636 15.2375ZM23.6364 15.2375C24.1185 15.2375 24.5811 15.4382 24.922 15.7954C25.2629 16.1526 25.4545 16.6371 25.4545 17.1423V26.6663C25.4545 27.1714 25.2629 27.6561 24.922 28.0132C24.5811 28.3704 24.1185 28.5712 23.6364 28.5712C23.1542 28.5712 22.6916 28.3704 22.3507 28.0132C22.0098 27.6561 21.8182 27.1714 21.8182 26.6663V17.1423C21.8182 16.6371 22.0098 16.1526 22.3507 15.7954C22.6916 15.4382 23.1542 15.2375 23.6364 15.2375ZM30.9091 15.2375C31.3913 15.2375 31.8538 15.4382 32.1947 15.7954C32.5356 16.1526 32.7273 16.6371 32.7273 17.1423V26.6663C32.7273 27.1714 32.5356 27.6561 32.1947 28.0132C31.8538 28.3704 31.3913 28.5712 30.9091 28.5712C30.4269 28.5712 29.9644 28.3704 29.6235 28.0132C29.2825 27.6561 29.0909 27.1714 29.0909 26.6663V17.1423C29.0909 16.6371 29.2825 16.1526 29.6235 15.7954C29.9644 15.4382 30.4269 15.2375 30.9091 15.2375ZM3.63636 32.3808C3.63636 31.8756 3.82793 31.391 4.16889 31.0338C4.50987 30.6767 4.97233 30.4759 5.45455 30.4759H34.5455C35.0276 30.4759 35.4902 30.6767 35.8311 31.0338C36.172 31.391 36.3636 31.8756 36.3636 32.3808C36.3636 32.886 36.172 33.3704 35.8311 33.7277C35.4902 34.0849 35.0276 34.2855 34.5455 34.2855H5.45455C4.97233 34.2855 4.50987 34.0849 4.16889 33.7277C3.82793 33.3704 3.63636 32.886 3.63636 32.3808ZM0 38.0951C0 37.5899 0.191564 37.1055 0.532527 36.7483C0.873509 36.391 1.33596 36.1904 1.81818 36.1904H38.1818C38.664 36.1904 39.1265 36.391 39.4675 36.7483C39.8084 37.1055 40 37.5899 40 38.0951C40 38.6003 39.8084 39.0849 39.4675 39.4421C39.1265 39.7992 38.664 40 38.1818 40H1.81818C1.33596 40 0.873509 39.7992 0.532527 39.4421C0.191564 39.0849 0 38.6003 0 38.0951Z" fill="#0E6DD1"/>
</svg>
