<svg width="40" height="40" viewBox="0 0 40 40" fill="none" xmlns="http://www.w3.org/2000/svg">
<path id="Vector" d="M39.3254 1.96856C39.143 1.42266 38.5955 0.876753 38.048 0.694784C30.3837 -1.30687 22.5368 1.05872 17.2448 7.24565L15.2375 9.61125L10.3104 8.51943C7.93808 7.60959 5.3833 8.7014 4.28839 10.885L0.273727 17.9818C-0.0912423 18.5277 -0.0912423 19.0736 0.273727 19.6195C0.456212 20.1654 1.00367 20.5294 1.55112 20.7113L7.20814 21.9851C6.66069 23.4409 6.4782 24.8966 6.11323 26.3524C6.11323 26.8983 6.29572 27.4442 6.66069 27.8081L12.3177 33.4491C12.6827 33.8131 13.0476 33.995 13.5951 33.995H13.7776C15.4199 33.8131 16.8798 33.6311 18.3397 33.0852L19.4346 38.5443C19.6171 39.0902 19.9821 39.6361 20.5295 39.818C20.712 40 21.077 40 21.2595 40C21.6244 40 21.8069 40 22.1719 39.818L29.2888 35.8147C31.2961 34.7229 32.391 32.1754 31.8436 29.8098L30.5662 24.7146L32.756 22.713C38.778 17.6179 41.3328 9.42928 39.3254 1.96856ZM11.4053 14.1605C10.3104 15.6162 9.21547 17.072 8.48553 18.5277L4.65336 17.6179L7.39063 12.7047C7.7556 11.9768 8.48553 11.7949 9.39796 11.9768L12.5002 12.7047L11.4053 14.1605ZM27.2814 32.5393L22.3544 35.2688L21.6244 31.6294C23.2668 30.9016 24.7267 29.8098 26.0041 28.7179L27.2814 27.4442L28.0114 30.5376C28.3764 31.4475 27.8289 32.3573 27.2814 32.5393ZM28.5588 14.1605C27.099 14.1605 25.8216 12.8867 25.8216 11.4309C25.8216 9.97518 27.099 8.7014 28.5588 8.7014C30.0187 8.7014 31.2961 9.97518 31.2961 11.4309C31.2961 12.8867 30.2012 14.1605 28.5588 14.1605Z" fill="#2648E8"/>
</svg>
