<svg width="65" height="40" viewBox="0 0 65 40" fill="none" xmlns="http://www.w3.org/2000/svg">
<g clip-path="url(#clip0_61_2046)">
<path d="M30.4375 9.7191C23.6555 16.4501 23.6555 27.3583 30.4375 34.0893C37.2196 40.8203 48.2104 40.8203 54.9925 34.0893C59.5972 29.5192 62.4794 15.4196 63.8511 6.84128C64.4067 3.37066 61.389 0.372214 57.8921 0.9271C49.2487 2.29191 35.0422 5.14905 30.4375 9.7191Z" fill="#008A55"/>
<path d="M35.4867 14.7303C28.7047 21.4613 27.4997 31.3252 32.9621 36.5983C37.3342 40.8134 48.2139 40.8237 54.9959 34.0927C59.6006 29.5227 61.5627 16.5776 63.6844 8.74031C64.5422 5.56954 64.2262 3.18801 61.0314 4.03929C53.1346 6.1451 40.0914 10.1568 35.4867 14.7303Z" fill="#008A55"/>
<path d="M30.4375 9.7191C23.6555 16.4501 23.6555 27.3583 30.4375 34.0893C37.2196 40.8203 48.2104 40.8203 54.9925 34.0893C59.5972 29.5192 62.4794 15.4196 63.8511 6.84128C64.4067 3.37066 61.389 0.372214 57.8921 0.9271C49.2487 2.29191 35.0422 5.14905 30.4375 9.7191Z" stroke="#0DFF6E" stroke-miterlimit="10"/>
<path d="M30.4376 34.0927L57.9095 6.8275" stroke="#0DFF6E" stroke-miterlimit="10" stroke-linecap="round"/>
<path d="M34.3512 9.71912C41.1332 16.4501 41.1332 27.3583 34.3512 34.0893C27.5691 40.8203 16.5783 40.8203 9.79626 34.0893C5.18809 29.5192 2.30928 15.4196 0.934126 6.84129C0.378506 3.37068 3.39622 0.375672 6.89315 0.927111C15.5365 2.29192 29.743 5.14907 34.3477 9.71912H34.3512Z" fill="#008A55"/>
<path d="M29.3055 14.7303C36.0875 21.4613 37.2925 31.3252 31.83 36.5983C27.458 40.8134 16.5783 40.8237 9.79625 34.0927C5.18808 29.5192 3.22952 16.5742 1.10775 8.74031C0.250008 5.56954 0.566017 3.18801 3.76083 4.03929C11.6576 6.1451 24.7008 10.1568 29.3055 14.7303Z" fill="#008A55"/>
<path d="M34.3512 9.71912C41.1332 16.4501 41.1332 27.3583 34.3512 34.0893C27.5691 40.8203 16.5783 40.8203 9.79626 34.0893C5.18809 29.5192 2.30928 15.4196 0.934126 6.84129C0.378506 3.37068 3.39622 0.375672 6.89315 0.927111C15.5365 2.29192 29.743 5.14907 34.3477 9.71912H34.3512Z" stroke="#0DFF6E" stroke-miterlimit="10"/>
<path d="M34.3512 34.0927L6.87927 6.82751" stroke="#0DFF6E" stroke-miterlimit="10" stroke-linecap="round"/>
</g>
<defs>
<clipPath id="clip0_61_2046">
<rect width="64.7887" height="40" fill="white"/>
</clipPath>
</defs>
</svg>
