<svg width="55" height="55" viewBox="0 0 55 55" fill="none" xmlns="http://www.w3.org/2000/svg">
<circle cx="27.5" cy="27.5" r="27.5" transform="rotate(-180 27.5 27.5)" fill="#00B971"/>
<path d="M40.7012 29C41.5296 29 42.2012 28.3284 42.2012 27.5C42.2012 26.6716 41.5296 26 40.7012 26L40.7012 29ZM12.1405 26.4393C11.5547 27.0251 11.5547 27.9749 12.1405 28.5607L21.6865 38.1066C22.2722 38.6924 23.222 38.6924 23.8078 38.1066C24.3936 37.5208 24.3936 36.5711 23.8078 35.9853L15.3225 27.5L23.8078 19.0147C24.3936 18.4289 24.3936 17.4792 23.8078 16.8934C23.222 16.3076 22.2722 16.3076 21.6865 16.8934L12.1405 26.4393ZM40.7012 26L13.2012 26L13.2012 29L40.7012 29L40.7012 26Z" fill="white"/>
</svg>
