<svg width="170" height="170" viewBox="0 0 170 170" fill="none" xmlns="http://www.w3.org/2000/svg">
<circle cx="85" cy="85" r="85" fill="white"/>
<g clip-path="url(#clip0_157_452)">
<path d="M29 86.59L50.6274 65.0944L29 43.5988L37.6515 35L59.2789 56.4956L80.9063 35L89.5577 43.5988L67.9303 65.0944L89.5577 86.59L80.9063 95.1889L59.2789 73.6931L37.6515 95.1889L29 86.59ZM45.393 117.012L45.5918 120.956L30.1911 106.599H29V134.605H36.1454V124.625L35.9467 120.642L51.3448 135H52.5359V106.994H45.393V117.012ZM76.8518 125.138C76.8518 131.451 72.4472 135 66.3355 135C60.2213 135 55.8969 131.056 55.8969 125.138C55.8969 119.617 60.2213 115.278 66.3355 115.278C72.4472 115.277 76.8518 119.222 76.8518 125.138ZM70.1063 125.138C70.1063 122.378 68.4378 120.681 66.3755 120.681C64.2321 120.681 62.6447 122.378 62.6447 125.138C62.6447 127.901 64.2332 129.598 66.3755 129.598C68.4378 129.598 70.1063 127.901 70.1063 125.138ZM87.4792 127.347V120.327H91.0512V115.672H87.4792V110.07H86.4068L78.6291 118.235V120.327H80.8513V128.808C80.8513 132.87 82.3985 134.605 86.8831 134.605H89.9778L91.5663 129.359H89.6214C87.9568 129.359 87.4792 128.61 87.4792 127.347ZM108.943 128.728C104.182 128.728 101.403 125.493 101.403 120.8C101.403 115.907 104.577 112.87 108.824 112.87C111.165 112.87 112.952 113.58 114.301 114.646L117.635 109.044C115.65 107.662 112.12 106.599 108.626 106.599C99.6953 106.599 93.981 112.514 93.981 120.8C93.981 129.083 99.4966 134.999 108.667 134.999C112.516 134.999 115.771 133.738 118.033 132.041L114.698 126.834C113.309 127.98 111.563 128.728 108.943 128.728ZM140.009 125.138C140.009 131.451 135.605 135 129.493 135C123.379 135 119.054 131.056 119.054 125.138C119.054 119.617 123.379 115.278 129.493 115.278C135.605 115.277 140.009 119.222 140.009 125.138ZM133.264 125.138C133.264 122.378 131.595 120.681 129.533 120.681C127.389 120.681 125.802 122.378 125.802 125.138C125.802 127.901 127.391 129.598 129.533 129.598C131.595 129.598 133.264 127.901 133.264 125.138Z" fill="black"/>
</g>
<defs>
<clipPath id="clip0_157_452">
<rect width="111.009" height="100" fill="white" transform="translate(29 35)"/>
</clipPath>
</defs>
</svg>
