<svg width="30" height="40" viewBox="0 0 30 40" fill="none" xmlns="http://www.w3.org/2000/svg">
<path d="M29.3092 24.3571L27.359 21.1199C26.9495 20.3983 26.579 19.0332 26.579 18.2337V13.2999C26.579 8.71707 23.8878 4.75831 20.0071 2.90569C18.993 1.11157 17.1209 0 14.9757 0C12.8501 0 10.939 1.15057 9.92497 2.96419C6.12222 4.85582 3.48955 8.77557 3.48955 13.2999V18.2337C3.48955 19.0332 3.11903 20.3983 2.7095 21.1004L0.73987 24.3571C-0.0401809 25.6637 -0.215692 27.1068 0.27184 28.4329C0.739871 29.7394 1.85144 30.7535 3.29454 31.241C7.07779 32.5281 11.056 33.1522 15.0342 33.1522C19.0125 33.1522 22.9907 32.5281 26.774 31.2605C28.1391 30.812 29.1922 29.7784 29.6992 28.4329C30.2062 27.0873 30.0697 25.6052 29.3092 24.3571Z" fill="#00B971"/>
<path d="M20.5136 35.1218C19.6945 37.3839 17.5299 39.0025 14.9947 39.0025C13.4541 39.0025 11.933 38.3785 10.8605 37.2669C10.2364 36.6819 9.76838 35.9018 9.49536 35.1023C9.74888 35.1413 10.0024 35.1608 10.2754 35.1998C10.7239 35.2583 11.192 35.3168 11.66 35.3558C12.7716 35.4533 13.9027 35.5118 15.0337 35.5118C16.1453 35.5118 17.2569 35.4533 18.349 35.3558C18.7585 35.3168 19.168 35.2973 19.558 35.2388C19.8701 35.1998 20.1821 35.1608 20.5136 35.1218Z" fill="#00B971"/>
</svg>
