<?xml version="1.0" encoding="UTF-8"?>
<svg id="Capa_1" data-name="Capa 1" xmlns="http://www.w3.org/2000/svg" xmlns:xlink="http://www.w3.org/1999/xlink" viewBox="0 0 750 750">
  <defs>
    <style>
      .cls-1 {
        fill: url(#Degradado_sin_nombre_4);
      }
    </style>
    <linearGradient id="Degradado_sin_nombre_4" data-name="Degradado sin nombre 4" x1="882.25" y1="1477.66" x2="1182.3" y2="957.96" gradientTransform="translate(506.19 -1216.05) rotate(45)" gradientUnits="userSpaceOnUse">
      <stop offset="0" stop-color="#0dff6e"/>
      <stop offset=".51" stop-color="#00ba71"/>
      <stop offset="1" stop-color="#008b55"/>
    </linearGradient>
  </defs>
  <path class="cls-1" d="m587.13,162.87c-117.16-117.16-307.11-117.16-424.26,0-117.16,117.16-117.16,307.11,0,424.26,117.16,117.16,307.11,117.16,424.26,0,117.16-117.16,117.16-307.11,0-424.26Zm-370.35,405.71l145.29-145.29c16.68,4.45,35.21.15,48.29-12.94,19.53-19.53,19.53-51.18,0-70.71-19.53-19.53-51.18-19.53-70.71,0-13.08,13.08-17.39,31.61-12.94,48.29l-145.29,145.29c-80.46-98.2-74.86-243.33,16.8-335,91.66-91.66,236.8-97.26,335-16.8l-44.46,44.46c-60.94-14.93-207.91-39.57-290.54,43.05-106.07,106.07,0,212.13,0,212.13l35.36-35.36s-70.71-70.71,0-141.42c70.71-70.71,247.49-35.36,247.49-35.36,0,0,35.36,176.78-35.36,247.49-70.71,70.71-141.42,0-141.42,0l-35.36,35.36s106.07,106.07,212.13,0c82.62-82.62,57.98-229.59,43.05-290.54l44.46-44.46c80.46,98.2,74.86,243.33-16.8,335-91.66,91.66-236.8,97.26-335,16.8Z"/>
</svg>