<svg width="55" height="55" viewBox="0 0 55 55" fill="none" xmlns="http://www.w3.org/2000/svg">
<circle cx="27.5" cy="27.5" r="27.5" fill="#00B971"/>
<path d="M14.2988 26C13.4704 26 12.7988 26.6716 12.7988 27.5C12.7988 28.3284 13.4704 29 14.2988 29V26ZM42.8595 28.5607C43.4453 27.9749 43.4453 27.0251 42.8595 26.4393L33.3135 16.8934C32.7278 16.3076 31.778 16.3076 31.1922 16.8934C30.6064 17.4792 30.6064 18.4289 31.1922 19.0147L39.6775 27.5L31.1922 35.9853C30.6064 36.5711 30.6064 37.5208 31.1922 38.1066C31.778 38.6924 32.7278 38.6924 33.3135 38.1066L42.8595 28.5607ZM14.2988 29H41.7988V26H14.2988V29Z" fill="white"/>
</svg>
