<svg width="40" height="50" viewBox="0 0 40 50" fill="none" xmlns="http://www.w3.org/2000/svg">
    <g id="Wireframe - 3">
        <g id="Group 2120">
            <g id="🔆 icon &#34;drop&#34;">
                <g id="Group">
                    <path id="Vector" d="M31.3302 13.3566L5.95013 38.7367C4.76506 39.9217 2.74059 39.6502 2.02461 38.1441C0.740795 35.5024 0.000131921 32.5151 0.000131921 29.3796C-0.0492456 15.7514 13.7765 4.09834 18.4674 0.518464C19.3808 -0.172821 20.6153 -0.172821 21.5041 0.518464C23.652 2.14792 27.6763 5.53028 31.4537 9.97426C32.2931 10.9618 32.2437 12.4431 31.3302 13.3566Z" fill="#008A55"/>
                    <path id="Vector_2" d="M39.9997 29.4051C39.9997 40.4163 31.0376 49.3783 20.0018 49.3783C15.5825 49.3783 11.4594 47.9464 8.12637 45.4775C6.91663 44.5887 6.81787 42.8111 7.87949 41.7495L32.7412 16.8878C33.9015 15.7274 35.852 15.9743 36.642 17.4063C38.6665 21.1344 40.0244 25.1833 39.9997 29.4051Z" fill="#008A55"/>
                </g>
            </g>
        </g>
    </g>
</svg>
