<svg width="40" height="58" viewBox="0 0 40 58" fill="none" xmlns="http://www.w3.org/2000/svg">
<g id="&#240;&#159;&#166;&#134; icon &#34;tree&#34;">
<g id="Group">
<path id="Vector" d="M31.525 22.4297H8.47344C5.21194 22.4297 4.0787 20.2462 5.98585 17.5928L17.5116 1.45109C18.8659 -0.483697 21.1324 -0.483697 22.4867 1.45109L34.0126 17.5928C35.9197 20.2462 34.7865 22.4297 31.525 22.4297Z" fill="#00B971"/>
<path id="Vector_2" d="M35.4507 44.371H4.54932C0.182225 44.371 -1.31033 41.4688 1.26018 37.9309L12.2885 22.425H27.7115L38.7398 37.9309C41.3103 41.4688 39.8178 44.371 35.4507 44.371Z" fill="#00B971"/>
<path id="Vector_3" d="M22.0741 44.3749V55.4309C22.0741 56.5641 21.1343 57.5039 20.0011 57.5039C18.8679 57.5039 17.9281 56.5641 17.9281 55.4309V44.3749H22.0741Z" fill="#00B971"/>
</g>
</g>
</svg>
