<?xml version="1.0" encoding="UTF-8"?>
<svg id="Layer_1" data-name="Layer 1" xmlns="http://www.w3.org/2000/svg" viewBox="0 0 24 24">
  <defs>
    <style>
      .cls-1 {
        fill: #fff;
      }
    </style>
  </defs>
  <path class="cls-1" d="m5.5,8h-3c-1.38,0-2.5-1.12-2.5-2.5v-3C0,1.12,1.12,0,2.5,0h3c1.38,0,2.5,1.12,2.5,2.5v3c0,1.38-1.12,2.5-2.5,2.5Zm0,10h-3c-1.38,0-2.5-1.12-2.5-2.5v-3c0-1.38,1.12-2.5,2.5-2.5h3c1.38,0,2.5,1.12,2.5,2.5v3c0,1.38-1.12,2.5-2.5,2.5ZM15.5,0h-3c-1.38,0-2.5,1.12-2.5,2.5v3c0,1.38,1.12,2.5,2.5,2.5h3c1.38,0,2.5-1.12,2.5-2.5v-3c0-1.38-1.12-2.5-2.5-2.5Zm-.5,4.5c0,.28-.22.5-.5.5h-1c-.28,0-.5-.22-.5-.5v-1c0-.28.22-.5.5-.5h1c.28,0,.5.22.5.5v1Zm0,7.61c0-1-.68-1.92-1.66-2.08-1.25-.2-2.34.76-2.34,1.97v8.82c-1.08-.89-2.11-1.75-2.15-1.78-.92-.86-2.37-.81-3.23.11-.86.92-.82,2.37.1,3.23l1.82,1.63h16.46v-.59c0-2.06-1.26-3.9-3.17-4.65l-5.83-2.29v-4.35h0Z"/>
</svg>