<?xml version="1.0" encoding="UTF-8"?>
<svg id="Capa_1" data-name="Capa 1" xmlns="http://www.w3.org/2000/svg" viewBox="0 0 511.94 512">
  <defs>
    <style>
      .cls-1 {
        fill: #fff;
      }
    </style>
  </defs>
  <path class="cls-1" d="m170.67,448h-97.94c-4.81-.01-8.71-3.91-8.72-8.73V72.72c.01-4.81,3.91-8.71,8.72-8.72h97.94c17.67,0,32-14.33,32-32S188.34,0,170.67,0h-97.94C32.58.05.05,32.58,0,72.72v366.55c.05,40.15,32.58,72.68,72.73,72.73h97.94c17.67,0,32-14.33,32-32s-14.33-32-32-32Z"/>
  <path class="cls-1" d="m483.88,188.12l-82.82-82.75c-12.5-12.5-32.76-12.49-45.26.01s-12.49,32.76.01,45.26l72.79,72.77-289.94.6c-17.67,0-32,14.33-32,32s14.33,32,32,32h0l291.11-.53-73.96,73.96c-12.04,12.94-11.32,33.18,1.62,45.23,12.3,11.45,31.35,11.44,43.63-.02l82.75-82.75c37.49-37.49,37.49-98.27,0-135.76h0s.06,0,.06,0Z"/>
</svg>