<?xml version="1.0" encoding="UTF-8"?>
<svg id="Layer_1" data-name="Layer 1" xmlns="http://www.w3.org/2000/svg" viewBox="0 0 23.7 24">
  <defs>
    <style>
      .cls-1 {
        fill: #fff;
      }
    </style>
  </defs>
  <path class="cls-1" d="m23.2,19.13l-.95-.55c.17-.5.26-1.03.26-1.58s-.09-1.09-.26-1.58l.95-.55c.48-.28.64-.89.37-1.37-.28-.48-.89-.64-1.37-.37l-.96.55c-.71-.8-1.66-1.36-2.74-1.59v-1.1c0-.55-.45-1-1-1s-1,.45-1,1v1.1c-1.08.22-2.03.79-2.74,1.59l-.96-.55c-.48-.28-1.09-.11-1.37.37s-.11,1.09.37,1.37l.95.55c-.17.5-.26,1.03-.26,1.58s.09,1.09.26,1.58l-.95.55c-.48.28-.64.89-.37,1.37.19.32.52.5.87.5.17,0,.34-.04.5-.13l.96-.55c.71.8,1.66,1.36,2.74,1.58v1.1c0,.55.45,1,1,1s1-.45,1-1v-1.1c1.08-.22,2.03-.79,2.74-1.58l.96.55c.16.09.33.13.5.13.35,0,.68-.18.87-.5.28-.48.11-1.09-.37-1.37Zm-5.7-.63c-.83,0-1.5-.67-1.5-1.5s.67-1.5,1.5-1.5,1.5.67,1.5,1.5-.67,1.5-1.5,1.5Zm-9.5-.5h-3.44c-.36-.88-.93-1.7-1.7-2.42C.72,13.58-.3,10.75.08,7.82.59,3.78,3.91.52,7.96.06c2.57-.29,5.13.52,7.04,2.23,1.79,1.6,2.86,3.85,2.99,6.23-.16,0-.32-.01-.49-.01-3.25,0-6.07,1.82-7.5,4.5v-2.18c1.16-.41,2-1.51,2-2.82,0-.55-.45-1-1-1s-1,.45-1,1-.45,1-1,1-1-.45-1-1-.45-1-1-1-1,.45-1,1c0,1.3.84,2.4,2,2.82,0,0,0,7.18,0,7.18Zm3.65,5.16c-.64.52-1.45.84-2.34.84h-.62c-2.03,0-3.69-1.66-3.69-3.69v-.31h4.54c.46,1.21,1.18,2.29,2.1,3.16Z"/>
</svg>